<svg width="244" height="232" viewBox="0 0 244 232" fill="none" xmlns="http://www.w3.org/2000/svg">
<g clip-path="url(#clip0_2073_566)">
<path d="M141.655 179.635C140.137 177.856 138.808 176.085 137.388 174.39C136.987 173.912 136.284 173.307 135.785 173.364C129.239 174.116 123.678 171.733 118.489 168.098C118.151 167.859 117.786 167.662 117.16 167.282C116.218 171.894 115.339 176.296 114.404 180.683C114.228 181.505 114.06 182.602 113.49 182.996C112.731 183.523 111.268 183.973 110.678 183.586C109.869 183.052 109.04 181.611 109.187 180.725C110.115 175.276 111.311 169.876 112.428 164.456C112.59 163.682 112.78 162.916 112.998 162.157C113.764 159.457 115.733 158.852 117.793 160.729C120.9 163.556 124.205 166.073 128.255 167.374C129.724 167.845 131.278 168.063 133.401 168.527C132.726 167.219 132.311 166.445 131.925 165.665C131.285 164.378 130.554 163.127 130.069 161.784C129.337 159.752 130.167 158.177 132.206 157.98C135.313 157.671 137.085 155.78 138.449 153.291C139.933 150.591 140.797 146.626 140.523 143.708C136.572 144.777 132.663 145.831 128.761 146.9C125.717 147.737 122.679 148.594 119.642 149.438C116.309 150.366 115.262 149.769 114.32 146.415C114.165 145.867 113.982 145.325 113.75 144.594C111.029 144.777 108.034 145.037 106.241 142.632C104.744 140.629 103.492 138.217 102.909 135.799C101.7 130.793 103.471 127.608 108.386 124.936C106.86 119.41 105.32 113.827 103.788 108.245C102.951 105.201 102.086 102.164 101.299 99.1051C100.743 96.9748 101.489 95.6249 103.619 94.9992C107.394 93.8954 111.198 92.8759 115.17 91.7651C112.485 82.0064 109.82 72.3321 107.092 62.4399C105.728 62.7984 104.505 63.1219 103.289 63.4453C100.329 64.2257 99.1755 63.5929 98.374 60.6892C95.6461 50.8673 92.9182 41.0454 90.1129 30.9211C87.7998 32.8054 85.5992 34.5841 83.4056 36.391C80.5019 38.7815 79.377 38.683 77.0147 35.7934C73.2814 31.2305 69.541 26.6746 65.8007 22.1257C63.354 19.1447 63.4594 17.9494 66.3983 15.5519C72.2408 10.7851 78.0834 6.01125 83.94 1.25145C86.1687 -0.555451 87.603 -0.435929 89.4239 1.78578C93.4877 6.72838 97.4811 11.7202 101.566 16.6487C102.853 18.2025 103.014 19.7071 101.622 21.746C105.967 20.5649 109.94 19.4962 113.898 18.3994C119.565 16.8386 125.224 15.2567 130.891 13.7029C133.457 12.9998 134.793 13.7591 135.524 16.4027C138.147 25.8871 140.748 35.3716 143.357 44.856C143.434 45.1302 143.539 45.3904 143.729 45.9528C145.937 45.3833 148.123 44.8349 150.296 44.2444C155.414 42.8452 160.519 41.4039 165.644 40.0259C168.625 39.2244 169.694 39.8783 170.523 42.8593C173.237 52.6812 175.944 62.5102 178.665 72.3391C178.813 72.8805 179.016 73.4008 179.241 74.0617C180.451 73.7312 181.541 73.4289 182.637 73.1477C185.246 72.4798 186.603 73.2531 187.32 75.8404C188.768 81.0924 190.188 86.3444 191.658 91.7158C194.709 91.3362 197.69 90.7737 200.235 92.8337C202.295 94.493 203.258 96.785 203.8 99.302C205.108 105.384 203.399 108.512 197.071 111.332C198.112 115.093 199.167 118.883 200.193 122.686C201.114 126.082 200.545 127.094 197.198 128.03C191.531 129.611 185.864 131.165 179.706 132.867C180.641 133.296 181.224 133.577 181.822 133.83C191.756 138.041 199.518 144.657 204.468 154.367C204.854 155.133 205.171 155.942 205.473 156.743C206.057 158.311 205.677 159.52 204.151 160.371C202.464 161.306 200.833 162.332 199.314 163.239C201.128 167.584 202.893 171.796 204.742 176.218C205.234 175.543 205.754 174.833 206.261 174.123C209.91 169.054 214.255 164.716 219.598 161.433C221.545 160.23 223.029 160.42 223.929 161.861C224.787 163.232 224.21 164.695 222.326 165.904C215.633 170.2 210.655 176.042 206.936 183.017C206.633 183.586 206.493 184.339 206.036 184.711C205.171 185.428 204.053 186.49 203.188 186.364C202.337 186.237 201.22 184.929 200.995 183.959C199.581 177.695 197.753 171.613 194.484 165.918C192.115 166.909 189.802 167.999 187.404 168.843C184.472 169.876 183.404 168.948 182.912 165.953C182.658 164.414 181.941 162.712 180.887 161.594C177.048 157.502 172.162 155.435 166.586 154.957C165.3 154.845 164.765 155.245 164.379 156.588C161.426 166.931 155 174.376 145.283 178.925C144.243 179.424 142.97 179.438 141.655 179.635ZM139.862 91.2799C133.528 93.0517 127.193 94.8164 120.605 96.6584C124.571 111.043 128.48 125.245 132.431 139.574C153.066 133.872 173.413 128.248 193.816 122.602C189.83 108.147 185.928 93.9938 181.99 79.7074C167.859 83.5883 154.029 87.3919 139.862 91.2799ZM160.603 47.6824C150.394 50.5158 140.193 53.3562 129.822 56.2388C132.55 66.1099 135.222 75.7631 137.915 85.5147C149.776 82.2384 161.433 79.0254 173.23 75.7631C170.502 65.8779 167.845 56.2317 165.159 46.5012C163.563 46.902 162.248 47.2394 160.603 47.6824ZM142.33 172.281C143.272 174.102 144.678 173.652 145.972 172.886C151.899 169.349 156.342 164.442 158.501 157.861C159.626 154.43 159.998 150.732 160.561 147.132C160.828 145.431 161.201 143.975 163.204 143.856C164.871 143.764 165.742 144.938 165.778 147.104C165.792 147.941 165.778 148.77 165.778 149.551C166.284 149.684 166.488 149.762 166.692 149.79C175.438 150.774 182.876 153.938 187.474 162.016C187.699 162.417 188.677 162.825 189.014 162.656C192.628 160.842 196.186 158.916 200.13 156.82C198.407 154.339 197.085 152.075 195.419 150.099C190.097 143.807 183.361 139.546 175.529 137.113C173.258 136.41 170.643 135.623 168.456 136.101C161.672 137.577 155.021 139.679 148.299 141.451C146.513 141.922 145.902 142.696 145.817 144.671C145.522 151.547 143.673 157.812 137.381 161.777C136.15 162.55 136.474 163.422 137.057 164.322C138.73 166.895 140.439 169.455 142.33 172.281ZM122.363 22.4139C117.828 23.6584 113.286 24.9028 108.526 26.2105C111.093 35.4981 113.596 44.5607 116.12 53.6796C123.558 51.6126 130.631 49.651 137.781 47.6683C135.208 38.3315 132.726 29.3111 130.209 20.1922C127.509 20.9656 125.112 21.6476 122.363 22.4139ZM129.443 77.6684C127.587 71.0877 125.731 64.5139 123.853 57.8769C120.071 58.9526 116.605 59.9369 113.089 60.9353C115.649 70.4198 118.109 79.5386 120.556 88.6575C120.915 89.9863 121.779 90.0355 122.876 89.7121C125.21 89.0301 127.53 88.2778 129.9 87.7505C131.573 87.3779 132.009 86.6607 131.482 85.0366C130.744 82.7235 130.167 80.3542 129.443 77.6684ZM72.7892 18.1744C72.3322 18.5049 71.8752 18.8283 71.3409 19.215C74.5961 23.2154 77.6053 26.9136 80.7058 30.7172C85.6414 26.6675 90.4363 22.7444 95.3297 18.7298C92.1167 14.8137 89.0935 11.1437 86.014 7.38927C81.4722 11.0945 77.2537 14.5395 72.7892 18.1744ZM119.994 142.857C122.117 142.33 124.24 141.796 126.553 141.226C122.567 126.785 118.651 112.604 114.678 98.2193C112.211 98.9575 110.122 99.5762 107.957 100.223C109.757 106.867 111.472 113.23 113.195 119.586C113.497 120.689 113.708 121.85 114.186 122.876C114.467 123.481 115.114 124.149 115.733 124.338C122.743 126.532 125.309 134.941 120.697 140.692C120.261 141.247 120.057 141.993 119.994 142.857ZM109.736 53.6585C109.574 53.0328 109.419 52.407 109.251 51.7883C107.233 44.4693 105.215 37.1433 103.169 29.8314C102.916 28.9244 102.86 27.68 101.299 28.1721C99.6677 28.6854 98.0295 29.1564 96.1523 29.7189C98.6693 38.8518 101.165 47.9003 103.661 56.9559C105.637 56.4638 107.268 56.1614 108.808 55.606C109.272 55.4302 109.469 54.5444 109.736 53.6585ZM116.359 136.382C117.68 134.399 116.802 132.614 115.606 131.081C114.306 129.422 112.492 130.139 110.854 130.631C109.391 131.067 108.681 132.009 108.723 133.647C108.843 138.393 110.959 139.665 115.121 137.373C115.487 137.177 115.824 136.902 116.359 136.382ZM196.27 97.5373C195.321 97.5373 194.372 97.5373 193.204 97.5373C194.006 100.392 194.688 102.817 195.377 105.25C197.915 104.343 198.513 103.471 197.971 101.221C197.676 100.012 197.036 98.8731 196.27 97.5373Z" fill="black"/>
<path d="M144.516 197.338C153.192 197.219 161.671 196.931 170.143 197.022C178.461 197.106 186.785 197.479 195.095 197.908C198.73 198.098 202.351 198.695 205.965 199.195C206.802 199.307 207.589 199.778 208.398 200.088C208.377 200.327 208.355 200.566 208.341 200.805C205.86 201.248 203.392 201.887 200.889 202.084C195.391 202.52 189.879 202.914 184.367 203.005C170.432 203.23 156.49 203.519 142.562 203.322C133.907 203.202 125.266 202.281 116.619 201.641C115.48 201.557 114.369 201.051 113.258 200.249C123.466 197.5 133.9 197.585 144.516 197.338Z" fill="#B0B7BE"/>
<path d="M140.031 91.2307C154.029 87.3849 167.851 83.5883 181.99 79.7003C185.927 93.9868 189.83 108.14 193.816 122.595C173.413 128.233 153.059 133.858 132.431 139.567C128.486 125.245 124.57 111.036 120.605 96.6514C127.186 94.8164 133.527 93.0447 140.031 91.2307ZM162.867 98.1279C163.31 99.6254 163.753 101.123 164.245 102.803C169.89 101.264 175.367 99.766 181.154 98.1841C180.183 94.5774 179.269 91.1815 178.348 87.7646C172.562 89.3535 167.085 90.8511 161.454 92.3978C161.939 94.3524 162.368 96.0679 162.867 98.1279Z" fill="#C7B099"/>
<path d="M160.765 47.6261C162.248 47.2395 163.563 46.902 165.159 46.4942C167.844 56.2247 170.502 65.8709 173.23 75.7561C161.425 79.0184 149.768 82.2314 137.915 85.5077C135.222 75.7561 132.55 66.1029 129.822 56.2318C140.186 53.3562 150.394 50.5158 160.765 47.6261ZM148.77 59.944C153.706 58.5449 158.648 57.1387 163.696 55.7115C163.317 54.1999 162.972 53.0398 162.74 51.8587C162.522 50.7408 162.009 50.4806 160.912 50.804C156.581 52.0625 152.222 53.2085 147.905 54.5092C147.448 54.6498 146.83 55.5849 146.928 55.9927C147.273 57.3356 147.912 58.6152 148.77 59.944Z" fill="#C7B099"/>
<path d="M142.239 172.154C140.446 169.462 138.73 166.895 137.057 164.315C136.474 163.415 136.15 162.543 137.381 161.77C143.68 157.805 145.529 151.54 145.817 144.664C145.902 142.682 146.513 141.908 148.299 141.444C155.028 139.672 161.672 137.57 168.456 136.094C170.65 135.616 173.265 136.403 175.529 137.106C183.361 139.539 190.097 143.799 195.419 150.092C197.085 152.061 198.407 154.332 200.13 156.813C196.186 158.909 192.628 160.835 189.014 162.649C188.677 162.818 187.699 162.41 187.474 162.009C182.883 153.931 175.438 150.767 166.692 149.783C166.488 149.762 166.284 149.677 165.778 149.544C165.778 148.763 165.792 147.934 165.778 147.097C165.742 144.938 164.871 143.757 163.204 143.849C161.201 143.961 160.828 145.424 160.561 147.125C159.998 150.725 159.626 154.423 158.501 157.854C156.342 164.435 151.892 169.342 145.972 172.879C144.678 173.652 143.272 174.102 142.239 172.154Z" fill="#009CCC"/>
<path d="M122.532 22.3718C125.105 21.6476 127.51 20.9586 130.202 20.1923C132.712 29.3111 135.201 38.3315 137.774 47.6683C130.624 49.651 123.551 51.6126 116.113 53.6796C113.596 44.5608 111.086 35.4982 108.52 26.2106C113.286 24.9028 117.821 23.6584 122.532 22.3718ZM123.622 25.8309C122.75 26.1051 121.885 26.3723 120.83 26.7027C121.547 29.3885 122.229 31.9547 122.933 34.5701C125.154 33.9795 127.179 33.5506 129.113 32.8476C129.654 32.6507 130.329 31.575 130.223 31.0477C129.795 28.9033 129.091 26.8082 128.452 24.5865C126.828 24.9872 125.386 25.3458 123.622 25.8309Z" fill="#C7B099"/>
<path d="M129.478 77.8372C130.16 80.3542 130.743 82.7235 131.489 85.0367C132.009 86.6537 131.58 87.3779 129.907 87.7505C127.537 88.2778 125.217 89.0301 122.883 89.7121C121.786 90.0285 120.921 89.9793 120.563 88.6575C118.116 79.5386 115.655 70.4198 113.096 60.9353C116.612 59.937 120.071 58.9527 123.86 57.877C125.73 64.5069 127.587 71.0877 129.478 77.8372Z" fill="#90847F"/>
<path d="M72.9155 18.076C77.2535 14.5325 81.4719 11.0945 86.0208 7.38928C89.1002 11.1437 92.1164 14.8137 95.3365 18.7298C90.4431 22.7374 85.6482 26.6675 80.7126 30.7172C77.6191 26.9136 74.6029 23.2155 71.3477 19.215C71.882 18.8353 72.332 18.5049 72.9155 18.076ZM81.5422 20.8813C82.7234 19.3415 82.1961 18.2869 79.0111 15.9808C77.6261 17.1268 76.2129 18.2939 74.6591 19.5806C75.784 21.05 76.7894 22.3718 77.7597 23.6443C79.1096 22.6671 80.2064 21.8656 81.5422 20.8813Z" fill="#C7B099"/>
<path d="M119.867 142.752C120.057 141.993 120.261 141.247 120.704 140.692C125.316 134.941 122.749 126.532 115.74 124.338C115.121 124.142 114.474 123.481 114.193 122.876C113.715 121.85 113.497 120.697 113.202 119.586C111.479 113.23 109.757 106.867 107.964 100.223C110.129 99.5762 112.217 98.9505 114.685 98.2193C118.658 112.604 122.574 126.778 126.56 141.226C124.24 141.796 122.117 142.33 119.867 142.752Z" fill="#90847F"/>
<path d="M109.764 53.8202C109.476 54.5444 109.272 55.4303 108.808 55.599C107.275 56.1544 105.644 56.4567 103.661 56.9489C101.165 47.8933 98.6693 38.8448 96.1523 29.7119C98.0295 29.1494 99.6677 28.6783 101.299 28.1651C102.867 27.6729 102.916 28.9174 103.169 29.8243C105.215 37.1363 107.226 44.4623 109.251 51.7813C109.419 52.407 109.574 53.0328 109.764 53.8202Z" fill="#90847F"/>
<path d="M116.267 136.523C115.824 136.902 115.487 137.177 115.114 137.38C110.952 139.672 108.836 138.4 108.716 133.654C108.674 132.016 109.391 131.074 110.846 130.638C112.485 130.146 114.299 129.436 115.599 131.088C116.808 132.614 117.68 134.399 116.267 136.523Z" fill="#E3C9A9"/>
<path d="M196.418 97.6146C197.043 98.8661 197.676 100.005 197.971 101.228C198.513 103.471 197.915 104.35 195.377 105.257C194.688 102.817 194.006 100.399 193.205 97.5443C194.372 97.5373 195.321 97.5373 196.418 97.6146Z" fill="#E3C9A9"/>
<path d="M162.832 97.9591C162.368 96.0679 161.939 94.3524 161.454 92.4049C167.085 90.8581 172.562 89.3606 178.348 87.7716C179.269 91.1885 180.183 94.5844 181.154 98.1912C175.367 99.7731 169.89 101.264 164.245 102.81C163.753 101.123 163.31 99.6254 162.832 97.9591Z" fill="#F7F5F0"/>
<path d="M148.608 59.9299C147.919 58.6082 147.28 57.3356 146.935 55.9857C146.83 55.5849 147.455 54.6428 147.912 54.5022C152.229 53.2086 156.588 52.0555 160.919 50.797C162.016 50.4806 162.529 50.7337 162.747 51.8516C162.979 53.0328 163.317 54.1929 163.703 55.7045C158.648 57.1458 153.706 58.5449 148.608 59.9299Z" fill="#F7F5F0"/>
<path d="M123.783 25.7676C125.386 25.3458 126.835 24.9802 128.445 24.5794C129.084 26.8082 129.787 28.8963 130.216 31.0407C130.322 31.568 129.647 32.6437 129.105 32.8405C127.179 33.5436 125.154 33.9655 122.925 34.5631C122.229 31.9476 121.54 29.3744 120.823 26.6957C121.878 26.3723 122.75 26.1051 123.783 25.7676Z" fill="#F7F5F0"/>
<path d="M81.4227 20.9727C80.2064 21.8656 79.1096 22.66 77.7597 23.6373C76.7895 22.3647 75.7771 21.043 74.6592 19.5735C76.213 18.2869 77.6261 17.1198 79.0112 15.9738C82.1961 18.294 82.7234 19.3415 81.4227 20.9727Z" fill="#F7F5F0"/>
<path d="M74.6593 132.508H2.46076C1.10382 132.508 0 131.404 0 130.047C0 128.69 1.10382 127.587 2.46076 127.587H74.6593C76.0162 127.587 77.1201 128.69 77.1201 130.047C77.1201 131.404 76.0162 132.508 74.6593 132.508Z" fill="black"/>
<path d="M92.236 142.035H20.0374C18.6805 142.035 17.5767 140.931 17.5767 139.574C17.5767 138.217 18.6805 137.113 20.0374 137.113H92.236C93.5929 137.113 94.6967 138.217 94.6967 139.574C94.6967 140.931 93.5929 142.035 92.236 142.035Z" fill="black"/>
<path d="M92.2361 120.24H38.5565C37.1995 120.24 36.0957 119.136 36.0957 117.779C36.0957 116.422 37.1995 115.318 38.5565 115.318H92.229C93.586 115.318 94.6898 116.422 94.6898 117.779C94.6898 119.136 93.593 120.24 92.2361 120.24Z" fill="black"/>
<path d="M84.657 231.754H80.1643C79.5175 231.754 79.0535 231.606 78.7722 231.318C78.498 231.03 78.3574 230.566 78.3574 229.926V218.874C78.3574 218.227 78.498 217.763 78.7863 217.475C79.0675 217.193 79.5316 217.046 80.1643 217.046H84.9241C85.6272 217.046 86.2318 217.088 86.7521 217.179C87.2654 217.264 87.7294 217.432 88.1372 217.678C88.4817 217.882 88.791 218.149 89.0582 218.466C89.3254 218.782 89.5293 219.134 89.6699 219.52C89.8105 219.907 89.8808 220.308 89.8808 220.737C89.8808 222.206 89.1426 223.282 87.6731 223.964C89.6066 224.576 90.5698 225.778 90.5698 227.557C90.5698 228.379 90.3589 229.117 89.937 229.778C89.5152 230.439 88.9457 230.924 88.2356 231.241C87.7856 231.43 87.2724 231.557 86.6888 231.634C86.1053 231.712 85.4303 231.754 84.657 231.754ZM81.3385 219.288V223.085H84.0664C84.8116 223.085 85.3811 223.015 85.7889 222.874C86.1967 222.733 86.499 222.466 86.717 222.073C86.8857 221.791 86.9701 221.475 86.9701 221.13C86.9701 220.385 86.7029 219.893 86.1756 219.654C85.6483 219.408 84.8398 219.288 83.757 219.288H81.3385ZM84.439 225.222H81.3385V229.511H84.5374C86.5482 229.511 87.5536 228.787 87.5536 227.339C87.5536 226.6 87.2935 226.059 86.7732 225.722C86.2529 225.391 85.4725 225.222 84.439 225.222Z" fill="#009CCB"/>
<path d="M101.77 230.088L101.067 228.246H95.0904L94.3874 230.13C94.1132 230.868 93.8812 231.36 93.6843 231.62C93.4874 231.88 93.171 232.007 92.7351 232.007C92.3625 232.007 92.0321 231.866 91.7438 231.599C91.4556 231.332 91.3149 231.016 91.3149 230.664C91.3149 230.46 91.3501 230.256 91.4134 230.045C91.4837 229.835 91.5891 229.532 91.7438 229.153L95.5052 219.605C95.6107 219.331 95.7373 219 95.8919 218.621C96.0396 218.234 96.2013 217.917 96.37 217.664C96.5388 217.411 96.7638 217.207 97.045 217.046C97.3192 216.891 97.6637 216.814 98.0715 216.814C98.4863 216.814 98.8308 216.891 99.112 217.046C99.3862 217.2 99.6112 217.404 99.787 217.65C99.9557 217.896 100.103 218.164 100.216 218.445C100.335 218.726 100.483 219.106 100.659 219.584L104.498 229.068C104.8 229.792 104.948 230.313 104.948 230.643C104.948 230.988 104.807 231.297 104.519 231.578C104.237 231.859 103.893 232.007 103.492 232.007C103.26 232.007 103.056 231.965 102.888 231.88C102.719 231.796 102.578 231.684 102.466 231.536C102.353 231.388 102.234 231.17 102.1 230.875C101.981 230.58 101.868 230.313 101.77 230.088ZM95.8779 226.01H100.272L98.0574 219.942L95.8779 226.01Z" fill="#009CCB"/>
<path d="M108.983 217.053H112.864C113.876 217.053 114.741 217.144 115.458 217.334C116.183 217.524 116.836 217.875 117.427 218.389C118.96 219.696 119.726 221.693 119.726 224.365C119.726 225.243 119.649 226.052 119.494 226.783C119.339 227.514 119.1 228.168 118.784 228.752C118.46 229.335 118.053 229.863 117.554 230.32C117.16 230.671 116.731 230.959 116.26 231.17C115.789 231.381 115.29 231.536 114.748 231.62C114.207 231.705 113.602 231.754 112.927 231.754H109.046C108.505 231.754 108.097 231.67 107.823 231.508C107.549 231.346 107.373 231.114 107.289 230.819C107.204 230.524 107.162 230.137 107.162 229.659V218.881C107.162 218.241 107.303 217.777 107.591 217.489C107.872 217.2 108.343 217.053 108.983 217.053ZM110.136 219.408V229.385H112.393C112.885 229.385 113.272 229.371 113.553 229.342C113.834 229.314 114.123 229.251 114.425 229.138C114.727 229.026 114.987 228.878 115.205 228.689C116.204 227.845 116.703 226.397 116.703 224.336C116.703 222.888 116.485 221.798 116.049 221.081C115.613 220.357 115.072 219.9 114.432 219.703C113.792 219.506 113.012 219.408 112.105 219.408H110.136Z" fill="#009CCB"/>
<path d="M132.023 219.352H125.316V222.958H131.488C131.945 222.958 132.283 223.057 132.508 223.261C132.733 223.465 132.845 223.732 132.845 224.069C132.845 224.407 132.733 224.674 132.515 224.885C132.297 225.096 131.953 225.201 131.488 225.201H125.316V229.385H132.255C132.726 229.385 133.077 229.49 133.309 229.708C133.548 229.926 133.668 230.214 133.668 230.573C133.668 230.924 133.548 231.206 133.309 231.423C133.07 231.641 132.719 231.747 132.255 231.747H124.162C123.516 231.747 123.045 231.606 122.763 231.318C122.482 231.03 122.334 230.566 122.334 229.926V218.874C122.334 218.445 122.398 218.093 122.524 217.826C122.651 217.559 122.848 217.355 123.122 217.235C123.396 217.109 123.741 217.053 124.162 217.053H132.023C132.501 217.053 132.852 217.158 133.077 217.369C133.309 217.58 133.422 217.854 133.422 218.199C133.422 218.543 133.309 218.824 133.077 219.035C132.852 219.246 132.501 219.352 132.023 219.352Z" fill="#009CCB"/>
<path d="M140.038 225.468H138.998V230.193C138.998 230.812 138.864 231.276 138.59 231.564C138.316 231.859 137.957 232.007 137.514 232.007C137.036 232.007 136.67 231.852 136.41 231.543C136.15 231.234 136.017 230.784 136.017 230.193V218.881C136.017 218.241 136.157 217.777 136.445 217.489C136.734 217.2 137.198 217.06 137.838 217.06H142.682C143.35 217.06 143.919 217.088 144.397 217.144C144.868 217.2 145.297 217.32 145.684 217.489C146.148 217.685 146.556 217.96 146.907 218.318C147.259 218.677 147.533 219.099 147.716 219.577C147.899 220.055 147.99 220.561 147.99 221.095C147.99 222.192 147.681 223.064 147.062 223.725C146.443 224.379 145.508 224.843 144.25 225.117C144.777 225.398 145.283 225.813 145.761 226.361C146.239 226.91 146.675 227.493 147.048 228.112C147.427 228.731 147.723 229.286 147.934 229.785C148.145 230.284 148.25 230.629 148.25 230.812C148.25 231.009 148.187 231.198 148.067 231.388C147.941 231.578 147.772 231.726 147.561 231.838C147.35 231.951 147.097 232.007 146.816 232.007C146.478 232.007 146.197 231.93 145.972 231.775C145.747 231.62 145.55 231.416 145.389 231.177C145.227 230.938 145.002 230.58 144.721 230.116L143.525 228.133C143.097 227.402 142.717 226.846 142.379 226.467C142.042 226.087 141.697 225.827 141.353 225.686C141.001 225.539 140.565 225.468 140.038 225.468ZM141.74 219.288H138.991V223.331H141.655C142.372 223.331 142.97 223.268 143.462 223.148C143.947 223.022 144.32 222.811 144.58 222.516C144.84 222.22 144.967 221.805 144.967 221.285C144.967 220.877 144.861 220.519 144.657 220.209C144.453 219.9 144.165 219.668 143.793 219.513C143.448 219.366 142.766 219.288 141.74 219.288Z" fill="#009CCB"/>
<path d="M160.491 219.352H153.783V222.958H159.956C160.413 222.958 160.751 223.057 160.976 223.261C161.201 223.465 161.313 223.732 161.313 224.069C161.313 224.407 161.201 224.674 160.983 224.885C160.765 225.096 160.42 225.201 159.956 225.201H153.783V229.385H160.723C161.194 229.385 161.545 229.49 161.777 229.708C162.016 229.926 162.136 230.214 162.136 230.573C162.136 230.924 162.016 231.206 161.777 231.423C161.538 231.641 161.187 231.747 160.723 231.747H152.63C151.983 231.747 151.512 231.606 151.231 231.318C150.95 231.03 150.802 230.566 150.802 229.926V218.874C150.802 218.445 150.866 218.093 150.992 217.826C151.119 217.559 151.315 217.355 151.59 217.235C151.864 217.109 152.208 217.053 152.63 217.053H160.491C160.969 217.053 161.32 217.158 161.545 217.369C161.777 217.58 161.89 217.854 161.89 218.199C161.89 218.543 161.777 218.824 161.545 219.035C161.32 219.246 160.962 219.352 160.491 219.352Z" fill="black"/>
<path d="M163.957 228.892L167.247 224.09L164.477 219.816C164.217 219.401 164.02 219.042 163.894 218.747C163.76 218.452 163.697 218.164 163.697 217.889C163.697 217.608 163.823 217.355 164.069 217.13C164.322 216.905 164.625 216.793 164.983 216.793C165.398 216.793 165.721 216.912 165.954 217.158C166.186 217.404 166.502 217.854 166.91 218.515L169.117 222.087L171.473 218.515C171.669 218.213 171.831 217.96 171.972 217.742C172.105 217.531 172.239 217.348 172.366 217.207C172.492 217.067 172.633 216.961 172.794 216.891C172.949 216.821 173.132 216.785 173.343 216.785C173.715 216.785 174.025 216.898 174.257 217.123C174.496 217.348 174.615 217.615 174.615 217.917C174.615 218.367 174.355 218.972 173.842 219.745L170.945 224.076L174.067 228.878C174.348 229.3 174.552 229.652 174.679 229.926C174.805 230.2 174.868 230.467 174.868 230.713C174.868 230.945 174.812 231.163 174.7 231.353C174.587 231.55 174.426 231.698 174.222 231.817C174.018 231.93 173.779 231.986 173.519 231.986C173.237 231.986 172.998 231.93 172.808 231.81C172.612 231.691 172.457 231.55 172.337 231.374C172.218 231.198 171.993 230.861 171.662 230.362L169.075 226.291L166.326 230.481C166.115 230.812 165.961 231.051 165.869 231.184C165.778 231.318 165.672 231.452 165.546 231.578C165.419 231.705 165.264 231.803 165.096 231.88C164.927 231.958 164.716 231.993 164.484 231.993C164.126 231.993 163.823 231.88 163.584 231.663C163.345 231.445 163.226 231.121 163.226 230.699C163.226 230.214 163.472 229.61 163.957 228.892Z" fill="black"/>
<path d="M182.609 226.024H179.881V230.186C179.881 230.784 179.741 231.234 179.459 231.536C179.178 231.845 178.827 232 178.398 232C177.948 232 177.589 231.845 177.315 231.543C177.041 231.241 176.907 230.791 176.907 230.207V218.874C176.907 218.22 177.055 217.749 177.357 217.467C177.66 217.186 178.138 217.046 178.791 217.046H182.609C183.741 217.046 184.606 217.13 185.218 217.306C185.822 217.474 186.342 217.749 186.778 218.135C187.214 218.522 187.552 219 187.777 219.563C188.002 220.125 188.114 220.758 188.114 221.461C188.114 222.958 187.657 224.09 186.729 224.864C185.808 225.644 184.437 226.024 182.609 226.024ZM181.885 219.288H179.881V223.781H181.885C182.588 223.781 183.172 223.711 183.643 223.563C184.114 223.415 184.472 223.176 184.718 222.839C184.964 222.509 185.091 222.066 185.091 221.524C185.091 220.877 184.901 220.35 184.522 219.942C184.1 219.506 183.221 219.288 181.885 219.288Z" fill="black"/>
<path d="M194.604 225.468H193.563V230.193C193.563 230.812 193.422 231.276 193.155 231.564C192.881 231.859 192.523 232.007 192.08 232.007C191.609 232.007 191.236 231.852 190.976 231.543C190.716 231.234 190.582 230.784 190.582 230.193V218.881C190.582 218.241 190.73 217.777 191.011 217.489C191.299 217.2 191.763 217.06 192.403 217.06H197.247C197.915 217.06 198.485 217.088 198.963 217.144C199.434 217.2 199.863 217.32 200.249 217.489C200.713 217.685 201.121 217.96 201.473 218.318C201.824 218.677 202.098 219.099 202.281 219.577C202.464 220.055 202.555 220.561 202.555 221.095C202.555 222.192 202.246 223.064 201.627 223.725C201.009 224.379 200.074 224.843 198.815 225.117C199.342 225.398 199.849 225.813 200.327 226.361C200.805 226.91 201.241 227.493 201.613 228.112C201.993 228.731 202.288 229.286 202.492 229.785C202.703 230.284 202.808 230.629 202.808 230.812C202.808 231.009 202.745 231.198 202.626 231.388C202.499 231.578 202.33 231.726 202.119 231.838C201.909 231.951 201.655 232.007 201.374 232.007C201.044 232.007 200.763 231.93 200.531 231.775C200.298 231.62 200.109 231.416 199.947 231.177C199.785 230.938 199.56 230.58 199.279 230.116L198.084 228.133C197.655 227.402 197.275 226.846 196.938 226.467C196.6 226.087 196.256 225.827 195.911 225.686C195.567 225.539 195.131 225.468 194.604 225.468ZM196.305 219.288H193.556V223.331H196.221C196.938 223.331 197.535 223.268 198.028 223.148C198.513 223.022 198.885 222.811 199.145 222.516C199.406 222.22 199.532 221.805 199.532 221.285C199.532 220.877 199.427 220.519 199.223 220.209C199.019 219.9 198.731 219.668 198.358 219.513C198.014 219.366 197.332 219.288 196.305 219.288Z" fill="black"/>
<path d="M215.056 219.352H208.349V222.958H214.529C214.986 222.958 215.323 223.057 215.548 223.261C215.773 223.465 215.886 223.732 215.886 224.069C215.886 224.407 215.773 224.674 215.555 224.885C215.337 225.096 214.993 225.201 214.536 225.201H208.356V229.385H215.295C215.766 229.385 216.118 229.49 216.35 229.708C216.589 229.926 216.708 230.214 216.708 230.573C216.708 230.924 216.589 231.206 216.35 231.423C216.111 231.641 215.759 231.747 215.295 231.747H207.196C206.549 231.747 206.085 231.606 205.797 231.318C205.515 231.03 205.368 230.566 205.368 229.926V218.874C205.368 218.445 205.431 218.093 205.557 217.826C205.684 217.559 205.881 217.355 206.155 217.235C206.422 217.109 206.774 217.053 207.196 217.053H215.056C215.527 217.053 215.886 217.158 216.111 217.369C216.336 217.58 216.455 217.854 216.455 218.199C216.455 218.543 216.343 218.824 216.111 219.035C215.886 219.246 215.527 219.352 215.056 219.352Z" fill="black"/>
<path d="M230.235 227.339C230.235 228.225 230.003 229.026 229.546 229.736C229.089 230.446 228.421 231.002 227.536 231.402C226.65 231.803 225.609 232.007 224.4 232.007C222.952 232.007 221.749 231.733 220.807 231.184C220.139 230.791 219.598 230.263 219.176 229.603C218.761 228.942 218.55 228.302 218.55 227.683C218.55 227.325 218.677 227.015 218.923 226.755C219.176 226.495 219.492 226.368 219.879 226.368C220.195 226.368 220.463 226.467 220.674 226.671C220.884 226.875 221.074 227.17 221.229 227.564C221.419 228.035 221.616 228.421 221.834 228.738C222.052 229.054 222.354 229.314 222.748 229.518C223.141 229.722 223.662 229.828 224.301 229.828C225.18 229.828 225.897 229.624 226.453 229.209C227.008 228.801 227.282 228.288 227.282 227.669C227.282 227.184 227.135 226.783 226.84 226.481C226.544 226.179 226.158 225.947 225.686 225.785C225.215 225.623 224.583 225.454 223.795 225.272C222.741 225.026 221.855 224.737 221.145 224.407C220.435 224.076 219.865 223.626 219.45 223.057C219.035 222.487 218.824 221.777 218.824 220.927C218.824 220.118 219.042 219.401 219.485 218.768C219.928 218.142 220.568 217.657 221.398 217.32C222.234 216.982 223.219 216.814 224.344 216.814C225.244 216.814 226.024 216.926 226.685 217.151C227.346 217.376 227.887 217.671 228.323 218.044C228.759 218.417 229.075 218.803 229.272 219.211C229.476 219.619 229.574 220.02 229.574 220.406C229.574 220.758 229.448 221.081 229.202 221.363C228.956 221.644 228.639 221.791 228.267 221.791C227.929 221.791 227.669 221.707 227.493 221.538C227.318 221.37 227.121 221.088 226.917 220.702C226.65 220.146 226.326 219.71 225.954 219.401C225.581 219.092 224.976 218.937 224.147 218.937C223.38 218.937 222.762 219.106 222.284 219.443C221.813 219.781 221.581 220.188 221.581 220.659C221.581 220.955 221.658 221.208 221.82 221.419C221.981 221.63 222.199 221.819 222.48 221.967C222.762 222.115 223.043 222.241 223.331 222.326C223.619 222.41 224.09 222.537 224.758 222.705C225.588 222.902 226.34 223.113 227.008 223.345C227.683 223.577 228.253 223.865 228.724 224.196C229.195 224.533 229.56 224.955 229.828 225.461C230.095 225.968 230.235 226.6 230.235 227.339Z" fill="black"/>
<path d="M243.931 227.339C243.931 228.225 243.699 229.026 243.242 229.736C242.785 230.446 242.117 231.002 241.231 231.402C240.345 231.803 239.305 232.007 238.096 232.007C236.647 232.007 235.445 231.733 234.503 231.184C233.835 230.791 233.294 230.263 232.872 229.603C232.457 228.942 232.246 228.302 232.246 227.683C232.246 227.325 232.373 227.015 232.619 226.755C232.872 226.495 233.188 226.368 233.575 226.368C233.891 226.368 234.158 226.467 234.369 226.671C234.58 226.875 234.77 227.17 234.925 227.564C235.115 228.035 235.312 228.421 235.529 228.738C235.747 229.054 236.05 229.314 236.443 229.518C236.837 229.722 237.357 229.828 237.997 229.828C238.876 229.828 239.593 229.624 240.149 229.209C240.704 228.801 240.978 228.288 240.978 227.669C240.978 227.184 240.831 226.783 240.535 226.481C240.24 226.179 239.853 225.947 239.382 225.785C238.911 225.623 238.278 225.454 237.491 225.272C236.436 225.026 235.551 224.737 234.84 224.407C234.13 224.076 233.561 223.626 233.146 223.057C232.731 222.487 232.52 221.777 232.52 220.927C232.52 220.118 232.738 219.401 233.181 218.768C233.624 218.142 234.264 217.657 235.094 217.32C235.93 216.982 236.915 216.814 238.039 216.814C238.939 216.814 239.72 216.926 240.381 217.151C241.042 217.376 241.583 217.671 242.019 218.044C242.455 218.417 242.771 218.803 242.968 219.211C243.172 219.619 243.27 220.02 243.27 220.406C243.27 220.758 243.144 221.081 242.898 221.363C242.652 221.644 242.335 221.791 241.963 221.791C241.625 221.791 241.365 221.707 241.189 221.538C241.013 221.37 240.817 221.088 240.613 220.702C240.346 220.146 240.022 219.71 239.649 219.401C239.277 219.092 238.672 218.937 237.843 218.937C237.076 218.937 236.458 219.106 235.979 219.443C235.508 219.781 235.276 220.188 235.276 220.659C235.276 220.955 235.354 221.208 235.515 221.419C235.677 221.63 235.895 221.819 236.176 221.967C236.458 222.115 236.739 222.241 237.027 222.326C237.315 222.41 237.786 222.537 238.454 222.705C239.284 222.902 240.036 223.113 240.704 223.345C241.379 223.577 241.948 223.865 242.42 224.196C242.891 224.533 243.256 224.955 243.523 225.461C243.791 225.968 243.931 226.6 243.931 227.339Z" fill="black"/>
</g>
<defs>
<clipPath id="clip0_2073_566">
<rect width="243.931" height="232" fill="white"/>
</clipPath>
</defs>
</svg>
