<svg width="261" height="72" viewBox="0 0 261 72" fill="none" xmlns="http://www.w3.org/2000/svg">
<g clip-path="url(#clip0_2119_8002)">
<path d="M13.9082 53.6721H0.5V0H13.9082V53.6721Z" fill="#F5C344"/>
<path d="M29.919 28.4726V53.6721H16.5109V0H30.1162L39.9751 18.7714L49.8341 0H63.4394V53.6721H50.0313V28.4726L39.9751 47.6778L29.919 28.4726Z" fill="white"/>
<path d="M147.911 0H161.753L147.359 53.6721H131.111L116.757 0H130.599L139.235 32.2585L147.911 0Z" fill="white"/>
<path d="M178.158 40.2639H201.622V53.6721H164.711V0H201.622V13.4082H178.158V20.1122H198.27V33.5204H178.158V40.2639Z" fill="white"/>
<path d="M217.633 53.6721H204.225V0H217.633V53.6721Z" fill="#F5C344"/>
<path d="M247.052 13.4082V53.6721H233.644V13.4082H220.236V0H260.5V13.4082H247.052Z" fill="#F5C344"/>
<path d="M93.0557 53.7115C107.888 53.7115 119.911 41.6878 119.911 26.8558C119.911 12.0237 107.888 0 93.0557 0C78.2237 0 66.2 12.0237 66.2 26.8558C66.2 41.6878 78.2237 53.7115 93.0557 53.7115Z" fill="white"/>
<path d="M48.0596 34.7035C48.0596 34.7035 61.3494 20.546 85.7207 20.546V13.7236L105.478 27.8416L86.1545 41.8808V34.7035C86.1545 34.7035 62.0987 27.5656 48.4934 37.7006L48.0596 34.7035Z" fill="#11274A"/>
<path d="M0.5 64.5562H1.44646V71.418H0.5V64.5562Z" fill="white"/>
<path d="M9.2942 64.5562H10.6744L12.8434 69.7617H12.8829L15.0518 64.5562H16.4321V71.418H15.4856V65.7787L13.1589 71.418H12.5279L10.2012 65.7787V71.418H9.25476V64.5562H9.2942Z" fill="white"/>
<path d="M23.0573 71.6153C22.5446 71.6153 22.0714 71.5364 21.5982 71.3392C21.1644 71.1421 20.77 70.9055 20.4545 70.59C20.139 70.2745 19.9024 69.8801 19.7052 69.4463C19.5081 69.0125 19.4292 68.5393 19.4292 68.0266C19.4292 67.514 19.5081 67.0407 19.7052 66.607C19.9024 66.1732 20.139 65.7788 20.4545 65.4633C20.77 65.1478 21.1249 64.8718 21.5982 64.714C22.032 64.5169 22.5052 64.438 23.0573 64.438C23.6094 64.438 24.0432 64.5169 24.5164 64.714C24.9502 64.9112 25.3446 65.1478 25.66 65.4633C25.9755 65.7788 26.2121 66.1732 26.4093 66.607C26.5671 67.0407 26.6854 67.514 26.6854 68.0266C26.6854 68.5393 26.6065 69.0125 26.4093 69.4463C26.2121 69.8801 25.9755 70.2745 25.66 70.59C25.3446 70.9055 24.9896 71.1815 24.5164 71.3392C24.0432 71.497 23.57 71.6153 23.0573 71.6153ZM23.0573 70.7477C23.4516 70.7477 23.8066 70.6688 24.1221 70.5111C24.4375 70.3534 24.7136 70.1562 24.9502 69.9196C25.1868 69.6829 25.3446 69.3675 25.4629 69.052C25.5812 68.7365 25.66 68.3816 25.66 67.9872C25.66 67.5928 25.5812 67.2774 25.4629 66.9224C25.3446 66.607 25.1474 66.2915 24.9502 66.0549C24.7136 65.8182 24.4375 65.6211 24.1221 65.4633C23.8066 65.3056 23.4516 65.2267 23.0573 65.2267C22.6629 65.2267 22.308 65.3056 21.9925 65.4633C21.677 65.6211 21.401 65.8182 21.1644 66.0549C20.9278 66.2915 20.77 66.607 20.6517 66.9224C20.5334 67.2379 20.4545 67.5928 20.4545 67.9872C20.4545 68.3816 20.5334 68.6971 20.6517 69.052C20.77 69.3675 20.9672 69.6829 21.1644 69.9196C21.401 70.1562 21.677 70.3534 21.9925 70.5111C22.308 70.6688 22.6629 70.7477 23.0573 70.7477Z" fill="white"/>
<path d="M28.7754 64.5562H29.8402L31.8514 70.156L33.9415 64.5562H34.9668L32.2457 71.418H31.3782L28.7754 64.5562Z" fill="white"/>
<path d="M37.5696 64.5562H41.9864V65.4237H38.4766V67.4744H41.7498V68.342H38.4766V70.5504H42.1441V71.418H37.5696V64.5562Z" fill="white"/>
<path d="M49.6764 64.5562H54.0932V65.4237H50.5834V67.4744H53.8566V68.342H50.5834V70.5504H54.2509V71.418H49.637V64.5562H49.6764Z" fill="white"/>
<path d="M56.3805 64.5562H57.4453L59.4565 70.156L61.5466 64.5562H62.5719L59.8508 71.418H58.9833L56.3805 64.5562Z" fill="white"/>
<path d="M65.1747 64.5562H69.5915V65.4237H66.0817V67.4744H69.3549V68.342H66.0817V70.5504H69.7492V71.418H65.1747V64.5562Z" fill="white"/>
<path d="M72.8646 64.5562H75.2702C75.704 64.5562 76.0589 64.635 76.3744 64.7533C76.6505 64.8716 76.8871 65.0294 77.0448 65.2266C77.2026 65.4237 77.3209 65.6209 77.3997 65.8575C77.4786 66.0941 77.4786 66.2913 77.4786 66.5279C77.4786 66.7646 77.4392 66.9617 77.3603 67.1589C77.2814 67.3561 77.1631 67.5533 77.0448 67.711C76.8871 67.8688 76.7293 68.0265 76.4927 68.1448C76.2955 68.2631 76.0589 68.342 75.7829 68.342L77.7152 71.4574H76.5716L74.8364 68.4209H73.8111V71.4574H72.8646V64.5562ZM73.7716 67.5927H74.9942C75.1913 67.5927 75.3491 67.5927 75.5463 67.5533C75.7434 67.5138 75.9012 67.4744 76.0195 67.3955C76.1772 67.3167 76.2561 67.1984 76.335 67.08C76.4138 66.9223 76.4533 66.7646 76.4533 66.5279C76.4533 66.2913 76.4138 66.0941 76.335 65.9758C76.2561 65.8181 76.1378 65.6998 76.0195 65.6604C75.8617 65.5815 75.704 65.5421 75.5463 65.5026C75.3885 65.4632 75.1913 65.4632 74.9942 65.4632H73.7716V67.5927Z" fill="white"/>
<path d="M81.9743 68.4997L79.3716 64.5562H80.5547L82.4081 67.5533L84.3405 64.5562H85.4841L82.8814 68.4997V71.418H81.9349V68.4997H81.9743Z" fill="white"/>
<path d="M89.4671 65.4237H87.2587V64.5562H92.6219V65.4237H90.4135V71.418H89.4671V65.4237Z" fill="white"/>
<path d="M95.343 64.5562H96.2895V67.3955H99.8387V64.5562H100.785V71.418H99.8387V68.2631H96.2895V71.418H95.343V64.5562Z" fill="white"/>
<path d="M104.255 64.5562H105.202V71.418H104.255V64.5562Z" fill="white"/>
<path d="M108.712 64.5562H109.934L113.681 70.1955V64.5562H114.627V71.418H113.444L109.619 65.7787V71.418H108.672V64.5562H108.712Z" fill="white"/>
<path d="M124.013 67.5928V70.9843C123.855 71.1026 123.658 71.1815 123.421 71.2604C123.224 71.3392 122.988 71.4181 122.751 71.4576C122.514 71.497 122.278 71.5364 122.041 71.5759C121.804 71.6153 121.568 71.6153 121.371 71.6153C120.779 71.6153 120.266 71.5364 119.833 71.3392C119.359 71.1421 119.005 70.866 118.689 70.5505C118.374 70.235 118.137 69.8407 117.979 69.4069C117.821 68.9731 117.743 68.4999 117.743 68.0266C117.743 67.514 117.821 67.0407 118.019 66.607C118.216 66.1732 118.452 65.7788 118.768 65.4633C119.083 65.1478 119.438 64.8718 119.912 64.714C120.345 64.5169 120.819 64.438 121.371 64.438C122.002 64.438 122.514 64.5169 122.909 64.6746C123.303 64.8323 123.658 65.069 123.934 65.345L123.264 66.0549C122.988 65.7788 122.672 65.5816 122.357 65.5028C122.041 65.3845 121.726 65.345 121.371 65.345C120.976 65.345 120.621 65.4239 120.306 65.5816C119.99 65.7394 119.714 65.9366 119.478 66.1732C119.241 66.4098 119.083 66.7253 118.965 67.0408C118.847 67.3562 118.768 67.7112 118.768 68.1055C118.768 68.4999 118.847 68.8548 118.965 69.1703C119.083 69.4858 119.281 69.8013 119.517 70.0379C119.754 70.2745 120.03 70.4717 120.345 70.6294C120.661 70.7872 121.016 70.8266 121.41 70.8266C121.726 70.8266 122.041 70.7871 122.357 70.7477C122.633 70.6688 122.909 70.59 123.106 70.4717V68.5787H121.568V67.7112H124.013V67.5928Z" fill="white"/>
</g>
<defs>
<clipPath id="clip0_2119_8002">
<rect width="260" height="71.6154" fill="white" transform="translate(0.5)"/>
</clipPath>
</defs>
</svg>
