<svg width="513" height="512" viewBox="0 0 513 512" fill="none" xmlns="http://www.w3.org/2000/svg">
<rect x="0.0761719" width="512" height="512" fill="#11274A"/>
<g clip-path="url(#clip0_7874_1563)">
<path d="M77.601 283.439H57.0762V201H77.601V283.439Z" fill="#F5C344"/>
<path d="M102.11 244.733V283.439H81.585V201H102.412L117.503 229.833L132.595 201H153.422V283.439H132.897V244.733L117.503 274.232L102.11 244.733Z" fill="white"/>
<path d="M282.728 201H303.917L281.883 283.439H257.012L235.038 201H256.227L269.447 250.548L282.728 201Z" fill="white"/>
<path d="M329.03 262.845H364.948V283.439H308.444V201H364.948V221.595H329.03V231.892H359.817V252.487H329.03V262.845Z" fill="white"/>
<path d="M389.457 283.439H368.933V201H389.457V283.439Z" fill="#F5C344"/>
<path d="M434.491 221.595V283.439H413.966V221.595H393.441V201H455.076V221.595H434.491Z" fill="#F5C344"/>
<path d="M198.757 283.5C221.462 283.5 239.867 265.032 239.867 242.25C239.867 219.468 221.462 201 198.757 201C176.053 201 157.647 219.468 157.647 242.25C157.647 265.032 176.053 283.5 198.757 283.5Z" fill="white"/>
<path d="M129.879 254.303C129.879 254.303 150.223 232.557 187.529 232.557V222.078L217.773 243.763L188.193 265.327V254.303C188.193 254.303 151.37 243.339 130.543 258.906L129.879 254.303Z" fill="#11274A"/>
<path d="M57.0762 300.156H58.525V310.696H57.0762V300.156Z" fill="white"/>
<path d="M70.5379 300.156H72.6508L75.9709 308.152H76.0313L79.3515 300.156H81.4643V310.696H80.0155V302.034L76.4539 310.696H75.488L71.9263 302.034V310.696H70.4775V300.156H70.5379Z" fill="white"/>
<path d="M91.6065 311.001C90.8217 311.001 90.0973 310.88 89.3729 310.577C88.7089 310.274 88.1052 309.91 87.6223 309.426C87.1393 308.941 86.7771 308.336 86.4753 307.669C86.1735 307.003 86.0527 306.276 86.0527 305.489C86.0527 304.701 86.1735 303.974 86.4753 303.308C86.7771 302.642 87.1393 302.036 87.6223 301.551C88.1052 301.067 88.6485 300.643 89.3729 300.401C90.037 300.098 90.7614 299.977 91.6065 299.977C92.4516 299.977 93.1157 300.098 93.8401 300.401C94.5041 300.703 95.1078 301.067 95.5907 301.551C96.0737 302.036 96.4359 302.642 96.7377 303.308C96.9792 303.974 97.1603 304.701 97.1603 305.489C97.1603 306.276 97.0395 307.003 96.7377 307.669C96.4359 308.336 96.0737 308.941 95.5907 309.426C95.1078 309.91 94.5645 310.334 93.8401 310.577C93.1157 310.819 92.3913 311.001 91.6065 311.001ZM91.6065 309.668C92.2102 309.668 92.7535 309.547 93.2364 309.305C93.7194 309.062 94.1419 308.76 94.5041 308.396C94.8663 308.033 95.1078 307.548 95.2889 307.064C95.47 306.579 95.5907 306.034 95.5907 305.428C95.5907 304.822 95.47 304.338 95.2889 303.793C95.1078 303.308 94.806 302.823 94.5041 302.46C94.1419 302.097 93.7194 301.794 93.2364 301.551C92.7535 301.309 92.2102 301.188 91.6065 301.188C91.0028 301.188 90.4595 301.309 89.9766 301.551C89.4937 301.794 89.0711 302.097 88.7089 302.46C88.3467 302.823 88.1052 303.308 87.9241 303.793C87.743 304.277 87.6223 304.822 87.6223 305.428C87.6223 306.034 87.743 306.518 87.9241 307.064C88.1052 307.548 88.4071 308.033 88.7089 308.396C89.0711 308.76 89.4937 309.062 89.9766 309.305C90.4595 309.547 91.0028 309.668 91.6065 309.668Z" fill="white"/>
<path d="M100.359 300.156H101.989L105.068 308.758L108.267 300.156H109.837L105.672 310.696H104.344L100.359 300.156Z" fill="white"/>
<path d="M113.821 300.156H120.582V301.489H115.21V304.639H120.22V305.971H115.21V309.363H120.824V310.696H113.821V300.156Z" fill="white"/>
<path d="M132.354 300.156H139.115V301.489H133.743V304.639H138.753V305.971H133.743V309.363H139.357V310.696H132.294V300.156H132.354Z" fill="white"/>
<path d="M142.616 300.156H144.246L147.325 308.758L150.524 300.156H152.094L147.929 310.696H146.6L142.616 300.156Z" fill="white"/>
<path d="M156.078 300.156H162.839V301.489H157.467V304.639H162.477V305.971H157.467V309.363H163.081V310.696H156.078V300.156Z" fill="white"/>
<path d="M167.85 300.156H171.532C172.196 300.156 172.739 300.277 173.222 300.459C173.645 300.641 174.007 300.883 174.249 301.186C174.49 301.489 174.671 301.792 174.792 302.155C174.913 302.519 174.913 302.821 174.913 303.185C174.913 303.548 174.852 303.851 174.731 304.154C174.611 304.457 174.43 304.76 174.249 305.002C174.007 305.244 173.766 305.487 173.403 305.668C173.102 305.85 172.739 305.971 172.317 305.971L175.275 310.756H173.524L170.868 306.092H169.298V310.756H167.85V300.156ZM169.238 304.82H171.109C171.411 304.82 171.653 304.82 171.955 304.76C172.256 304.699 172.498 304.639 172.679 304.517C172.92 304.396 173.041 304.215 173.162 304.033C173.283 303.791 173.343 303.548 173.343 303.185C173.343 302.821 173.283 302.519 173.162 302.337C173.041 302.095 172.86 301.913 172.679 301.852C172.438 301.731 172.196 301.671 171.955 301.61C171.713 301.549 171.411 301.549 171.109 301.549H169.238V304.82Z" fill="white"/>
<path d="M181.795 306.214L177.811 300.156H179.622L182.459 304.76L185.417 300.156H187.167L183.183 306.214V310.696H181.734V306.214H181.795Z" fill="white"/>
<path d="M193.264 301.489H189.884V300.156H198.094V301.489H194.713V310.696H193.264V301.489Z" fill="white"/>
<path d="M202.259 300.156H203.708V304.517H209.141V300.156H210.589V310.696H209.141V305.85H203.708V310.696H202.259V300.156Z" fill="white"/>
<path d="M215.902 300.156H217.351V310.696H215.902V300.156Z" fill="white"/>
<path d="M222.723 300.156H224.595L230.33 308.818V300.156H231.779V310.696H229.968L224.112 302.034V310.696H222.663V300.156H222.723Z" fill="white"/>
<path d="M246.146 304.822V310.032C245.905 310.213 245.603 310.334 245.241 310.456C244.939 310.577 244.577 310.698 244.214 310.759C243.852 310.819 243.49 310.88 243.128 310.94C242.766 311.001 242.403 311.001 242.102 311.001C241.196 311.001 240.411 310.88 239.747 310.577C239.023 310.274 238.48 309.85 237.997 309.365C237.514 308.881 237.152 308.275 236.91 307.609C236.669 306.942 236.548 306.216 236.548 305.489C236.548 304.701 236.669 303.974 236.97 303.308C237.272 302.642 237.634 302.036 238.117 301.551C238.6 301.067 239.144 300.643 239.868 300.401C240.532 300.098 241.256 299.977 242.102 299.977C243.068 299.977 243.852 300.098 244.456 300.34C245.06 300.582 245.603 300.946 246.025 301.37L244.999 302.46C244.577 302.036 244.094 301.733 243.611 301.612C243.128 301.43 242.645 301.37 242.102 301.37C241.498 301.37 240.955 301.491 240.472 301.733C239.989 301.975 239.566 302.278 239.204 302.642C238.842 303.005 238.6 303.49 238.419 303.974C238.238 304.459 238.117 305.004 238.117 305.61C238.117 306.216 238.238 306.761 238.419 307.245C238.6 307.73 238.902 308.214 239.264 308.578C239.627 308.941 240.049 309.244 240.532 309.486C241.015 309.729 241.558 309.789 242.162 309.789C242.645 309.789 243.128 309.729 243.611 309.668C244.033 309.547 244.456 309.426 244.758 309.244V306.337H242.403V305.004H246.146V304.822Z" fill="white"/>
</g>
<defs>
<clipPath id="clip0_7874_1563">
<rect width="398" height="110" fill="white" transform="translate(57.0762 201)"/>
</clipPath>
</defs>
</svg>
