<?xml version="1.0" standalone="no"?>
<!DOCTYPE svg PUBLIC "-//W3C//DTD SVG 20010904//EN"
 "http://www.w3.org/TR/2001/REC-SVG-20010904/DTD/svg10.dtd">
<svg version="1.0" xmlns="http://www.w3.org/2000/svg"
 width="976.000000pt" height="976.000000pt" viewBox="0 0 976.000000 976.000000"
 preserveAspectRatio="xMidYMid meet">
<metadata>
Created by potrace 1.14, written by Peter Selinger 2001-2017
</metadata>
<g transform="translate(0.000000,976.000000) scale(0.100000,-0.100000)"
fill="#000000" stroke="none">
<path d="M3382 9488 c-29 -19 -49 -37 -46 -41 4 -4 2 -7 -5 -7 -6 0 -51 -33
-99 -72 -49 -40 -105 -86 -127 -103 -21 -16 -45 -37 -54 -46 -9 -8 -36 -31
-61 -49 -25 -19 -50 -39 -56 -45 -11 -9 -33 -27 -138 -113 -23 -18 -53 -43
-67 -55 -14 -12 -41 -33 -59 -47 -101 -78 -125 -133 -88 -204 9 -18 122 -163
174 -223 11 -12 30 -36 44 -53 14 -18 30 -37 35 -44 6 -6 51 -60 100 -121 49
-60 92 -112 95 -115 3 -3 24 -27 45 -55 65 -82 111 -108 160 -92 31 10 78 39
107 66 10 9 29 25 43 36 14 11 35 27 46 37 34 27 92 75 134 108 l39 31 14 -48
c7 -26 16 -55 19 -63 3 -8 7 -22 8 -30 1 -8 14 -58 29 -110 15 -52 29 -102 31
-110 2 -8 4 -15 5 -15 2 0 5 -12 13 -50 3 -11 11 -40 18 -65 7 -25 14 -49 15
-55 1 -5 12 -41 23 -80 11 -38 17 -73 15 -77 -3 -4 -1 -8 4 -8 5 0 12 -12 15
-27 6 -34 7 -38 52 -198 20 -71 45 -164 56 -205 48 -178 80 -194 278 -140 41
11 78 17 82 13 7 -9 27 -68 34 -103 2 -13 16 -62 29 -110 27 -91 40 -141 86
-310 16 -58 35 -126 43 -152 8 -27 13 -48 11 -48 -2 0 1 -12 7 -27 6 -16 12
-35 14 -43 2 -8 15 -58 29 -110 15 -52 29 -102 31 -110 2 -8 13 -45 23 -82 11
-38 19 -68 18 -68 -1 0 -33 -9 -71 -21 -39 -11 -81 -22 -94 -25 -13 -3 -63
-16 -110 -31 -47 -14 -113 -32 -146 -41 -33 -8 -62 -19 -63 -24 -2 -4 -7 -6
-11 -3 -5 2 -20 -8 -34 -23 -27 -28 -36 -72 -25 -122 11 -46 59 -235 65 -250
3 -8 8 -24 10 -35 6 -27 9 -37 16 -55 3 -8 9 -28 13 -45 4 -16 8 -34 10 -40 7
-26 54 -191 55 -195 1 -3 3 -9 4 -15 2 -5 13 -45 25 -88 12 -43 23 -83 24 -90
1 -7 5 -18 9 -24 5 -7 6 -13 3 -13 -3 0 2 -24 11 -52 8 -29 16 -58 17 -65 1
-7 5 -16 9 -19 4 -4 7 -18 7 -30 0 -17 -14 -33 -52 -58 -71 -47 -88 -63 -125
-117 -38 -55 -46 -83 -46 -169 0 -55 7 -125 13 -125 1 0 3 -11 6 -24 6 -36 80
-181 109 -216 63 -75 75 -83 146 -95 38 -6 91 -9 119 -7 l50 5 22 -75 c25 -82
63 -130 106 -135 15 -2 61 5 102 15 41 11 82 20 90 22 8 2 27 8 43 14 15 6 27
8 27 5 0 -2 8 0 18 5 9 5 31 11 49 14 17 3 35 7 40 10 7 4 169 50 223 62 8 2
40 11 70 19 30 9 96 27 145 40 50 14 100 28 113 32 22 6 25 -2 24 -56 0 -52
-18 -144 -38 -202 -14 -40 -28 -83 -31 -96 -3 -12 -9 -22 -13 -22 -4 0 -13
-14 -20 -30 -28 -68 -177 -169 -232 -159 -20 4 -75 -28 -83 -48 -23 -59 -14
-93 73 -262 29 -57 52 -105 50 -106 -3 -3 -51 6 -108 19 -14 4 -37 8 -52 11
-59 11 -194 74 -272 127 -22 15 -182 143 -206 165 -29 27 -48 30 -105 18 -34
-7 -62 -67 -90 -190 -3 -11 -8 -33 -12 -50 -3 -16 -7 -37 -8 -45 -4 -24 -15
-81 -26 -130 -6 -25 -13 -58 -16 -75 -2 -16 -11 -57 -18 -89 -8 -33 -12 -63
-9 -68 3 -4 1 -8 -3 -8 -5 0 -9 -8 -9 -17 -1 -10 -5 -38 -9 -63 -5 -25 -9 -71
-9 -102 -1 -50 3 -61 28 -87 35 -37 64 -39 117 -9 34 19 39 27 49 77 6 31 14
65 17 76 4 11 7 27 9 35 1 8 5 31 9 50 4 19 9 44 10 55 2 11 4 21 5 23 3 3 5
12 14 62 4 25 14 70 21 100 13 54 26 124 28 147 0 15 10 10 108 -55 41 -26
106 -63 144 -81 39 -18 77 -37 87 -42 9 -4 45 -15 80 -24 34 -10 72 -19 83
-22 11 -3 73 -7 138 -8 68 -1 128 -8 140 -15 12 -6 62 -62 112 -124 l90 -112
50 7 c54 9 127 30 135 39 3 3 25 16 50 29 162 82 354 250 461 401 67 95 158
263 159 293 0 9 4 17 10 17 5 0 9 3 8 8 -3 13 42 146 58 170 15 23 20 24 87
19 75 -6 84 -8 157 -27 51 -13 173 -60 180 -69 3 -3 19 -13 35 -21 62 -30 215
-169 215 -194 0 -7 5 -17 12 -24 6 -6 13 -17 15 -24 2 -7 9 -40 17 -73 19 -82
36 -112 69 -126 30 -13 89 -4 152 22 17 7 32 13 35 14 3 1 22 9 44 18 21 9 40
17 42 17 2 0 28 11 58 25 30 14 57 25 60 25 8 0 62 -100 91 -170 15 -36 34
-80 43 -99 19 -44 61 -169 68 -201 2 -14 8 -34 11 -45 10 -29 10 -31 33 -123
24 -97 40 -133 75 -160 29 -23 54 -20 100 12 40 27 47 37 101 136 26 47 50 87
55 88 5 2 7 7 4 12 -3 5 1 14 8 22 7 7 28 36 47 63 19 28 37 52 42 53 4 2 8 7
8 12 0 27 243 270 335 334 39 28 72 53 75 56 3 4 19 15 36 25 67 38 83 114 37
165 -56 60 -122 40 -293 -90 -149 -113 -312 -286 -422 -447 l-35 -51 -23 51
c-29 65 -42 96 -75 177 -40 95 -42 100 -65 155 -12 28 -30 68 -39 90 -18 39
-18 39 3 55 33 25 143 90 152 90 17 0 74 61 80 87 23 90 -168 407 -360 596
-119 119 -208 187 -351 272 -80 47 -239 125 -254 125 -6 0 -11 5 -11 11 0 5
-4 8 -9 5 -4 -3 -16 1 -26 8 -17 12 -16 14 16 24 33 10 82 23 107 28 7 1 36 9
65 18 149 44 198 56 207 51 6 -3 10 -2 10 3 0 5 21 14 48 20 71 18 73 19 133
36 31 9 66 18 77 21 44 8 111 44 126 67 31 47 29 64 -51 348 -30 107 -56 206
-59 220 -3 13 -7 26 -9 29 -3 2 17 15 43 28 71 38 123 74 157 112 30 33 66 93
74 121 9 33 7 186 -2 198 -5 6 -7 12 -4 12 15 0 -50 174 -78 208 -23 29 -86
85 -107 96 -60 31 -154 39 -265 21 -33 -5 -41 1 -48 32 -3 18 -14 60 -61 228
-13 50 -26 97 -28 105 -38 150 -91 318 -108 340 -18 25 -50 40 -93 45 -5 1
-39 -7 -75 -16 -112 -30 -120 -31 -130 -6 -15 38 -55 191 -54 205 1 6 -1 12
-5 12 -4 0 -8 6 -9 13 -1 22 -12 67 -27 110 -7 23 -25 85 -39 137 -14 52 -36
136 -51 185 -14 50 -27 98 -30 109 -2 10 -12 44 -21 75 -9 31 -18 64 -19 74
-2 9 -18 67 -35 127 -17 60 -33 118 -35 127 -22 93 -73 180 -101 169 -8 -3
-14 -1 -14 5 0 6 -3 8 -7 6 -5 -3 -24 -8 -43 -11 -56 -9 -79 -14 -88 -20 -5
-3 -19 -7 -33 -9 -13 -3 -44 -10 -69 -17 -25 -7 -47 -12 -50 -13 -3 0 -25 -7
-50 -14 -36 -12 -146 -42 -205 -57 -5 -1 -30 -9 -55 -16 -25 -7 -49 -14 -55
-16 -5 -1 -46 -12 -90 -23 -44 -12 -87 -23 -95 -25 -8 -2 -41 -11 -72 -19
l-57 -15 -9 27 c-15 39 -42 133 -47 163 -3 14 -12 44 -20 67 -8 23 -14 45 -13
49 1 4 -2 14 -5 22 -6 16 -30 103 -28 107 0 2 -6 21 -14 43 -8 22 -14 41 -14
43 1 1 -4 20 -10 42 -6 22 -11 43 -11 47 -1 4 -6 22 -11 40 -6 18 -12 40 -14
48 -2 8 -16 58 -31 110 -14 52 -28 103 -29 113 -2 9 -6 21 -9 25 -3 5 -7 19
-10 33 -9 44 -14 63 -45 164 -23 78 -37 106 -61 127 -40 37 -74 36 -219 -3
-64 -17 -120 -32 -126 -34 -5 -1 -17 -5 -25 -8 -8 -4 -24 -8 -35 -10 -11 -1
-25 -6 -31 -10 -7 -4 -29 -9 -50 -13 -22 -3 -46 -10 -54 -14 -8 -4 -18 -8 -23
-9 -17 -2 -65 -14 -104 -27 -23 -7 -52 -16 -65 -18 -24 -5 -248 -67 -332 -91
-27 -8 -51 -13 -54 -10 -3 2 -13 0 -24 -6 -28 -15 -158 -48 -158 -40 0 4 7 17
16 29 8 12 12 22 8 22 -5 0 -3 5 3 11 23 23 1 83 -60 164 -33 44 -64 82 -68
85 -4 3 -49 57 -100 121 -341 421 -338 418 -395 425 -32 5 -48 -1 -92 -28z"/>
<path d="M1510 4901 c-30 -8 -68 -61 -65 -93 3 -37 25 -75 52 -87 32 -15 2233
-16 2233 -1 0 6 7 10 16 10 21 0 47 65 39 100 -3 15 -17 38 -31 51 l-26 24
-1096 1 c-603 1 -1108 -2 -1122 -5z"/>
<path d="M48 4401 c-16 -9 -28 -22 -28 -28 0 -7 -5 -13 -11 -13 -16 0 -6 -85
12 -103 8 -8 24 -19 36 -25 29 -16 2925 -17 2970 -2 50 18 71 87 43 141 -26
48 32 46 -1530 46 -1310 -1 -1468 -2 -1492 -16z"/>
<path d="M755 4022 c-69 -35 -64 -143 7 -173 22 -9 369 -12 1486 -12 1619 0
1508 -4 1531 65 14 44 7 77 -24 108 l-25 25 -1475 0 c-1185 0 -1480 -2 -1500
-13z"/>
<path d="M6507 1644 c-3 -3 -135 -7 -294 -10 -158 -2 -385 -6 -503 -9 -118 -3
-221 -6 -227 -5 -7 0 -19 0 -25 0 -67 3 -454 -23 -538 -35 -14 -2 -45 -7 -70
-10 -25 -3 -67 -10 -95 -15 -27 -5 -63 -12 -80 -15 -16 -2 -51 -11 -77 -19
-26 -7 -49 -11 -52 -8 -4 3 -6 0 -6 -6 0 -10 50 -43 75 -48 49 -11 111 -17
300 -29 39 -3 93 -7 120 -9 28 -3 86 -8 130 -11 44 -4 100 -8 125 -10 233 -20
969 -24 1740 -11 500 9 627 13 856 32 34 2 91 7 125 9 35 2 75 7 89 9 14 3 41
8 60 10 19 3 44 7 55 10 11 2 41 8 67 11 26 4 49 13 52 20 6 16 -31 42 -71 50
-37 8 -58 13 -58 15 0 0 -18 3 -40 5 -61 5 -137 15 -164 20 -50 10 -227 22
-415 30 -72 3 -180 8 -241 10 -60 3 -213 7 -340 10 -126 2 -230 5 -230 5 0 1
-10 3 -22 4 -13 2 -23 0 -23 -4 0 -3 -15 -5 -32 -3 -18 2 -39 4 -45 4 -7 0
-37 -1 -67 -2 -30 -1 -58 1 -64 4 -5 4 -12 4 -15 1z"/>
<path d="M3869 829 c-13 -10 -19 -19 -14 -19 6 0 6 -3 -1 -8 -10 -7 -187 -446
-200 -496 -7 -28 25 -66 55 -66 29 0 48 24 72 90 l22 60 119 0 119 0 15 -37
c33 -81 45 -102 64 -108 43 -14 84 20 75 62 -3 20 -45 130 -71 188 -7 17 -27
66 -44 110 -17 44 -35 89 -40 100 -5 11 -18 41 -28 67 -31 73 -91 97 -143 57z
m81 -191 c0 -10 5 -18 12 -18 6 0 9 -3 6 -6 -3 -3 5 -33 18 -67 25 -64 28 -74
18 -64 -4 3 -15 2 -25 -3 -11 -7 -20 -7 -24 0 -3 5 -12 7 -19 4 -7 -3 -31 -6
-53 -7 -36 -2 -40 0 -38 18 3 22 63 193 73 209 7 11 31 -39 32 -66z"/>
<path d="M6568 839 c-33 -19 -20 -61 51 -174 l69 -108 -26 -41 c-15 -22 -29
-43 -32 -46 -27 -26 -100 -154 -100 -175 0 -54 53 -73 93 -32 12 12 47 61 77
109 30 48 58 88 62 88 3 0 17 -17 29 -37 13 -21 27 -40 31 -41 4 -2 8 -8 8
-13 0 -22 75 -120 96 -125 50 -13 82 31 58 82 -15 31 -16 34 -81 131 -71 106
-71 92 -5 190 83 124 95 149 82 173 -6 11 -22 23 -37 26 -22 6 -31 1 -55 -27
-42 -49 -48 -58 -48 -64 0 -6 -71 -115 -75 -115 -2 0 -22 33 -46 73 -80 132
-105 153 -151 126z"/>
<path d="M8900 843 c-41 -12 -104 -50 -121 -75 -11 -15 -17 -28 -13 -28 3 0 2
-6 -3 -12 -9 -11 -10 -45 -4 -95 0 -7 14 -28 31 -46 30 -35 91 -62 198 -88 30
-7 64 -23 78 -36 60 -55 -3 -139 -103 -136 -49 1 -80 24 -108 78 -29 59 -44
69 -79 55 -28 -10 -37 -29 -30 -67 12 -68 69 -123 148 -144 87 -24 229 8 274
61 43 51 53 134 23 190 -19 36 -88 85 -131 94 -61 12 -145 39 -165 52 -13 8
-25 24 -28 36 -6 23 20 71 34 62 5 -3 9 -1 9 4 0 5 14 9 31 10 17 0 33 3 36 6
12 11 64 -23 95 -64 52 -69 108 -62 108 12 0 43 -40 91 -96 114 -36 16 -149
26 -184 17z"/>
<path d="M9403 825 c-85 -38 -122 -121 -88 -201 24 -59 63 -82 202 -119 88
-24 108 -38 118 -78 18 -70 -88 -123 -173 -88 -19 8 -39 30 -56 62 -32 57 -57
75 -86 59 -27 -14 -35 -53 -19 -93 37 -89 109 -127 235 -124 70 2 87 6 129 32
73 45 93 90 87 197 -3 47 -61 91 -159 122 -150 47 -173 57 -175 74 0 9 -2 24
-2 32 -1 8 6 23 14 32 18 19 97 40 105 27 3 -4 11 -6 18 -3 16 6 52 -27 72
-66 18 -35 49 -46 81 -29 39 20 29 85 -21 134 -52 52 -197 67 -282 30z"/>
<path d="M3168 833 c-9 -3 -20 -14 -25 -26 -10 -32 -11 -487 0 -520 12 -36 30
-39 204 -35 165 4 206 15 245 70 54 77 34 175 -47 223 -34 21 -37 25 -20 31
37 13 74 71 70 109 -4 46 -19 85 -38 103 -44 41 -84 50 -232 49 -77 0 -148 -2
-157 -4z m260 -94 c39 -13 55 -40 47 -79 -11 -52 -32 -61 -145 -63 l-75 -1 -1
69 c-1 39 0 73 2 76 6 11 137 10 172 -2z m20 -240 c40 -14 64 -61 50 -100 -14
-41 -62 -59 -160 -59 l-84 0 0 85 0 85 81 0 c45 0 96 -5 113 -11z"/>
<path d="M4309 821 c-22 -18 -23 -22 -23 -280 0 -246 1 -262 20 -276 15 -13
46 -15 164 -12 124 2 151 6 185 24 87 46 126 120 130 245 5 143 -34 233 -122
284 -44 27 -54 28 -190 30 -124 2 -145 0 -164 -15z m274 -92 c59 -31 85 -88
82 -179 -6 -160 -44 -202 -182 -205 -54 -1 -73 2 -74 12 -3 28 -5 378 -3 384
5 10 154 0 177 -12z"/>
<path d="M4924 827 c-10 -5 -21 -12 -24 -14 -3 -3 -5 -121 -6 -264 -1 -240 0
-260 18 -279 18 -19 31 -20 211 -20 106 0 197 4 203 8 20 12 25 47 10 67 -12
17 -29 19 -162 21 -82 1 -152 2 -155 3 -4 0 -7 37 -7 81 l-1 80 133 0 c135 0
156 5 169 42 3 9 -2 23 -13 33 -16 14 -42 17 -153 18 l-135 1 2 70 1 71 140 1
c77 1 146 2 153 3 7 1 17 13 23 28 9 24 7 30 -11 45 -18 14 -46 17 -199 16
-102 0 -186 -5 -197 -11z"/>
<path d="M5458 818 c-11 -11 -17 -26 -14 -33 3 -8 1 -17 -5 -20 -6 -4 -6 -13
0 -23 5 -9 5 -26 0 -39 -5 -14 -5 -23 1 -23 5 0 5 -12 0 -30 -5 -17 -5 -30 0
-30 5 0 7 -6 4 -14 -9 -24 -9 -106 0 -106 5 0 3 -6 -3 -14 -8 -9 -8 -16 -2
-20 7 -5 7 -15 1 -31 -5 -14 -6 -25 -2 -25 9 0 8 -58 -1 -66 -3 -4 -3 -14 2
-23 5 -9 7 -24 6 -34 -2 -9 6 -24 18 -32 53 -37 102 1 95 75 -2 22 -1 40 2 40
5 0 5 52 0 75 -1 6 -2 21 -1 34 1 22 4 23 53 19 45 -5 57 -11 85 -44 19 -21
49 -65 67 -99 63 -111 110 -141 151 -95 17 19 17 25 6 58 -8 20 -22 49 -32 64
-11 14 -19 29 -19 33 0 3 -7 13 -15 21 -8 8 -20 23 -27 32 -7 10 -24 26 -38
35 -13 9 -19 17 -13 17 6 0 24 5 40 11 15 6 29 9 30 7 3 -6 55 57 63 78 10 26
6 101 -7 134 -28 68 -75 83 -267 86 -146 2 -160 0 -178 -18z m314 -95 c44 -44
24 -117 -36 -128 -17 -4 -64 -7 -104 -9 l-73 -2 1 36 c0 50 0 81 1 108 1 23 2
23 95 19 80 -3 98 -7 116 -24z"/>
<path d="M6051 814 c-18 -22 -19 -43 -18 -280 2 -241 3 -256 21 -270 15 -11
60 -14 200 -14 100 0 191 3 203 6 25 7 35 47 18 71 -11 14 -34 17 -161 19 -82
1 -152 2 -157 3 -4 0 -7 37 -6 81 l1 80 124 0 c147 0 174 8 174 49 0 39 -18
44 -155 43 -153 -1 -147 -4 -143 76 l3 67 140 0 c148 0 185 10 179 48 -6 42
-16 44 -214 45 -189 0 -190 0 -209 -24z"/>
<path d="M7093 813 c-14 -21 -17 -60 -17 -276 -1 -228 1 -253 17 -274 21 -26
53 -29 81 -8 17 13 20 28 20 120 1 107 3 113 41 105 29 -6 72 -5 87 2 10 5 20
4 23 -2 4 -7 11 -7 18 -2 7 5 25 12 41 16 76 18 118 77 118 165 1 59 -16 104
-48 132 -44 38 -68 43 -217 45 l-147 3 -17 -26z m261 -76 c30 -10 58 -59 49
-86 -11 -35 -27 -60 -42 -67 -33 -13 -141 -21 -158 -11 -6 4 -10 158 -4 175 2
7 128 -2 155 -11z"/>
<path d="M7647 820 l-24 -19 1 -266 c1 -252 2 -267 20 -281 28 -20 60 -17 81
6 14 16 17 38 18 130 l0 110 32 0 c36 0 95 -18 95 -29 0 -4 9 -17 19 -28 11
-12 28 -36 38 -54 52 -95 85 -137 109 -143 38 -10 63 2 71 32 8 34 -46 137
-104 196 l-42 43 36 12 c70 26 98 66 102 146 3 59 -24 107 -78 139 -30 17 -55
20 -192 22 -142 2 -161 1 -182 -16z m291 -86 c34 -14 48 -48 38 -89 -10 -40
-45 -55 -127 -57 -114 -1 -105 -8 -106 75 -1 39 1 76 4 80 8 13 157 6 191 -9z"/>
<path d="M8243 827 c-13 -5 -24 -17 -24 -26 -7 -75 -3 -501 4 -518 5 -12 19
-24 31 -27 11 -3 102 -6 201 -6 134 1 184 4 198 14 21 16 22 36 3 61 -12 17
-29 19 -167 20 l-154 1 0 82 0 82 137 0 c127 0 138 1 151 21 20 28 10 58 -22
66 -14 3 -80 7 -146 7 l-120 1 0 70 0 70 148 1 c163 1 180 6 170 56 -4 19 -13
28 -32 32 -48 9 -356 4 -378 -7z"/>
</g>
</svg>
