<svg width="40" height="40" viewBox="0 0 40 40" fill="none" xmlns="http://www.w3.org/2000/svg">
<path fill-rule="evenodd" clip-rule="evenodd" d="M19.0067 33.2319C19.0573 33.2319 19.1074 33.2418 19.1542 33.2612C19.201 33.2805 19.2435 33.3089 19.2793 33.3447C19.3151 33.3805 19.3435 33.4231 19.3628 33.4698C19.3821 33.5166 19.392 33.5668 19.3919 33.6174V36.2781C19.3963 36.4364 19.4622 36.5868 19.5758 36.6972C19.6893 36.8077 19.8414 36.8695 19.9998 36.8695C20.1581 36.8695 20.3103 36.8077 20.4238 36.6972C20.5373 36.5868 20.6033 36.4364 20.6076 36.2781V33.6176C20.6076 33.4578 20.7059 33.315 20.8549 33.2578C20.9276 33.2298 21.0071 33.2245 21.0829 33.2426C21.1587 33.2607 21.2272 33.3014 21.2794 33.3593L22.6566 34.8857C22.765 35.0071 22.9138 35.0777 23.0757 35.0857C23.1552 35.0905 23.2349 35.0794 23.31 35.0529C23.3851 35.0264 23.4542 34.9852 23.5131 34.9316C23.6325 34.824 23.7042 34.6734 23.7127 34.5129C23.7211 34.3524 23.6655 34.1951 23.5581 34.0756L20.7068 30.9117C20.643 30.8411 20.6076 30.7493 20.6076 30.654V27.9933C20.6076 27.8335 20.7059 27.6904 20.8549 27.6335C20.9276 27.6054 21.0071 27.6001 21.0829 27.6183C21.1587 27.6364 21.2272 27.6771 21.2794 27.735L22.6566 29.2614C22.765 29.3827 22.9138 29.4533 23.0757 29.4614C23.1552 29.466 23.2348 29.4548 23.3099 29.4283C23.385 29.4018 23.4541 29.3607 23.5131 29.3073C23.6325 29.1996 23.7043 29.049 23.7127 28.8885C23.7211 28.7279 23.6655 28.5706 23.5581 28.451L20.7068 25.2876C20.643 25.217 20.6076 25.1252 20.6076 25.03V21.7203C20.6076 21.5828 20.681 21.455 20.8005 21.387C20.9195 21.3178 21.0665 21.3178 21.1857 21.387L24.0536 23.0421C24.1362 23.0904 24.198 23.1667 24.2275 23.2574L25.5392 27.3075C25.5638 27.3832 25.603 27.4533 25.6547 27.5139C25.7064 27.5744 25.7696 27.6241 25.8405 27.6602C25.9114 27.6963 25.9888 27.7181 26.0682 27.7243C26.1475 27.7304 26.2273 27.7209 26.303 27.6962C26.4557 27.6464 26.5824 27.538 26.6554 27.3949C26.7283 27.2517 26.7416 27.0855 26.6922 26.9326L26.0585 24.976C26.0345 24.9018 26.0335 24.8222 26.0556 24.7474C26.0778 24.6727 26.1221 24.6065 26.1827 24.5574C26.2432 24.5084 26.3172 24.4788 26.3949 24.4727C26.4726 24.4665 26.5503 24.484 26.6179 24.5229L28.924 25.8547C29.0068 25.9019 29.0687 25.9792 29.0982 26.0699L30.4099 30.1191C30.463 30.2677 30.5719 30.3898 30.7136 30.4594C30.8553 30.529 31.0185 30.5406 31.1686 30.4917C31.3187 30.4429 31.4438 30.3375 31.5175 30.1979C31.5911 30.0582 31.6073 29.8954 31.5628 29.744L30.9291 27.7878C30.9049 27.7136 30.9037 27.6338 30.9258 27.559C30.9479 27.4841 30.9922 27.4177 31.0528 27.3686C31.1135 27.3195 31.1876 27.2899 31.2654 27.2839C31.3432 27.2778 31.421 27.2956 31.4886 27.3347L33.7926 28.6655C33.9333 28.7467 34.0971 28.7684 34.254 28.7258C34.3311 28.7054 34.4035 28.67 34.4668 28.6215C34.5301 28.573 34.5832 28.5124 34.6229 28.4432C34.7033 28.3035 34.7251 28.1376 34.6834 27.9819C34.6417 27.8263 34.54 27.6935 34.4005 27.6127L32.0964 26.2828C32.0289 26.2437 31.9748 26.1851 31.9413 26.1147C31.9077 26.0443 31.8963 25.9654 31.9084 25.8883C31.9206 25.8113 31.9559 25.7399 32.0095 25.6833C32.0631 25.6267 32.1325 25.5876 32.2087 25.5711L34.2194 25.1423C34.2974 25.1261 34.3714 25.0946 34.4371 25.0495C34.5028 25.0044 34.5589 24.9467 34.6021 24.8798C34.6458 24.8132 34.6758 24.7385 34.6905 24.6602C34.7051 24.5818 34.704 24.5014 34.6872 24.4235C34.6709 24.3454 34.6393 24.2714 34.5942 24.2056C34.549 24.1399 34.4913 24.0838 34.4242 24.0406C34.3576 23.9969 34.2829 23.967 34.2046 23.9525C34.1262 23.938 34.0458 23.9392 33.9679 23.9561L29.8034 24.8443C29.7101 24.8637 29.613 24.8484 29.5303 24.8011L27.2257 23.4701C27.1583 23.4311 27.1044 23.3726 27.0709 23.3023C27.0374 23.232 27.026 23.1532 27.0381 23.0763C27.0503 22.9994 27.0855 22.9279 27.139 22.8714C27.1925 22.8149 27.2619 22.7759 27.3381 22.7596L29.3487 22.3298C29.4267 22.3135 29.5008 22.282 29.5665 22.2369C29.6322 22.1918 29.6884 22.1342 29.7317 22.0673C29.7753 22.0006 29.8052 21.9259 29.8197 21.8476C29.8343 21.7693 29.8331 21.6889 29.8163 21.611C29.7826 21.4538 29.6881 21.3164 29.5533 21.2288C29.4186 21.1412 29.2546 21.1106 29.0973 21.1436L24.9327 22.0317C24.8395 22.052 24.742 22.0366 24.6596 21.9886L21.7936 20.3341C21.735 20.3003 21.6864 20.2516 21.6527 20.1931C21.6189 20.1345 21.6011 20.0681 21.6011 20.0005C21.6011 19.9328 21.6189 19.8664 21.6527 19.8078C21.6864 19.7493 21.735 19.7006 21.7936 19.6668L24.6612 18.0107C24.7438 17.9634 24.8411 17.9473 24.9346 17.9673L29.0977 18.8564C29.255 18.8897 29.4191 18.8592 29.5539 18.7716C29.6887 18.6839 29.7832 18.5463 29.8166 18.389C29.8499 18.2317 29.8194 18.0676 29.7317 17.9328C29.6441 17.798 29.5065 17.7035 29.3492 17.6702L27.3381 17.2404C27.2619 17.2243 27.1924 17.1855 27.1387 17.129C27.0851 17.0725 27.0499 17.0011 27.0377 16.9242C27.0256 16.8471 27.0371 16.7682 27.0707 16.6978C27.1042 16.6274 27.1583 16.5688 27.2257 16.5297L29.5319 15.1991C29.6147 15.1507 29.7118 15.1357 29.8052 15.1557L33.9684 16.0448C34.0463 16.0615 34.1266 16.0626 34.2049 16.0479C34.2832 16.0332 34.3577 16.0032 34.4242 15.9594C34.5603 15.8713 34.6533 15.7357 34.6872 15.5774C34.7039 15.4995 34.705 15.419 34.6903 15.3407C34.6757 15.2624 34.6456 15.1877 34.6019 15.1211C34.5588 15.0542 34.5028 14.9966 34.4372 14.9515C34.3716 14.9065 34.2977 14.8749 34.2199 14.8586L32.2087 14.4289C32.1324 14.4127 32.0628 14.3737 32.0092 14.317C31.9556 14.2604 31.9204 14.1887 31.9084 14.1117C31.8962 14.0347 31.9077 13.9559 31.9413 13.8857C31.9748 13.8154 32.0289 13.757 32.0964 13.7181L34.4005 12.3882C34.5401 12.3074 34.6421 12.1745 34.684 12.0187C34.7047 11.9416 34.71 11.8612 34.6995 11.7821C34.689 11.703 34.663 11.6267 34.6229 11.5578C34.5832 11.4884 34.5301 11.4276 34.4668 11.3789C34.4034 11.3303 34.331 11.2947 34.2538 11.2742C34.1767 11.2535 34.0962 11.2482 34.0171 11.2587C33.9379 11.2692 33.8617 11.2953 33.7926 11.3354L31.4888 12.6653C31.4212 12.704 31.3436 12.7216 31.2659 12.7156C31.1883 12.7096 31.1143 12.6803 31.0535 12.6316C30.9929 12.5826 30.9486 12.5164 30.9263 12.4417C30.9041 12.367 30.905 12.2873 30.9289 12.2131L31.5628 10.2569C31.5878 10.1811 31.5974 10.101 31.5912 10.0215C31.5849 9.94187 31.563 9.8643 31.5266 9.79324C31.4906 9.72224 31.4408 9.65908 31.3803 9.60741C31.3197 9.55574 31.2495 9.51658 31.1737 9.4922C31.0207 9.44269 30.8544 9.45588 30.7112 9.52889C30.568 9.6019 30.4596 9.72875 30.4099 9.8816L29.0966 13.9317C29.0672 14.0226 29.0051 14.0993 28.9224 14.147L26.6179 15.4778C26.5503 15.5165 26.4726 15.5339 26.395 15.5277C26.3174 15.5215 26.2434 15.4919 26.1829 15.4429C26.1224 15.3939 26.0781 15.3277 26.0559 15.2531C26.0337 15.1785 26.0346 15.0988 26.0585 15.0247L26.6922 13.0685C26.7418 12.9156 26.7287 12.7493 26.6557 12.606C26.5828 12.4628 26.4559 12.3544 26.303 12.3047C26.2274 12.2796 26.1475 12.2699 26.0681 12.2761C25.9887 12.2824 25.9113 12.3044 25.8405 12.3409C25.6963 12.4138 25.589 12.5393 25.5392 12.6934L24.2257 16.7442C24.1964 16.8349 24.1344 16.9113 24.0517 16.9588L21.1859 18.6139C21.1273 18.6477 21.0608 18.6655 20.9932 18.6655C20.9255 18.6654 20.859 18.6476 20.8004 18.6138C20.7418 18.5799 20.6932 18.5312 20.6593 18.4726C20.6255 18.414 20.6076 18.3476 20.6076 18.2799V14.9684C20.6076 14.8729 20.6429 14.7816 20.7068 14.7101L23.5585 11.549C23.6665 11.4293 23.7214 11.2745 23.7131 11.1121C23.7068 10.9923 23.6651 10.8772 23.5933 10.7811C23.5215 10.6851 23.4229 10.6125 23.3098 10.5725C23.1968 10.5325 23.0744 10.527 22.9582 10.5565C22.842 10.5861 22.7372 10.6495 22.657 10.7386L21.2794 12.2653C21.2273 12.3232 21.1588 12.364 21.083 12.3823C21.0072 12.4005 20.9277 12.3953 20.8549 12.3674C20.7821 12.3395 20.7195 12.2902 20.6754 12.2259C20.6312 12.1617 20.6076 12.0855 20.6076 12.0076V9.34433C20.6076 9.24883 20.6429 9.15748 20.7068 9.08597L23.5585 5.92559C23.6119 5.86646 23.653 5.79734 23.6796 5.72224C23.7061 5.64713 23.7175 5.56751 23.7131 5.48798C23.7091 5.40847 23.6893 5.33055 23.655 5.25872C23.6207 5.18689 23.5724 5.12258 23.5131 5.06952C23.3935 4.96202 23.2362 4.90638 23.0756 4.91482C22.9151 4.92325 22.7644 4.99507 22.6568 5.1145L21.2794 6.64117C21.2273 6.69916 21.1588 6.73997 21.0829 6.7582C21.0071 6.77643 20.9276 6.77123 20.8548 6.74329C20.782 6.71534 20.7194 6.66596 20.6753 6.60168C20.6311 6.5374 20.6075 6.46124 20.6076 6.38327V3.72255C20.6074 3.56139 20.5433 3.40689 20.4294 3.29294C20.3154 3.17898 20.1609 3.11488 19.9998 3.1147C19.8386 3.115 19.6842 3.17918 19.5703 3.29317C19.4564 3.40715 19.3923 3.56164 19.3921 3.72278V6.38304C19.3922 6.46101 19.3686 6.53717 19.3245 6.60145C19.2804 6.66573 19.2178 6.71511 19.145 6.74305C19.0722 6.771 18.9926 6.7762 18.9168 6.75797C18.841 6.73974 18.7725 6.69893 18.7204 6.64094L17.3432 5.11404C17.2354 4.99474 17.0847 4.92303 16.9242 4.91464C16.7636 4.90626 16.6063 4.96187 16.4867 5.06929C16.3673 5.17689 16.2955 5.32747 16.287 5.48797C16.2785 5.64847 16.3341 5.80578 16.4415 5.92536L19.293 9.08804C19.3566 9.15863 19.3921 9.25114 19.3921 9.34572V12.0074C19.3919 12.0852 19.3682 12.1612 19.324 12.2252C19.2798 12.2893 19.2173 12.3385 19.1446 12.3664C19.0719 12.3943 18.9925 12.3995 18.9168 12.3814C18.8411 12.3633 18.7726 12.3228 18.7204 12.265L17.3432 10.7384C17.29 10.679 17.2255 10.6308 17.1536 10.5965C17.0817 10.5622 17.0037 10.5424 16.9241 10.5384C16.8044 10.5322 16.6855 10.5617 16.5826 10.623C16.4796 10.6843 16.3971 10.7748 16.3455 10.8829C16.2939 10.9911 16.2754 11.1121 16.2925 11.2307C16.3096 11.3493 16.3614 11.4602 16.4415 11.5494L19.293 14.7121C19.3566 14.7827 19.3921 14.8752 19.3921 14.97V18.2794C19.3922 18.3471 19.3744 18.4136 19.3405 18.4723C19.3067 18.5309 19.2581 18.5796 19.1995 18.6135C19.1408 18.6473 19.0744 18.6652 19.0067 18.6652C18.939 18.6653 18.8725 18.6475 18.8138 18.6137L15.9462 16.9576C15.8635 16.9099 15.8016 16.8332 15.7722 16.7424L14.4606 12.6932C14.4083 12.5434 14.2994 12.4201 14.1574 12.3497C14.0153 12.2793 13.8512 12.2673 13.7004 12.3164C13.5496 12.3654 13.424 12.4716 13.3505 12.6121C13.2771 12.7527 13.2616 12.9164 13.3074 13.0683L13.9411 15.0245C13.9652 15.0986 13.9663 15.1784 13.9442 15.2532C13.922 15.3279 13.8777 15.3943 13.8171 15.4433C13.7565 15.4924 13.6825 15.522 13.6047 15.5281C13.527 15.5342 13.4492 15.5166 13.3817 15.4775L11.0755 14.146C10.993 14.0981 10.9311 14.0215 10.9016 13.9308L9.58944 9.88091C9.55215 9.76711 9.48201 9.66689 9.38787 9.59288C9.29372 9.51887 9.17978 9.47438 9.06039 9.465C8.94101 9.45563 8.82152 9.4818 8.71698 9.54021C8.61244 9.59862 8.52752 9.68666 8.47293 9.79324C8.43657 9.86414 8.41465 9.94156 8.40843 10.021C8.40221 10.1004 8.41183 10.1803 8.43671 10.256L9.07017 12.2131C9.09413 12.2873 9.0951 12.3669 9.07295 12.4416C9.0508 12.5163 9.00656 12.5825 8.94606 12.6316C8.8853 12.6803 8.81126 12.7096 8.73361 12.7156C8.65595 12.7216 8.57829 12.7041 8.51076 12.6653L6.20668 11.3354C6.06763 11.2616 5.90537 11.2446 5.75406 11.288C5.60275 11.3314 5.47418 11.4319 5.39542 11.5682C5.31666 11.7045 5.29385 11.866 5.33179 12.0188C5.36972 12.1716 5.46545 12.3037 5.59883 12.3873V12.3882L7.9029 13.7181C8.04131 13.7977 8.11583 13.9543 8.09091 14.1117C8.07892 14.1887 8.0438 14.2603 7.9902 14.317C7.93661 14.3736 7.86707 14.4126 7.79079 14.4289L5.77991 14.8584C5.62258 14.8918 5.48495 14.9863 5.39727 15.1211C5.30959 15.2559 5.27903 15.4201 5.31232 15.5774C5.346 15.7354 5.43919 15.8713 5.5753 15.9597C5.71094 16.048 5.87288 16.0778 6.03136 16.0448L10.1961 15.1567C10.2893 15.1364 10.3867 15.1516 10.469 15.1998L12.7736 16.5297C12.912 16.61 12.9865 16.7668 12.9616 16.9242C12.9495 17.0011 12.9143 17.0725 12.8607 17.129C12.8071 17.1856 12.7376 17.2245 12.6615 17.2407L10.6506 17.6702C10.5726 17.6865 10.4985 17.7181 10.4328 17.7632C10.3671 17.8083 10.3109 17.866 10.2677 17.9329C10.2023 18.0335 10.1683 18.1512 10.1698 18.2711C10.1714 18.3911 10.2084 18.5078 10.2763 18.6067C10.3442 18.7055 10.4399 18.782 10.5513 18.8265C10.6626 18.871 10.7847 18.8815 10.902 18.8566L15.0668 17.9682C15.16 17.9489 15.2571 17.9643 15.3397 18.0116L18.206 19.6668C18.2644 19.7007 18.313 19.7493 18.3467 19.8079C18.3805 19.8665 18.3982 19.9329 18.3982 20.0005C18.3982 20.068 18.3805 20.1345 18.3467 20.193C18.313 20.2516 18.2644 20.3002 18.206 20.3341L15.3381 21.9902C15.2555 22.0375 15.1582 22.0527 15.0647 22.0327L10.902 21.1436C10.7448 21.1106 10.5809 21.1412 10.4462 21.2288C10.3115 21.3164 10.217 21.4539 10.1835 21.611C10.1667 21.6889 10.1655 21.7693 10.1801 21.8476C10.1946 21.9259 10.2245 22.0006 10.2681 22.0673C10.3565 22.2029 10.4923 22.2961 10.6506 22.3298L12.6619 22.7596C12.738 22.776 12.8072 22.8151 12.8607 22.8716C12.9141 22.9282 12.9492 22.9996 12.9613 23.0764C12.9734 23.1533 12.962 23.232 12.9286 23.3022C12.8952 23.3725 12.8413 23.431 12.774 23.4701L10.4679 24.8018C10.3853 24.8491 10.288 24.8646 10.1948 24.8452L6.03136 23.9561C5.95358 23.9393 5.87322 23.938 5.79496 23.9525C5.7167 23.967 5.64211 23.997 5.57553 24.0406C5.47526 24.1061 5.39663 24.1998 5.34952 24.31C5.30241 24.4201 5.28893 24.5417 5.31078 24.6595C5.33263 24.7773 5.38883 24.886 5.47231 24.9719C5.55579 25.0578 5.66281 25.1171 5.77991 25.1423L7.79125 25.5711C7.8674 25.5876 7.93679 25.6267 7.99034 25.6833C8.0439 25.7399 8.07911 25.8114 8.09137 25.8883C8.10348 25.9654 8.092 26.0443 8.05844 26.1147C8.02489 26.1851 7.97083 26.2437 7.90337 26.2828L5.59952 27.6127C5.45999 27.6934 5.35819 27.8262 5.31645 27.9819C5.27472 28.1376 5.29646 28.3035 5.37691 28.4432C5.45811 28.5837 5.58914 28.684 5.746 28.7258C5.90287 28.7684 6.06666 28.7465 6.20714 28.6655L8.51122 27.3347C8.57877 27.296 8.65646 27.2786 8.73409 27.2848C8.81172 27.291 8.88565 27.3206 8.94617 27.3696C9.00669 27.4186 9.05097 27.4848 9.07318 27.5594C9.09539 27.634 9.0945 27.7137 9.07063 27.7878L8.43717 29.744C8.38754 29.897 8.40062 30.0634 8.47353 30.2068C8.54644 30.3501 8.67324 30.4587 8.8261 30.5087C8.97909 30.558 9.14539 30.5447 9.28859 30.4717C9.43179 30.3987 9.54022 30.2719 9.59013 30.1191L10.9034 26.0683C10.9329 25.9776 10.9948 25.9013 11.0774 25.8537L13.3819 24.5231C13.5203 24.4436 13.6933 24.4565 13.8172 24.5577C13.8778 24.6068 13.9221 24.673 13.9442 24.7477C13.9664 24.8224 13.9654 24.9021 13.9413 24.9762L13.3078 26.9317C13.2583 27.0847 13.2714 27.251 13.3443 27.3944C13.4172 27.5377 13.544 27.6462 13.6968 27.6962C13.8496 27.7457 14.0159 27.7326 14.1591 27.6597C14.3023 27.5869 14.4108 27.4602 14.4608 27.3075L15.7741 23.2567C15.8034 23.1659 15.8654 23.0892 15.948 23.0415L18.8141 21.387C18.9333 21.3178 19.0803 21.3178 19.1993 21.387C19.3188 21.4553 19.3924 21.5831 19.3924 21.7203V25.0323C19.3924 25.1268 19.3569 25.2193 19.2932 25.2902L16.4415 28.451C16.3341 28.5707 16.2787 28.728 16.2872 28.8886C16.2957 29.0491 16.3675 29.1997 16.4869 29.3073C16.6071 29.4157 16.7614 29.4695 16.9243 29.4614C17.0038 29.4577 17.0818 29.4382 17.1537 29.404C17.2255 29.3698 17.2899 29.3216 17.343 29.2623L18.7206 27.7347C18.7728 27.6769 18.8413 27.6362 18.9171 27.6181C18.9929 27.6 19.0724 27.6054 19.1451 27.6335C19.2179 27.6613 19.2806 27.7107 19.3247 27.7749C19.3689 27.8392 19.3925 27.9154 19.3924 27.9933V30.6564C19.3924 30.7512 19.3569 30.8437 19.2932 30.9143L16.4415 34.0753C16.3343 34.195 16.2789 34.3522 16.2874 34.5126C16.2959 34.673 16.3677 34.8235 16.4869 34.9312C16.6071 35.0396 16.7614 35.0952 16.9243 35.0857C17.0038 35.082 17.0818 35.0624 17.1537 35.0282C17.2256 34.994 17.2899 34.9458 17.343 34.8864L18.7206 33.3588C18.7951 33.2762 18.8999 33.2319 19.0067 33.2319ZM19.9998 37.6565C19.6343 37.6562 19.2838 37.5109 19.0253 37.2525C18.7668 36.994 18.6214 36.6436 18.621 36.2781V34.6195L17.9155 35.402C17.7949 35.5367 17.6487 35.6462 17.4855 35.7241C17.3223 35.802 17.1453 35.8467 16.9647 35.8558C16.7839 35.866 16.603 35.8402 16.4324 35.7798C16.2618 35.7194 16.1049 35.6256 15.9709 35.504C15.6997 35.2594 15.5367 34.9172 15.5175 34.5526C15.4983 34.1879 15.6245 33.8305 15.8684 33.5588L18.6207 30.508V28.9957L17.9153 29.7779C17.7947 29.9127 17.6485 30.0222 17.4853 30.1001C17.3221 30.1781 17.1451 30.2228 16.9644 30.2319C16.7837 30.2422 16.6028 30.2163 16.4321 30.1559C16.2615 30.0955 16.1046 30.0018 15.9706 29.8801C15.6995 29.6355 15.5365 29.2934 15.5173 28.9287C15.4981 28.5641 15.6243 28.2067 15.8682 27.935L18.6207 24.8839V22.3884L16.4613 23.6348L15.1937 27.5451C15.0803 27.8922 14.8339 28.1803 14.5085 28.346C14.1831 28.5118 13.8052 28.5417 13.4578 28.4293C13.1107 28.316 12.8227 28.0697 12.657 27.7444C12.4914 27.419 12.4615 27.0412 12.574 26.6939L12.8984 25.6923L11.5904 26.4473L10.323 30.3569C10.2099 30.7042 9.96356 30.9924 9.63813 31.1581C9.3127 31.3239 8.93477 31.3538 8.58735 31.2411C8.24017 31.128 7.9521 30.8817 7.78636 30.5563C7.62063 30.2309 7.59078 29.8531 7.70336 29.5057L8.0277 28.5041L6.59215 29.3329C6.4355 29.4238 6.26242 29.4828 6.08288 29.5065C5.90334 29.5302 5.72087 29.5182 5.546 29.4711C5.37091 29.4246 5.20676 29.3439 5.06303 29.2337C4.9193 29.1234 4.79884 28.9857 4.70862 28.8286C4.52614 28.5119 4.47681 28.1357 4.57144 27.7826C4.66607 27.4295 4.89693 27.1284 5.21335 26.9453L6.6489 26.1165L5.6189 25.8964C4.87655 25.7391 4.40042 25.006 4.55821 24.2629C4.59535 24.0858 4.66724 23.9178 4.76971 23.7687C4.87219 23.6195 5.00322 23.4921 5.15522 23.3939C5.30673 23.2952 5.4763 23.2273 5.65415 23.1944C5.832 23.1615 6.01461 23.164 6.19146 23.202L10.2102 24.0597L11.5196 23.304L10.4896 23.0839C10.3126 23.0468 10.1447 22.975 9.99569 22.8726C9.84665 22.7702 9.71939 22.6392 9.62127 22.4874C9.52225 22.3359 9.45426 22.1664 9.42124 21.9885C9.38821 21.8106 9.39081 21.628 9.42888 21.4511C9.50519 21.094 9.71996 20.7818 10.0261 20.5828C10.3323 20.3838 10.7048 20.3143 11.0621 20.3895L15.0809 21.2479L17.2422 19.9999L15.0825 18.7535L11.0626 19.6105C10.7053 19.6862 10.3325 19.617 10.0262 19.4181C9.7199 19.2191 9.50506 18.9068 9.42888 18.5496C9.35253 18.1897 9.42081 17.8213 9.62127 17.5129C9.82174 17.2044 10.1302 16.9924 10.49 16.9161L11.5196 16.696L10.2118 15.9412L6.19192 16.7989C6.01495 16.8369 5.83219 16.8395 5.65424 16.8064C5.47628 16.7733 5.30667 16.7052 5.15522 16.6061C5.00315 16.5079 4.87207 16.3806 4.76959 16.2314C4.6671 16.0822 4.59526 15.9142 4.55821 15.7371C4.48279 15.3799 4.55217 15.0074 4.75112 14.7013C4.95006 14.3952 5.26232 14.1806 5.61936 14.1045L6.6489 13.8842L5.21335 13.0556C5.05624 12.9654 4.91858 12.8449 4.80834 12.7011C4.6981 12.5573 4.61747 12.3931 4.57113 12.218C4.52376 12.0432 4.51152 11.8608 4.53512 11.6814C4.55872 11.5019 4.61769 11.3288 4.70862 11.1723C4.89172 10.8559 5.19284 10.625 5.54594 10.5303C5.89904 10.4356 6.27528 10.4848 6.59215 10.6671L8.0277 11.4959L7.70313 10.4945C7.64679 10.3226 7.62511 10.1413 7.63932 9.96096C7.65354 9.78064 7.70337 9.60492 7.78595 9.44399C7.86763 9.28254 7.98049 9.13888 8.118 9.02128C8.25551 8.90369 8.41495 8.8145 8.58711 8.75886C8.93454 8.64634 9.31241 8.67625 9.63781 8.84202C9.96321 9.00779 10.2096 9.29588 10.3228 9.64307L11.5892 13.5527L12.8984 14.3082L12.574 13.3061C12.4615 12.9589 12.4913 12.5811 12.657 12.2559C12.8227 11.9306 13.1107 11.6844 13.4578 11.5714C14.1798 11.3361 14.9586 11.7328 15.1935 12.4549L16.4599 16.3643L18.6207 17.6123V15.1186L15.8687 12.0662C15.6245 11.7944 15.4981 11.4369 15.5172 11.0721C15.5364 10.7072 15.6994 10.3649 15.9706 10.1201C16.1048 9.99875 16.2618 9.90519 16.4323 9.84485C16.6029 9.7845 16.7838 9.75857 16.9644 9.76856C17.1451 9.77758 17.3223 9.8224 17.4855 9.90041C17.6488 9.97842 17.795 10.0881 17.9155 10.223L18.6207 11.0043V9.49451L15.8687 6.44186C15.6246 6.17011 15.4982 5.81264 15.5174 5.44787C15.5365 5.08309 15.6995 4.74079 15.9706 4.49604C16.2424 4.25224 16.5998 4.12616 16.9644 4.14544C17.3289 4.16473 17.671 4.32781 17.9155 4.59892L18.6207 5.38025V3.72255C18.6211 3.35698 18.7665 3.00649 19.025 2.748C19.2835 2.4895 19.634 2.34412 19.9995 2.34375C20.3651 2.34418 20.7156 2.48961 20.9741 2.74815C21.2326 3.00668 21.378 3.35719 21.3783 3.72278V5.38025L22.0838 4.59823C22.5913 4.03421 23.464 3.98853 24.0284 4.49604C24.1633 4.61678 24.2729 4.76307 24.3509 4.92645C24.4288 5.08982 24.4736 5.26704 24.4827 5.44784C24.4926 5.62845 24.4667 5.80924 24.4063 5.97975C24.3459 6.15026 24.2523 6.30709 24.1309 6.44117L21.3786 9.4922V11.0043L22.084 10.2223C22.5917 9.65829 23.4644 9.61262 24.0287 10.1201C24.1636 10.2409 24.2731 10.3872 24.3511 10.5505C24.4291 10.7139 24.4739 10.8911 24.4829 11.0719C24.4929 11.2525 24.4669 11.4333 24.4065 11.6038C24.3461 11.7743 24.2525 11.9312 24.1311 12.0653L21.3786 15.1172V17.6123L23.5382 16.3652L24.8056 12.4556C24.8611 12.2832 24.9502 12.1235 25.0678 11.9858C25.1854 11.8481 25.3292 11.7351 25.4908 11.6533C25.6518 11.5707 25.8275 11.521 26.0079 11.5069C26.1883 11.4929 26.3697 11.5148 26.5415 11.5714C26.8887 11.6845 27.1769 11.9309 27.3426 12.2563C27.5083 12.5817 27.5382 12.9596 27.4255 13.307L27.1009 14.3082L28.4089 13.5534L29.6763 9.6433C29.7895 9.29605 30.0359 9.0079 30.3613 8.84209C30.6868 8.67627 31.0647 8.64634 31.4122 8.75886C31.5844 8.81446 31.7439 8.90363 31.8815 9.02123C32.019 9.13883 32.1319 9.28251 32.2136 9.44399C32.3806 9.77156 32.4097 10.1453 32.2959 10.4945L31.9716 11.4959L33.4072 10.6671C33.7241 10.4849 34.1003 10.4357 34.4534 10.5304C34.8065 10.6251 35.1077 10.8559 35.2909 11.1723C35.3819 11.3288 35.4409 11.5018 35.4645 11.6813C35.4881 11.8608 35.4758 12.0432 35.4284 12.218C35.3819 12.3931 35.3012 12.5572 35.191 12.7009C35.0807 12.8447 34.943 12.9651 34.786 13.0554L33.3504 13.8842L34.3804 14.1045C34.5574 14.1415 34.7253 14.2133 34.8743 14.3157C35.0233 14.4181 35.1505 14.5491 35.2485 14.7011C35.3476 14.8524 35.4156 15.0219 35.4487 15.1997C35.4818 15.3776 35.4792 15.5602 35.4411 15.7371C35.4041 15.9142 35.3323 16.0822 35.2299 16.2314C35.1275 16.3805 34.9965 16.5079 34.8445 16.6061C34.6931 16.7052 34.5235 16.7733 34.3455 16.8064C34.1676 16.8395 33.9848 16.8369 33.8079 16.7989L29.7893 15.9403L28.4797 16.696L29.5097 16.9161C30.2521 17.0734 30.7282 17.8065 30.5704 18.5496C30.4942 18.9067 30.2795 19.219 29.9733 19.4179C29.6671 19.6169 29.2944 19.6862 28.9372 19.6107L24.9187 18.7528L22.7574 19.9999L24.917 21.2472L28.9367 20.3895C29.2941 20.3141 29.6668 20.3836 29.973 20.5826C30.2793 20.7816 30.4941 21.0939 30.5704 21.4511C30.6085 21.628 30.6111 21.8106 30.5782 21.9885C30.5452 22.1664 30.4772 22.3359 30.3783 22.4874C30.2801 22.6393 30.1527 22.7703 30.0035 22.8727C29.8544 22.9751 29.6864 23.0469 29.5093 23.0839L28.4797 23.304L29.7877 24.0588L33.8074 23.202C33.9844 23.164 34.1671 23.1614 34.3451 23.1943C34.5232 23.2273 34.6929 23.2951 34.8445 23.3939C34.9965 23.4922 35.1274 23.6196 35.2298 23.7687C35.3322 23.9179 35.404 24.0859 35.4411 24.2629C35.4792 24.4399 35.4818 24.6226 35.4487 24.8006C35.4156 24.9785 35.3476 25.1482 35.2485 25.2996C35.1505 25.4517 35.0232 25.5827 34.8741 25.6852C34.725 25.7876 34.557 25.8594 34.38 25.8964L33.3504 26.1165L34.786 26.9453C35.1024 27.1284 35.3332 27.4295 35.4279 27.7825C35.5227 28.1356 35.4735 28.5118 35.2912 28.8286C35.2008 28.9857 35.0803 29.1233 34.9365 29.2335C34.7928 29.3438 34.6286 29.4245 34.4535 29.4711C34.2786 29.5182 34.0961 29.5303 33.9165 29.5065C33.737 29.4828 33.5638 29.4238 33.4072 29.3329L31.9716 28.5041L32.2962 29.5064C32.4086 29.8537 32.3787 30.2314 32.213 30.5566C32.0472 30.8818 31.7592 31.128 31.4122 31.2411C31.0649 31.3537 30.687 31.324 30.3616 31.1583C30.0362 30.9927 29.7898 30.7047 29.6765 30.3576L28.4103 26.4482L27.1009 25.6923L27.4255 26.6939C27.538 27.0413 27.508 27.419 27.3423 27.7444C27.1766 28.0697 26.8886 28.316 26.5415 28.4293C26.3696 28.4858 26.1882 28.5076 26.0077 28.4934C25.8273 28.4792 25.6515 28.4294 25.4905 28.3467C25.3291 28.265 25.1854 28.1521 25.0679 28.0145C24.9503 27.8769 24.8613 27.7174 24.8059 27.5451L23.5396 23.6357L21.3786 22.3884V24.8821L24.1309 27.9347C24.3749 28.2064 24.5012 28.5637 24.4821 28.9284C24.463 29.293 24.3 29.6352 24.0289 29.8799C23.8949 30.0015 23.738 30.0953 23.5674 30.1557C23.3968 30.2161 23.2158 30.2419 23.0351 30.2317C22.8544 30.2226 22.6773 30.1778 22.514 30.1C22.3508 30.0221 22.2045 29.9126 22.0838 29.7779L21.3786 28.9954V30.5064L24.1309 33.5588C24.3749 33.8305 24.5012 34.1878 24.4821 34.5525C24.463 34.9171 24.3 35.2593 24.0289 35.504C23.8949 35.6256 23.738 35.7194 23.5674 35.7798C23.3968 35.8402 23.2158 35.866 23.0351 35.8558C22.8544 35.8467 22.6773 35.8019 22.5141 35.724C22.3508 35.6462 22.2045 35.5367 22.0838 35.402L21.3786 34.6197V36.2784C21.378 36.6438 21.2325 36.994 20.974 37.2523C20.7155 37.5106 20.3652 37.6559 19.9998 37.6562V37.6565Z" fill="#1865C1"/>
<path fill-rule="evenodd" clip-rule="evenodd" d="M19.3922 27.9933V30.6564C19.3922 30.7512 19.3567 30.8437 19.293 30.9143L16.4413 34.0753C16.0821 34.4737 16.3859 35.115 16.9241 35.0857C17.0036 35.082 17.0816 35.0624 17.1535 35.0282C17.2254 34.994 17.2897 34.9458 17.3428 34.8864L18.7205 33.3588C18.7727 33.301 18.8413 33.2604 18.9171 33.2424C18.9929 33.2243 19.0724 33.2296 19.1451 33.2576C19.2178 33.2856 19.2803 33.335 19.3244 33.3992C19.3686 33.4634 19.3922 33.5395 19.3922 33.6174V36.2781C19.3966 36.4365 19.4625 36.5868 19.576 36.6973C19.6896 36.8077 19.8417 36.8695 20.0001 36.8695C20.1584 36.8695 20.3106 36.8077 20.4241 36.6973C20.5376 36.5868 20.6036 36.4365 20.6079 36.2781V33.6177C20.6077 33.2659 21.0439 33.0984 21.2792 33.3593L22.6564 34.8857C22.7641 35.0052 22.9147 35.077 23.0753 35.0856C23.2359 35.0942 23.3933 35.0389 23.5132 34.9316C23.6325 34.824 23.7043 34.6734 23.7127 34.5129C23.7212 34.3524 23.6656 34.1951 23.5581 34.0756L20.7069 30.9117C20.643 30.8411 20.6077 30.7493 20.6077 30.6541V27.9933C20.6077 27.6415 21.0437 27.4741 21.2794 27.7347L22.6566 29.2614C22.7644 29.3807 22.9149 29.4524 23.0754 29.461C23.2359 29.4696 23.3933 29.4144 23.5132 29.3073C23.6325 29.1996 23.7043 29.049 23.7127 28.8885C23.7212 28.7279 23.6656 28.5706 23.5581 28.451L20.7069 25.2876C20.643 25.217 20.6077 25.1252 20.6077 25.03V21.7203C20.6077 21.4246 20.9293 21.2387 21.186 21.387L24.0534 23.0422C24.1362 23.0904 24.1981 23.1667 24.2276 23.2574L25.5393 27.3075C25.5892 27.4602 25.6976 27.5869 25.8408 27.6598C25.984 27.7327 26.1502 27.7458 26.3031 27.6962C26.4558 27.6464 26.5825 27.538 26.6554 27.3949C26.7284 27.2517 26.7416 27.0855 26.6922 26.9326L26.0585 24.976C25.9506 24.6426 26.315 24.3485 26.6182 24.5231L28.9241 25.8547C29.0069 25.902 29.0687 25.9792 29.0983 26.0699L30.4099 30.1191C30.463 30.2677 30.572 30.3898 30.7137 30.4594C30.8553 30.529 31.0186 30.5406 31.1687 30.4917C31.3188 30.4429 31.4439 30.3375 31.5175 30.1979C31.5911 30.0583 31.6074 29.8954 31.5629 29.744L30.9292 27.7878C30.8215 27.4547 31.1855 27.1601 31.4886 27.3347L33.7927 28.6656C33.9323 28.7461 34.0982 28.7679 34.2538 28.7262C34.4095 28.6845 34.5423 28.5827 34.6229 28.4432C34.7034 28.3035 34.7252 28.1376 34.6835 27.982C34.6418 27.8263 34.54 27.6935 34.4005 27.6127L32.0965 26.2828C31.792 26.1063 31.8649 25.645 32.2088 25.5711L34.2195 25.1423C34.7477 25.0297 34.8758 24.334 34.4243 24.0406C34.3576 23.9969 34.283 23.967 34.2046 23.9525C34.1263 23.938 34.0459 23.9393 33.968 23.9561L29.8035 24.8443C29.7102 24.8637 29.613 24.8482 29.5303 24.8009L27.2258 23.4703C26.9213 23.2945 26.994 22.8336 27.3381 22.7596L29.3488 22.3298C29.5061 22.2965 29.6437 22.202 29.7314 22.0672C29.8191 21.9324 29.8497 21.7683 29.8164 21.611C29.7827 21.4538 29.6881 21.3164 29.5534 21.2288C29.4186 21.1412 29.2546 21.1106 29.0973 21.1436L24.9328 22.0318C24.8396 22.052 24.7421 22.0366 24.6597 21.9886L21.7936 20.3341C21.5371 20.1858 21.5371 19.8142 21.7936 19.6668L24.6613 18.0105C24.7439 17.9634 24.8412 17.9473 24.9346 17.9673L29.0978 18.8564C29.2551 18.8897 29.4192 18.8592 29.554 18.7716C29.6888 18.6839 29.7833 18.5463 29.8166 18.389C29.85 18.2317 29.8194 18.0676 29.7318 17.9328C29.6441 17.798 29.5065 17.7035 29.3492 17.6702L27.3381 17.2404C26.9937 17.1673 26.9215 16.7059 27.2258 16.5299L29.5319 15.1989C29.6148 15.1509 29.7119 15.1357 29.8053 15.1557L33.9685 16.0446C34.4937 16.1569 34.8958 15.5744 34.6019 15.1211C34.5588 15.0543 34.5029 14.9966 34.4373 14.9515C34.3717 14.9065 34.2978 14.8749 34.2199 14.8586L32.2088 14.4289C31.8651 14.3557 31.7917 13.8937 32.0965 13.7181L34.4005 12.3882C34.87 12.1158 34.7733 11.4124 34.2541 11.2742C34.1769 11.2535 34.0964 11.2482 34.0173 11.2587C33.9381 11.2692 33.8617 11.2952 33.7927 11.3354L31.4888 12.6653C31.1855 12.8401 30.821 12.546 30.9292 12.2131L31.5629 10.2567C31.6126 10.1037 31.5996 9.93723 31.5266 9.79387C31.4536 9.65051 31.3267 9.542 31.1737 9.49221C31.0208 9.44262 30.8544 9.45578 30.7111 9.52879C30.5679 9.6018 30.4595 9.7287 30.4097 9.8816L29.0964 13.9317C29.0671 14.0225 29.0051 14.0992 28.9225 14.147L26.6179 15.4778C26.3148 15.6524 25.9508 15.3578 26.0585 15.0247L26.692 13.0685C26.8588 12.5548 26.3187 12.0973 25.8408 12.3407C25.6964 12.4138 25.5893 12.5391 25.539 12.6934L24.2257 16.7442C24.1964 16.8349 24.1344 16.9114 24.0518 16.9588L21.186 18.6139C20.9293 18.7616 20.6077 18.5763 20.6077 18.2797V14.9684C20.6077 14.8729 20.643 14.7816 20.7069 14.7101L23.5586 11.549C23.6661 11.4294 23.7216 11.272 23.7131 11.1115C23.7045 10.9509 23.6325 10.8004 23.5129 10.6929C23.3933 10.5855 23.236 10.5299 23.0754 10.5385C22.9149 10.547 22.7643 10.619 22.6569 10.7386L21.2794 12.2653C21.0432 12.5273 20.6077 12.3587 20.6077 12.0076V9.34434C20.6077 9.24883 20.643 9.15748 20.7069 9.08597L23.5586 5.92559C23.6659 5.80596 23.7214 5.64864 23.7129 5.48816C23.7043 5.32768 23.6325 5.17712 23.5132 5.06952C23.3936 4.96203 23.2363 4.90639 23.0757 4.91482C22.9151 4.92325 22.7645 4.99507 22.6569 5.1145L21.2794 6.64117C21.0428 6.90369 20.6077 6.73345 20.6077 6.38327V3.72255C20.6075 3.5614 20.5434 3.40689 20.4294 3.29294C20.3155 3.17898 20.161 3.11488 19.9998 3.1147C19.8387 3.11494 19.6841 3.1791 19.5702 3.29309C19.4563 3.40708 19.3922 3.56161 19.392 3.72278V6.38304C19.392 6.73368 18.9564 6.90323 18.7205 6.64094L17.3433 5.11404C17.2355 4.99467 17.0848 4.92292 16.9241 4.91453C16.7635 4.90614 16.6061 4.9618 16.4865 5.06929C16.3672 5.17692 16.2955 5.32746 16.2871 5.48791C16.2786 5.64835 16.3342 5.80559 16.4415 5.92513L19.293 9.08782C19.3567 9.15864 19.3922 9.25091 19.3922 9.34572V12.0074C19.3922 12.3589 18.956 12.5269 18.7205 12.265L17.3433 10.7384C17.2356 10.6188 17.0848 10.547 16.9242 10.5385C16.7635 10.5301 16.6061 10.5858 16.4865 10.6934C16.3671 10.801 16.2954 10.9516 16.2869 11.1121C16.2785 11.2726 16.3341 11.4299 16.4415 11.5494L19.293 14.7121C19.3567 14.7827 19.3922 14.8752 19.3922 14.97V18.2794C19.3922 18.5756 19.0704 18.762 18.8139 18.6137L15.9462 16.9574C15.8637 16.9097 15.8017 16.8331 15.7723 16.7424L14.4606 12.6932C14.4084 12.5435 14.2995 12.4202 14.1574 12.3497C14.0153 12.2793 13.8513 12.2673 13.7005 12.3164C13.5496 12.3654 13.424 12.4716 13.3506 12.6121C13.2771 12.7527 13.2616 12.9164 13.3074 13.0683L13.9411 15.0245C14.0491 15.3576 13.6851 15.6522 13.3817 15.4775L11.0756 14.146C10.9931 14.0981 10.9312 14.0215 10.9016 13.9308L9.5895 9.88091C9.42341 9.36879 8.71682 9.31481 8.47299 9.79325C8.43663 9.86415 8.41471 9.94156 8.40849 10.021C8.40228 10.1004 8.41189 10.1803 8.43677 10.256L9.07023 12.2131C9.17842 12.5458 8.81417 12.8401 8.51082 12.6653L6.20674 11.3354C5.7373 11.0641 5.17651 11.5001 5.31584 12.0187C5.33631 12.0958 5.37187 12.168 5.42045 12.2313C5.46904 12.2946 5.52969 12.3476 5.59889 12.3873V12.3882L7.90297 13.7181C8.20793 13.8939 8.13434 14.356 7.79062 14.4289L5.77998 14.8584C5.25194 14.9707 5.12483 15.6667 5.57513 15.9597C5.71123 16.048 5.87294 16.0776 6.03142 16.0448L10.1962 15.1564C10.2894 15.1364 10.3865 15.1518 10.4691 15.1998L12.7736 16.5297C13.0781 16.7059 13.0057 17.1675 12.6613 17.2404L10.6509 17.6704C10.5713 17.6852 10.4954 17.7157 10.4278 17.7602C10.3602 17.8048 10.3022 17.8624 10.2572 17.9297C10.2122 17.997 10.1811 18.0726 10.1658 18.1521C10.1505 18.2316 10.1513 18.3133 10.1681 18.3925C10.1848 18.4717 10.2173 18.5468 10.2636 18.6132C10.3098 18.6796 10.3689 18.7362 10.4373 18.7794C10.5058 18.8227 10.5822 18.8518 10.662 18.865C10.7419 18.8783 10.8236 18.8754 10.9023 18.8566L15.0671 17.9685C15.1603 17.9491 15.2574 17.9646 15.34 18.0118L18.2063 19.667C18.4628 19.8146 18.4623 20.186 18.2063 20.3344L15.3382 21.99C15.2556 22.0375 15.1582 22.0527 15.0648 22.0327L10.9021 21.1436C10.3761 21.0317 9.97544 21.617 10.2682 22.0673C10.3565 22.2029 10.4922 22.2961 10.6506 22.3298L12.662 22.7593C13.0057 22.8332 13.0793 23.2945 12.7741 23.4703L10.4679 24.8018C10.3854 24.8491 10.288 24.8643 10.1948 24.8452L6.03142 23.9561C5.95355 23.9396 5.87318 23.9386 5.79491 23.9531C5.71663 23.9676 5.64199 23.9975 5.57526 24.0409C5.50852 24.0843 5.45099 24.1404 5.40597 24.2061C5.36094 24.2717 5.32929 24.3456 5.31284 24.4235C5.27974 24.5807 5.31032 24.7447 5.39788 24.8794C5.48544 25.0142 5.62284 25.1087 5.77998 25.1423L7.79108 25.5711C8.1348 25.645 8.20839 26.1061 7.90343 26.2828L5.59958 27.6127C5.13291 27.8821 5.2238 28.5855 5.74607 28.7258C5.90293 28.7682 6.06672 28.7465 6.20721 28.6656L8.51128 27.3347C8.8144 27.1599 9.17842 27.4547 9.07069 27.7878L8.43723 29.744C8.3876 29.897 8.40068 30.0634 8.47359 30.2068C8.5465 30.3501 8.6733 30.4587 8.82617 30.5087C8.97916 30.558 9.14545 30.5447 9.28865 30.4717C9.43185 30.3987 9.54028 30.2719 9.59019 30.1191L10.9035 26.0683C10.933 25.9776 10.9948 25.9013 11.0774 25.8537L13.382 24.5231C13.6851 24.3483 14.0493 24.6424 13.9414 24.976L13.3079 26.9315C13.2583 27.0845 13.2714 27.2509 13.3443 27.3943C13.4172 27.5376 13.544 27.6462 13.6968 27.6962C13.8497 27.7457 14.016 27.7326 14.1592 27.6597C14.3024 27.5869 14.4109 27.4602 14.4609 27.3075L15.7742 23.2567C15.8035 23.1659 15.8655 23.0892 15.9481 23.0415L18.8141 21.387C19.0702 21.2389 19.3922 21.4244 19.3922 21.7203V25.0323C19.3922 25.1269 19.3569 25.2194 19.293 25.2902L16.4415 28.451C16.0844 28.8473 16.3815 29.4884 16.9243 29.4614C17.0039 29.4577 17.0818 29.4382 17.1537 29.404C17.2256 29.3698 17.29 29.3216 17.343 29.2623L18.7207 27.7347C18.956 27.4738 19.3922 27.6415 19.3922 27.9933Z" fill="#83DBF2"/>
<path fill-rule="evenodd" clip-rule="evenodd" d="M20.6076 3.76938V3.72255C20.6074 3.5614 20.5433 3.40689 20.4293 3.29294C20.3154 3.17898 20.1609 3.11488 19.9997 3.1147C19.8386 3.11501 19.6841 3.17918 19.5702 3.29317C19.4563 3.40715 19.3923 3.56165 19.3921 3.72278V3.76938H20.6076Z" fill="#D2DADE"/>
</svg>
