<svg width="40" height="40" viewBox="0 0 40 40" fill="none" xmlns="http://www.w3.org/2000/svg">
<path d="M10.8708 36.3998C12.2029 36.3983 13.4799 35.8685 14.4217 34.9266C15.3636 33.9848 15.8934 32.7077 15.895 31.3757V26.2296C18.6576 27.3445 21.745 27.3445 24.5077 26.2296V31.3757C24.5092 32.7077 25.039 33.9848 25.9809 34.9266C26.9228 35.8685 28.1998 36.3983 29.5318 36.3998H10.8708Z" fill="#376CFB"/>
<path d="M30.2496 3.3844H24.1489L20.1081 8.77454L26.5892 13.0953L20.6177 20.775L22.4264 13.7699L15.9884 9.47792L20.5603 3.3844H10.1532C9.77252 3.3844 9.40741 3.53563 9.13821 3.80484C8.86901 4.07404 8.71777 4.43915 8.71777 4.81986V15.5858C8.71777 18.6314 9.92766 21.5524 12.0813 23.706C14.2349 25.8596 17.1558 27.0694 20.2014 27.0694C23.2471 27.0694 26.168 25.8596 28.3216 23.706C30.4752 21.5524 31.6851 18.6314 31.6851 15.5858V4.81986C31.6851 4.43915 31.5339 4.07404 31.2647 3.80484C30.9955 3.53563 30.6303 3.3844 30.2496 3.3844Z" fill="#4294FF"/>
<path d="M30.2496 2.66667H24.1489C24.0376 2.66744 23.928 2.69372 23.8284 2.74349C23.7289 2.79326 23.6421 2.86519 23.5747 2.95376L19.5339 8.34391C19.4184 8.50341 19.3695 8.70162 19.3975 8.89656C19.4155 8.99274 19.4527 9.0843 19.507 9.16571C19.5613 9.24712 19.6315 9.3167 19.7133 9.37026L25.5485 13.2675L22.1823 17.5954L23.1225 13.9494C23.159 13.8049 23.1496 13.6526 23.0955 13.5137C23.0415 13.3748 22.9456 13.2561 22.8211 13.1742L17.0147 9.29849L21.1344 3.81504C21.2144 3.70841 21.2631 3.58161 21.2751 3.44886C21.2871 3.3161 21.2618 3.18264 21.2022 3.06342C21.1426 2.9442 21.051 2.84394 20.9376 2.77386C20.8242 2.70379 20.6935 2.66667 20.5603 2.66667H10.1532C9.58265 2.66838 9.03597 2.89578 8.63254 3.29921C8.2291 3.70264 8.0017 4.24932 8 4.81986V15.5858C8.00236 17.9316 8.68054 20.227 9.95341 22.1974C11.2263 24.1678 13.0399 25.7297 15.1773 26.6962V31.3758C15.1773 32.5179 14.7236 33.6133 13.916 34.4209C13.1084 35.2285 12.013 35.6822 10.8709 35.6822C10.6806 35.6822 10.498 35.7578 10.3634 35.8924C10.2288 36.027 10.1532 36.2096 10.1532 36.3999C10.1532 36.5903 10.2288 36.7728 10.3634 36.9074C10.498 37.042 10.6806 37.1177 10.8709 37.1177H29.5319C29.7222 37.1177 29.9048 37.042 30.0394 36.9074C30.174 36.7728 30.2496 36.5903 30.2496 36.3999C30.2496 36.2096 30.174 36.027 30.0394 35.8924C29.9048 35.7578 29.7222 35.6822 29.5319 35.6822C28.3897 35.6822 27.2944 35.2285 26.4868 34.4209C25.6792 33.6133 25.2255 32.5179 25.2255 31.3758V26.6962C27.3629 25.7297 29.1765 24.1678 30.4494 22.1974C31.7222 20.227 32.4004 17.9316 32.4028 15.5858V4.81986C32.4011 4.24932 32.1737 3.70264 31.7702 3.29921C31.3668 2.89578 30.8201 2.66838 30.2496 2.66667ZM25.7351 35.6822H14.6677C15.2792 35.1437 15.7689 34.4812 16.1043 33.7386C16.4397 32.9961 16.613 32.1906 16.6127 31.3758V27.2489C18.9513 27.9666 21.4514 27.9666 23.79 27.2489V31.3758C23.7898 32.1906 23.9631 32.9961 24.2985 33.7386C24.6338 34.4812 25.1236 35.1437 25.7351 35.6822ZM30.9673 15.5858C30.9673 18.4411 29.8331 21.1794 27.8141 23.1985C25.795 25.2175 23.0567 26.3517 20.2014 26.3517C17.3461 26.3517 14.6077 25.2175 12.5887 23.1985C10.5697 21.1794 9.43546 18.4411 9.43546 15.5858V4.81986C9.43546 4.6295 9.51107 4.44695 9.64567 4.31235C9.78028 4.17775 9.96283 4.10213 10.1532 4.10213H19.1248L15.4141 9.04728C15.2986 9.20678 15.2497 9.40499 15.2778 9.59993C15.2957 9.69612 15.3329 9.78767 15.3872 9.86908C15.4415 9.95049 15.5117 10.0201 15.5936 10.0736L21.601 14.0857L19.9215 20.5955C19.8804 20.7556 19.8958 20.9249 19.965 21.0749C20.0342 21.2249 20.1531 21.3464 20.3015 21.4189C20.45 21.4915 20.6189 21.5106 20.7798 21.473C20.9407 21.4354 21.0837 21.3435 21.1847 21.2128L27.1562 13.5331C27.2169 13.4558 27.261 13.3668 27.2857 13.2717C27.3104 13.1765 27.3152 13.0773 27.2997 12.9802C27.2842 12.8832 27.2487 12.7903 27.1956 12.7076C27.1425 12.6249 27.0729 12.5541 26.9911 12.4996L21.1344 8.59511L24.5078 4.10213H30.2496C30.4399 4.10213 30.6225 4.17775 30.7571 4.31235C30.8917 4.44695 30.9673 4.6295 30.9673 4.81986V15.5858Z" fill="#232328"/>
</svg>
