<svg width="40" height="40" viewBox="0 0 40 40" fill="none" xmlns="http://www.w3.org/2000/svg">
<path d="M17.5884 38.1765C13.4707 37.7647 9.29427 35.8235 7.29427 32.2353C5.23545 28.5882 5.76486 24.0588 7.17663 20.1765C7.58839 21.2941 8.00016 22.4706 8.41192 23.5882C8.52957 23.9412 8.64722 24.2941 9.00016 24.4706C9.47074 24.7647 10.1178 24.5294 10.4119 24.0588C10.706 23.5882 10.7649 23.0588 10.706 22.5294C10.5296 20.2353 9.23545 18.1176 9.17663 15.8824C9.1178 13.2353 10.7649 10.8824 12.8237 9.23529C12.8825 10.1765 13.1178 11.0588 13.4119 11.9412C13.5296 12.2941 13.706 12.6471 14.059 12.7059C14.2943 12.7059 14.5296 12.5882 14.706 12.4118C16.4119 11 17.4707 8.94118 17.8237 6.7647C18.0002 5.64706 18.0002 4.52941 17.7649 3.47059C17.706 3.23529 17.2354 2.05882 17.3531 1.88235C17.5296 1.58823 18.4707 2.29412 18.706 2.41176C22.4707 4.7647 24.9413 9.11765 25.059 13.5294C25.059 14.2353 25.1766 15.1176 25.8237 15.2353C26.2355 15.2941 26.6472 15.0588 26.8237 14.7059C27.0002 14.3529 27.059 13.9412 27.1178 13.5294C29.8237 15.8824 31.7649 18.8824 33.059 22.1765C33.8237 24.1176 34.3531 26.2353 33.9413 28.2941C33.5884 30.1765 32.6472 31.8824 31.4119 33.2941C29.2354 35.7647 26.3531 37.7059 23.059 38C21.2943 38.2353 19.4707 38.2941 17.5884 38.1765Z" fill="#F95353"/>
<path d="M27.5883 35.5294C27.4707 35.9412 27.2942 36.3529 27.1178 36.7647C25.8825 37.4118 24.5295 37.8823 23.0589 38.0588C22.0001 38.1765 20.8825 38.2353 19.706 38.2353C19.0001 38.2353 18.2942 38.2353 17.5295 38.1765C16.2354 38.0588 14.9413 37.7647 13.6472 37.2941C13.0001 36.2941 12.5295 35.1765 12.3531 34.0588C11.9413 31.5882 12.706 28.9412 14.1178 26.8823C14.3531 26.5294 14.8236 26.6471 14.9413 27.0588C15.3531 28.3529 16.1766 29.5882 17.1766 30.5882C17.4707 30.8823 17.9413 30.7059 18.0001 30.2941C18.1178 28.8823 18.4119 26.3529 18.8825 25C19.5295 23.2941 20.4707 21.5882 21.9413 20.4706C22.2354 20.2353 22.6472 20.3529 22.706 20.7647C23.0001 22.4706 23.8236 24.0588 24.706 25.5882C25.706 27.2941 26.8236 29 27.4119 30.9412C27.9413 32.3529 28.0001 34 27.5883 35.5294Z" fill="white"/>
<path d="M27.5883 35.5294C27.4707 35.9412 27.2942 36.3529 27.1178 36.7647C25.8825 37.4118 24.5295 37.8823 23.0589 38.0588C22.0001 38.1765 20.8825 38.2353 19.706 38.2353C19.0001 38.2353 18.2942 38.2353 17.5295 38.1765C16.2354 38.0588 14.9413 37.7647 13.6472 37.2941C13.0001 36.2941 12.5295 35.1765 12.3531 34.0588C11.9413 31.5882 12.706 28.9412 14.1178 26.8823C14.3531 26.5294 14.8236 26.6471 14.9413 27.0588C15.3531 28.3529 16.1766 29.5882 17.1766 30.5882C17.4707 30.8823 17.9413 30.7059 18.0001 30.2941C18.1178 28.8823 18.4119 26.3529 18.8825 25C19.5295 23.2941 20.4707 21.5882 21.9413 20.4706C22.2354 20.2353 22.6472 20.3529 22.706 20.7647C23.0001 22.4706 23.8236 24.0588 24.706 25.5882C25.706 27.2941 26.8236 29 27.4119 30.9412C27.9413 32.3529 28.0001 34 27.5883 35.5294Z" fill="#FFD550"/>
<path d="M9.29417 23.9412C9.1177 23.8235 9.05888 23.5294 8.94123 23.3529L7.70594 19.9412C7.64711 19.7059 7.41182 19.5294 7.17652 19.5294C6.94123 19.5294 6.70594 19.7059 6.64711 19.9412C5.64711 22.7059 4.29417 28.0588 6.82358 32.5294C8.76476 36 13.0589 38.8824 19.7648 38.8824C25.0589 38.8824 28.2942 37.8235 31.8824 33.7647C33.2942 32.1765 34.1765 30.3529 34.5883 28.4706C34.9412 26.5882 34.6471 24.4706 33.7059 22.0588C32.2942 18.4706 30.2353 15.5294 27.5883 13.1765C27.4118 13.0588 27.1765 13 27.0001 13.0588C26.8236 13.1176 26.6471 13.3529 26.6471 13.5294C26.5883 13.8824 26.5883 14.2353 26.4118 14.4706C26.2942 14.6471 26.1177 14.7647 26.0589 14.7059C25.8824 14.6471 25.7648 14.3529 25.7059 13.5294C25.5295 8.94118 22.9412 4.35294 19.0001 1.88235L18.8824 1.82353C18.2942 1.41177 17.7648 1.11765 17.2942 1.17647C17.0589 1.23529 16.9412 1.35294 16.8236 1.52941C16.5883 1.88235 16.7648 2.29412 17.0589 3.11765C17.1177 3.29412 17.1765 3.41177 17.1765 3.52941C17.7648 6.64706 16.5883 10 14.2942 11.9412C14.1765 12.0588 14.1177 12.0588 14.1177 12.1176C14.1177 12.1176 14.0001 12 13.9412 11.7647C13.6471 10.9412 13.4706 10.0588 13.4118 9.17647C13.4118 8.94118 13.2353 8.76471 13.0589 8.70588C12.8824 8.64706 12.6471 8.64706 12.4706 8.76471C9.94123 10.7647 8.52947 13.3529 8.58829 15.8824C8.64711 17.1765 9.00005 18.3529 9.41182 19.5294C9.76476 20.5882 10.0589 21.5882 10.1765 22.5882C10.2353 23.1176 10.1765 23.5294 10.0001 23.7647C9.70594 23.9412 9.41182 24.0588 9.29417 23.9412ZM16.8236 30.9412C17.1177 31.2353 17.5295 31.3529 17.9412 31.1765C18.353 31.0588 18.5883 30.7059 18.6471 30.2941C18.7648 28.9412 19.0001 26.4706 19.5295 25.1176C20.1765 23.3529 21.0589 21.9412 22.2353 20.9412C22.5883 22.7059 23.4118 24.2941 24.2942 25.7647C24.4706 26 24.5883 26.2941 24.7648 26.5294C25.5883 27.9412 26.4706 29.4118 26.9412 31C27.353 32.4706 27.4118 34 27.0589 35.3529C27.0001 35.6471 26.8824 36 26.7059 36.2941C24.5295 37.4118 22.5883 37.5882 19.7648 37.5882H19.0589C17.4706 37.5294 16.0001 37.4118 14.1177 36.7647C13.5295 35.8824 13.1765 34.8824 13.0001 33.8824C12.6471 31.7059 13.2353 29.3529 14.5295 27.3529C14.9412 28.5882 15.7059 29.8235 16.8236 30.9412ZM11.2353 22.4706C11.1765 21.2941 10.7648 20.1765 10.4706 19.1176C10.1177 18 9.76476 16.9412 9.70594 15.8235C9.64711 13.9412 10.6471 11.9412 12.2942 10.3529C12.4118 10.9412 12.5883 11.5294 12.7648 12.1176C13.0589 13 13.5883 13.2353 13.9412 13.2353C14.4706 13.2941 14.8236 12.9412 15.0001 12.8235C17.7648 10.5294 18.9412 6.70588 18.2942 3.29412C18.2942 3.17647 18.2353 3 18.1177 2.76471C18.2353 2.82353 18.2942 2.88235 18.353 2.94118C21.9412 5.23529 24.353 9.41177 24.4118 13.5882C24.4118 14.9412 24.8824 15.7059 25.6471 15.8824C26.2353 16 26.9412 15.7059 27.2942 15.0588C27.353 14.9412 27.4118 14.8235 27.4706 14.7647C29.5883 16.8824 31.2942 19.4706 32.5295 22.5294C33.4118 24.7647 33.7059 26.6471 33.353 28.2941C33.0589 30 32.1765 31.5882 30.9412 33C30.0589 33.9412 29.1765 34.7647 28.1765 35.4706C28.5295 34 28.4706 32.3529 28.0001 30.7647C27.5295 29.0588 26.5883 27.5294 25.7059 26C25.5295 25.7647 25.4118 25.4706 25.2353 25.2353C24.4118 23.8235 23.5883 22.2353 23.2942 20.5882C23.2353 20.2353 23.0001 19.9412 22.6471 19.7647C22.2942 19.6471 21.8824 19.7059 21.5883 19.9412C20.2353 21.0588 19.1177 22.7059 18.353 24.7647C17.8236 26.1176 17.5883 28.5294 17.4706 30C16.5295 29 15.8824 27.9412 15.5883 26.9412C15.4706 26.5294 15.1177 26.2353 14.7059 26.1765C14.2942 26.1176 13.9412 26.2941 13.7059 26.5882C12.1177 28.8824 11.4118 31.6471 11.8236 34.1765C11.9412 34.8824 12.1177 35.5294 12.4118 36.1765C10.4118 35.1765 8.76476 33.7059 7.76476 31.9412C5.94123 28.6471 6.41182 24.7059 7.17652 22L7.82358 23.7647C7.94123 24.1176 8.1177 24.6471 8.64711 25C9.41182 25.4706 10.4118 25.1176 10.8236 24.4118C11.2942 23.7647 11.2942 23 11.2353 22.4706Z" fill="black"/>
</svg>
