<svg width="45" height="45" viewBox="0 0 45 45" fill="none" xmlns="http://www.w3.org/2000/svg">
<g clip-path="url(#clip0_2073_1468)">
<path d="M36.75 3.75V22.5H12C11.8011 22.5 11.6103 22.579 11.4697 22.7197C11.329 22.8603 11.25 23.0511 11.25 23.25V40.5H9.75C8.95435 40.5 8.19129 40.1839 7.62868 39.6213C7.06607 39.0587 6.75 38.2957 6.75 37.5V10.5L16.5 0.75H33.75C34.5457 0.75 35.3087 1.06607 35.8713 1.62868C36.4339 2.19129 36.75 2.95435 36.75 3.75Z" fill="#F5F5F5"/>
<path d="M33.75 0.75H31.5C32.2956 0.75 33.0587 1.06607 33.6213 1.62868C34.1839 2.19129 34.5 2.95435 34.5 3.75V22.5H36.75V3.75C36.75 2.95435 36.4339 2.19129 35.8713 1.62868C35.3087 1.06607 34.5456 0.75 33.75 0.75Z" fill="#CFD8DC"/>
<path d="M36.75 16.5H39C39.1989 16.5 39.3897 16.579 39.5303 16.7197C39.671 16.8603 39.75 17.0511 39.75 17.25V22.5H36.75V16.5ZM11.25 40.5C11.25 41.4946 10.8549 42.4484 10.1517 43.1517C9.44839 43.8549 8.49456 44.25 7.5 44.25C6.50544 44.25 5.55161 43.8549 4.84835 43.1517C4.14509 42.4484 3.75 41.4946 3.75 40.5V15C3.75119 14.6025 3.9096 14.2217 4.19065 13.9407C4.4717 13.6596 4.85254 13.5012 5.25 13.5H6.75V37.5C6.75 38.2957 7.06607 39.0587 7.62868 39.6213C8.19129 40.1839 8.95435 40.5 9.75 40.5H11.25Z" fill="#FF9801"/>
<path d="M41.25 23.25V40.5C41.2515 40.9929 41.1555 41.4812 40.9676 41.9368C40.7796 42.3925 40.5035 42.8064 40.155 43.155C39.8064 43.5035 39.3925 43.7796 38.9368 43.9676C38.4812 44.1555 37.9929 44.2515 37.5 44.25H7.5C8.49456 44.25 9.44839 43.8549 10.1517 43.1517C10.8549 42.4484 11.25 41.4946 11.25 40.5V23.25C11.25 23.0511 11.329 22.8603 11.4697 22.7197C11.6103 22.579 11.8011 22.5 12 22.5H40.5C40.6989 22.5 40.8897 22.579 41.0303 22.7197C41.171 22.8603 41.25 23.0511 41.25 23.25Z" fill="#FFDF00"/>
<path d="M40.5 22.5H38.25C38.4489 22.5 38.6397 22.579 38.7803 22.7197C38.921 22.8603 39 23.0511 39 23.25V40.5C39.0015 40.9929 38.9055 41.4812 38.7176 41.9368C38.5296 42.3925 38.2535 42.8064 37.905 43.155C37.5564 43.5035 37.1425 43.7796 36.6868 43.9676C36.2312 44.1555 35.7429 44.2515 35.25 44.25H37.5C37.9929 44.2515 38.4812 44.1555 38.9368 43.9676C39.3925 43.7796 39.8064 43.5035 40.155 43.155C40.5035 42.8064 40.7796 42.3925 40.9676 41.9368C41.1555 41.4812 41.2515 40.9929 41.25 40.5V23.25C41.25 23.0511 41.171 22.8603 41.0303 22.7197C40.8897 22.579 40.6989 22.5 40.5 22.5Z" fill="#FEC108"/>
<path d="M6.75 10.5H13.5C14.2957 10.5 15.0587 10.1839 15.6213 9.62132C16.1839 9.05871 16.5 8.29565 16.5 7.5V0.75L6.75 10.5Z" fill="#9E9E9E"/>
<path d="M26.25 26.25H15.75C15.3358 26.25 15 26.5858 15 27V33C15 33.4142 15.3358 33.75 15.75 33.75H26.25C26.6642 33.75 27 33.4142 27 33V27C27 26.5858 26.6642 26.25 26.25 26.25Z" fill="#F5F5F5"/>
<path d="M26.25 26.25H24C24.1989 26.25 24.3897 26.329 24.5303 26.4697C24.671 26.6103 24.75 26.8011 24.75 27V33C24.75 33.1989 24.671 33.3897 24.5303 33.5303C24.3897 33.671 24.1989 33.75 24 33.75H26.25C26.4489 33.75 26.6397 33.671 26.7803 33.5303C26.921 33.3897 27 33.1989 27 33V27C27 26.8011 26.921 26.6103 26.7803 26.4697C26.6397 26.329 26.4489 26.25 26.25 26.25Z" fill="#CFD8DC"/>
<path d="M30.75 9H32.25C32.4489 9 32.6397 8.92098 32.7803 8.78033C32.921 8.63968 33 8.44891 33 8.25C33 8.05109 32.921 7.86032 32.7803 7.71967C32.6397 7.57902 32.4489 7.5 32.25 7.5H30.75C30.5511 7.5 30.3603 7.57902 30.2197 7.71967C30.079 7.86032 30 8.05109 30 8.25C30 8.44891 30.079 8.63968 30.2197 8.78033C30.3603 8.92098 30.5511 9 30.75 9ZM19.5 9H27.75C27.9489 9 28.1397 8.92098 28.2803 8.78033C28.421 8.63968 28.5 8.44891 28.5 8.25C28.5 8.05109 28.421 7.86032 28.2803 7.71967C28.1397 7.57902 27.9489 7.5 27.75 7.5H19.5C19.3011 7.5 19.1103 7.57902 18.9697 7.71967C18.829 7.86032 18.75 8.05109 18.75 8.25C18.75 8.44891 18.829 8.63968 18.9697 8.78033C19.1103 8.92098 19.3011 9 19.5 9ZM19.5 12.75H32.25C32.4489 12.75 32.6397 12.671 32.7803 12.5303C32.921 12.3897 33 12.1989 33 12C33 11.8011 32.921 11.6103 32.7803 11.4697C32.6397 11.329 32.4489 11.25 32.25 11.25H19.5C19.3011 11.25 19.1103 11.329 18.9697 11.4697C18.829 11.6103 18.75 11.8011 18.75 12C18.75 12.1989 18.829 12.3897 18.9697 12.5303C19.1103 12.671 19.3011 12.75 19.5 12.75ZM32.25 15H26.25C26.0511 15 25.8603 15.079 25.7197 15.2197C25.579 15.3603 25.5 15.5511 25.5 15.75C25.5 15.9489 25.579 16.1397 25.7197 16.2803C25.8603 16.421 26.0511 16.5 26.25 16.5H32.25C32.4489 16.5 32.6397 16.421 32.7803 16.2803C32.921 16.1397 33 15.9489 33 15.75C33 15.5511 32.921 15.3603 32.7803 15.2197C32.6397 15.079 32.4489 15 32.25 15Z" fill="black"/>
<path d="M40.5 21.75V17.25C40.5 16.8522 40.342 16.4706 40.0607 16.1893C39.7794 15.908 39.3978 15.75 39 15.75H37.5V3.75C37.4988 2.7558 37.1034 1.80267 36.4004 1.09966C35.6973 0.396661 34.7442 0.00119089 33.75 0L16.5 0C16.3011 4.24781e-05 16.1104 0.079088 15.9698 0.21975L6.21976 9.96975C6.0791 10.1104 6.00006 10.3011 6.00001 10.5V12.75H5.25001C4.65328 12.75 4.08098 12.9871 3.65902 13.409C3.23707 13.831 3.00001 14.4033 3.00001 15V40.5C2.99853 41.0914 3.11391 41.6772 3.33953 42.2238C3.56515 42.7705 3.89656 43.2671 4.31472 43.6853C4.73288 44.1034 5.22955 44.4349 5.77618 44.6605C6.32282 44.8861 6.90865 45.0015 7.50001 45H37.5C38.0914 45.0015 38.6772 44.8861 39.2238 44.6605C39.7705 44.4349 40.2671 44.1034 40.6853 43.6853C41.1035 43.2671 41.4349 42.7705 41.6605 42.2238C41.8861 41.6772 42.0015 41.0914 42 40.5V23.25C42 22.8522 41.842 22.4706 41.5607 22.1893C41.2794 21.908 40.8978 21.75 40.5 21.75ZM37.5 17.25H39V21.75H37.5V17.25ZM15.75 2.5605V7.5C15.75 8.09674 15.513 8.66903 15.091 9.09099C14.669 9.51295 14.0968 9.75 13.5 9.75H8.56051L15.75 2.5605ZM7.50001 43.5C7.1056 43.5016 6.71478 43.4251 6.35009 43.2749C5.9854 43.1247 5.65405 42.9038 5.37516 42.6249C5.09626 42.346 4.87534 42.0146 4.72514 41.6499C4.57494 41.2852 4.49843 40.8944 4.50001 40.5V15C4.50001 14.8011 4.57903 14.6103 4.71968 14.4697C4.86034 14.329 5.0511 14.25 5.25001 14.25H6.00001V37.5C6.00121 38.4942 6.39668 39.4473 7.09968 40.1503C7.80268 40.8533 8.75582 41.2488 9.75001 41.25H10.3935C10.2277 41.8921 9.85385 42.4612 9.33034 42.8683C8.80682 43.2754 8.16318 43.4975 7.50001 43.5ZM10.5 39.75H9.75001C9.15328 39.75 8.58098 39.5129 8.15902 39.091C7.73707 38.669 7.50001 38.0967 7.50001 37.5V11.25H13.5C14.4942 11.2488 15.4473 10.8533 16.1504 10.1503C16.8534 9.44733 17.2488 8.4942 17.25 7.5V1.5H33.75C34.3468 1.5 34.919 1.73705 35.341 2.15901C35.763 2.58097 36 3.15326 36 3.75V21.75H12C11.6022 21.75 11.2207 21.908 10.9394 22.1893C10.6581 22.4706 10.5 22.8522 10.5 23.25V39.75ZM40.5 40.5C40.5016 40.8944 40.4251 41.2852 40.2749 41.6499C40.1247 42.0146 39.9038 42.346 39.6249 42.6249C39.346 42.9038 39.0146 43.1247 38.6499 43.2749C38.2852 43.4251 37.8944 43.5016 37.5 43.5H10.851C11.5915 42.6763 12.0009 41.6076 12 40.5V23.25H40.5V40.5Z" fill="black"/>
<path d="M15.75 34.5H26.25C26.6478 34.5 27.0294 34.342 27.3107 34.0607C27.592 33.7794 27.75 33.3978 27.75 33V27C27.75 26.6022 27.592 26.2206 27.3107 25.9393C27.0294 25.658 26.6478 25.5 26.25 25.5H15.75C15.3522 25.5 14.9706 25.658 14.6893 25.9393C14.408 26.2206 14.25 26.6022 14.25 27V33C14.25 33.3978 14.408 33.7794 14.6893 34.0607C14.9706 34.342 15.3522 34.5 15.75 34.5ZM15.75 27H26.25V33H15.75V27Z" fill="black"/>
<path d="M23.25 29.25H18.75C18.5511 29.25 18.3603 29.329 18.2197 29.4697C18.079 29.6103 18 29.8011 18 30C18 30.1989 18.079 30.3897 18.2197 30.5303C18.3603 30.671 18.5511 30.75 18.75 30.75H23.25C23.4489 30.75 23.6397 30.671 23.7803 30.5303C23.921 30.3897 24 30.1989 24 30C24 29.8011 23.921 29.6103 23.7803 29.4697C23.6397 29.329 23.4489 29.25 23.25 29.25Z" fill="black"/>
</g>
<defs>
<clipPath id="clip0_2073_1468">
<rect width="45" height="45" fill="white"/>
</clipPath>
</defs>
</svg>
