<svg width="50" height="50" viewBox="0 0 50 50" fill="none" xmlns="http://www.w3.org/2000/svg">
<path fill-rule="evenodd" clip-rule="evenodd" d="M26.1999 27.35C23.5499 27.35 23.1499 26 20.8499 26C19.3499 26 17.8999 26.8 17.3499 28.45C18.0499 30.9 20.3499 32.7 23.0499 32.7C23.2499 32.7 23.4999 32.7 23.6999 32.65C24.2999 32.25 24.9999 32 25.7499 32H25.7999C27.1499 31.3 28.1999 30.05 28.6999 28.6C28.1499 27.4 27.0999 27.35 26.1999 27.35Z" fill="#9BE0ED"/>
<path fill-rule="evenodd" clip-rule="evenodd" d="M28.9499 26.75C28.9499 23.5 26.2999 20.85 23.0499 20.85C19.7999 20.85 17.0999 23.5 17.0999 26.75C17.0999 27.3 17.1999 27.9 17.3499 28.4C17.8999 26.75 19.3499 25.95 20.8499 25.95C23.0999 25.95 23.4999 27.3 26.1999 27.3C27.0999 27.3 28.1499 27.35 28.6499 28.55C28.8499 28 28.9499 27.4 28.9499 26.75Z" fill="white"/>
<path fill-rule="evenodd" clip-rule="evenodd" d="M32.4499 26.75C32.4499 21.55 28.2499 17.35 23.0499 17.35C17.8499 17.35 13.6499 21.55 13.6499 26.75C13.6499 31.6 17.3499 35.6 22.0999 36.1C22.0999 35.95 22.0499 35.8 22.0499 35.65C22.0499 34.4 22.6999 33.3 23.6499 32.65C23.4499 32.65 23.2499 32.7 22.9999 32.7C20.2999 32.7 18.0499 30.9 17.2999 28.45C17.1499 27.95 17.0499 27.35 17.0499 26.8C17.0499 23.55 19.6999 20.9 22.9499 20.9C26.1999 20.9 28.9499 23.5 28.9499 26.75C28.9499 27.4 28.8499 28 28.6499 28.55C28.1499 30.05 27.1499 31.25 25.7499 31.95H30.7999C31.8499 30.5 32.4499 28.7 32.4499 26.75Z" fill="#D1D1D1"/>
<path fill-rule="evenodd" clip-rule="evenodd" d="M41.1498 13.9H6.5498V38C6.5498 38.9 7.2998 39.65 8.1998 39.65H22.8498C23.1498 39.45 23.4998 39.3 23.8998 39.3H25.7498C23.8998 39.3 22.3498 37.9 22.0998 36.1C17.3498 35.65 13.6498 31.65 13.6498 26.75C13.6498 21.55 17.8498 17.35 23.0498 17.35C28.2498 17.35 32.4498 21.55 32.4498 26.75C32.4498 28.7 31.8498 30.5 30.8498 31.95H41.1498V13.9Z" fill="white"/>
<path fill-rule="evenodd" clip-rule="evenodd" d="M30.8499 32H25.7499C24.9999 32 24.2499 32.25 23.6999 32.65C22.7499 33.3 22.0999 34.4 22.0999 35.65C22.0999 35.8 22.0999 35.95 22.1499 36.1C22.3499 37.9 23.9499 39.3 25.7999 39.3H41.6999C42.6999 39.3 43.5499 38.5 43.5499 37.45C43.5499 36.45 42.6999 35.6 41.6999 35.6C42.6999 35.6 43.5499 34.8 43.5499 33.75C43.5499 32.75 42.6999 31.9 41.6999 31.9H30.8499V32Z" fill="#F7DB63"/>
<path fill-rule="evenodd" clip-rule="evenodd" d="M23.8998 42.95C23.5998 42.95 23.2998 43 23.0498 43.15C22.4498 43.45 22.0498 44.05 22.0498 44.8C22.0498 45.8 22.8498 46.65 23.8998 46.65H39.7998C41.7998 46.65 43.4498 45 43.4498 43C43.4498 41 41.7998 39.35 39.7998 39.35H23.8998C23.4998 39.35 23.1498 39.5 22.8498 39.7C22.3998 40.05 22.0998 40.55 22.0998 41.2C22.0998 42.15 22.8998 42.95 23.8998 42.95Z" fill="#F28686"/>
<path fill-rule="evenodd" clip-rule="evenodd" d="M20.0499 39.65H8.19995V41.4C8.19995 42.35 8.99995 43.15 9.94995 43.15H23.1C23.35 43 23.65 42.95 23.95 42.95C22.95 42.95 22.1 42.15 22.1 41.1C22.1 40.5 22.4 39.95 22.85 39.6H20.0499V39.65Z" fill="#BEBEBE"/>
<path fill-rule="evenodd" clip-rule="evenodd" d="M22.3498 6.89999H10.5498C10.2498 6.89999 10.0498 7.14999 10.0498 7.39999V9.84999C10.0498 10.15 10.2998 10.35 10.5498 10.35H22.3498C22.6498 10.35 22.8498 10.1 22.8498 9.84999V7.39999C22.8498 7.09999 22.6498 6.89999 22.3498 6.89999ZM30.1498 8.64999C30.1498 7.69999 29.3498 6.89999 28.3998 6.89999C27.4498 6.89999 26.6498 7.64999 26.6498 8.64999C26.6498 9.64999 27.4498 10.4 28.3998 10.4C29.3498 10.35 30.1498 9.59999 30.1498 8.64999ZM37.3998 8.64999C37.3998 7.69999 36.5998 6.89999 35.6498 6.89999C34.6998 6.89999 33.8998 7.64999 33.8998 8.64999C33.8998 9.64999 34.6998 10.4 35.6498 10.4C36.5998 10.4 37.3998 9.59999 37.3998 8.64999Z" fill="#D1D1D1"/>
<path fill-rule="evenodd" clip-rule="evenodd" d="M39.4998 3.39999H8.1998C7.2998 3.39999 6.5498 4.14999 6.5498 5.04999V13.9H41.1998V5.04999C41.1498 4.09999 40.4498 3.39999 39.4998 3.39999ZM33.8998 8.64999C33.8998 7.69999 34.6998 6.89999 35.6498 6.89999C36.5998 6.89999 37.3998 7.64999 37.3998 8.64999C37.3998 9.64999 36.5998 10.4 35.6498 10.4C34.6998 10.4 33.8998 9.59999 33.8998 8.64999ZM28.3998 6.89999C29.3498 6.89999 30.1498 7.64999 30.1498 8.64999C30.1498 9.64999 29.3498 10.4 28.3998 10.4C27.4498 10.4 26.6498 9.64999 26.6498 8.64999C26.6498 7.64999 27.4498 6.89999 28.3998 6.89999ZM10.5498 6.89999H22.3498C22.6498 6.89999 22.8498 7.14999 22.8498 7.39999V9.84999C22.8498 10.15 22.5998 10.35 22.3498 10.35H10.5498C10.2498 10.35 10.0498 10.1 10.0498 9.84999V7.39999C10.0498 7.09999 10.2998 6.89999 10.5498 6.89999Z" fill="#BEBEBE"/>
<path d="M10.5499 11.25H22.3499C23.0999 11.25 23.7499 10.65 23.7499 9.85V7.4C23.7499 6.65 23.1499 6 22.3499 6H10.5499C9.7999 6 9.1499 6.6 9.1499 7.4V9.85C9.1999 10.6 9.7999 11.25 10.5499 11.25ZM10.9499 7.75H21.9999V9.5H10.9499V7.75ZM28.3999 11.25C29.8499 11.25 30.9999 10.1 30.9999 8.65C30.9999 7.2 29.8499 6.05 28.3999 6.05C26.9499 6.05 25.7999 7.2 25.7999 8.65C25.7999 10.05 26.9499 11.25 28.3999 11.25ZM28.3999 7.75C28.8499 7.75 29.2499 8.15 29.2499 8.6C29.2499 9.05 28.8499 9.5 28.3999 9.5C27.9499 9.5 27.5499 9.1 27.5499 8.65C27.5499 8.2 27.8999 7.75 28.3999 7.75ZM35.6499 11.25C37.0999 11.25 38.2499 10.1 38.2499 8.65C38.2499 7.2 37.0999 6.05 35.6499 6.05C34.1999 6.05 33.0499 7.2 33.0499 8.65C33.0499 10.05 34.1999 11.25 35.6499 11.25ZM35.6499 7.75C36.0999 7.75 36.4999 8.15 36.4999 8.6C36.4999 9.05 36.0999 9.5 35.6499 9.5C35.1999 9.5 34.7999 9.1 34.7999 8.65C34.7999 8.2 35.1999 7.75 35.6499 7.75Z" fill="black"/>
<path d="M44.3499 37.45C44.3499 36.75 44.0999 36.1 43.6499 35.6C44.0999 35.1 44.3499 34.5 44.3499 33.75C44.3499 32.4 43.3499 31.25 42.0499 31.1V5.05C42.0499 3.65 40.8999 2.5 39.4999 2.5H8.1999C6.7999 2.5 5.6499 3.65 5.6499 5.05V38.05C5.6499 39.15 6.3499 40.05 7.2999 40.4V41.45C7.2999 42.9 8.4999 44.1 9.9499 44.1H21.2999C21.2499 44.35 21.1999 44.6 21.1999 44.85C21.1999 46.35 22.3999 47.55 23.8999 47.55H39.7999C42.2999 47.55 44.3499 45.5 44.3499 43C44.3499 41.75 43.8499 40.65 43.0499 39.85C43.8499 39.3 44.3499 38.45 44.3499 37.45ZM42.5999 33.8C42.5999 34.3 42.1499 34.75 41.6499 34.75H27.3499C26.8499 34.75 26.4499 35.15 26.4499 35.65C26.4499 36.15 26.8499 36.55 27.3499 36.55H41.6499C42.1499 36.55 42.5999 37 42.5999 37.5C42.5999 38 42.1499 38.45 41.6499 38.45H25.7499C24.1999 38.45 22.9499 37.2 22.9499 35.65C22.9499 34.7 23.3999 33.9 24.1499 33.4C24.1999 33.4 24.1999 33.35 24.1999 33.35C24.6499 33.05 25.1499 32.9 25.7499 32.9H41.6499C42.1499 32.85 42.5999 33.3 42.5999 33.8ZM8.1999 38.8C7.7499 38.8 7.3999 38.45 7.3999 38.05V14.75H40.2999V31.1H32.3499C32.9999 29.75 33.2999 28.25 33.2999 26.75C33.2999 21.1 28.6999 16.5 22.9999 16.5C17.3499 16.5 12.6999 21.1 12.6999 26.75C12.6999 29.3 13.6499 31.75 15.3999 33.65C16.9499 35.35 19.0499 36.5 21.3499 36.85C21.5499 37.55 21.9499 38.2 22.4499 38.75H8.1999V38.8ZM28.2499 31.1C28.7999 30.45 29.1999 29.7 29.4999 28.9C29.4999 28.85 29.4999 28.85 29.5499 28.8C29.7499 28.15 29.8499 27.45 29.8499 26.75C29.8499 23 26.7999 19.95 23.0499 19.95C19.2999 19.95 16.2499 23 16.2499 26.75C16.2499 27.4 16.3499 28 16.4999 28.6C16.4999 28.65 16.4999 28.65 16.5499 28.7C17.2499 31.1 19.2999 32.95 21.7999 33.4C21.4999 33.9 21.3499 34.45 21.2499 35.05C17.3499 34.25 14.4999 30.85 14.4999 26.75C14.4999 22.05 18.2999 18.25 23.0499 18.25C27.7499 18.25 31.5999 22.05 31.5999 26.75C31.5999 28.3 31.1999 29.8 30.3999 31.1H28.2499ZM23.3999 31.75H23.0499C20.8499 31.75 18.9999 30.35 18.2999 28.4C18.7499 27.4 19.6999 26.8 20.8499 26.8C21.7499 26.8 22.2499 27.05 22.8999 27.35C23.6999 27.75 24.5999 28.15 26.1999 28.15C27.0499 28.15 27.4499 28.2 27.6999 28.6C27.2999 29.65 26.5499 30.5 25.5499 31.05C24.7499 31.15 23.9999 31.4 23.3999 31.75ZM18.0499 26C18.3999 23.6 20.4999 21.75 23.0499 21.75C25.7999 21.75 28.0999 24 28.0999 26.75C27.4499 26.45 26.6999 26.45 26.1999 26.45C24.9999 26.45 24.3999 26.15 23.6499 25.8C22.9499 25.45 22.1499 25.1 20.8499 25.1C19.7999 25.1 18.8499 25.4 18.0499 26ZM8.1999 4.25H39.4999C39.9499 4.25 40.2999 4.6 40.2999 5V13H7.3999V5.05C7.3999 4.6 7.7499 4.25 8.1999 4.25ZM9.0499 41.4V40.5H21.2499C21.1999 40.7 21.1999 40.9 21.1999 41.1C21.1999 41.5 21.2999 41.9 21.4499 42.25H9.9499C9.4499 42.3 9.0499 41.9 9.0499 41.4ZM39.7999 45.75H23.8999C23.3499 45.75 22.9499 45.3 22.9499 44.8C22.9499 44.3 23.3999 43.85 23.8999 43.85H38.1999C38.6999 43.85 39.0999 43.45 39.0999 42.95C39.0999 42.45 38.6999 42.05 38.1999 42.05H23.8999C23.3499 42.05 22.9499 41.6 22.9499 41.1C22.9499 40.6 23.3999 40.15 23.8999 40.15H39.7999C41.3499 40.15 42.5999 41.4 42.5999 42.95C42.5999 44.5 41.3499 45.75 39.7999 45.75Z" fill="black"/>
</svg>
