<svg width="50" height="50" viewBox="0 0 50 50" fill="none" xmlns="http://www.w3.org/2000/svg">
<path fill-rule="evenodd" clip-rule="evenodd" d="M6.15005 32.65C5.05005 33.55 4.95005 35.1 6.25005 36.85C4.60005 37.25 3.30005 38.2 3.30005 39.35C3.30005 40.55 4.65005 41.45 6.25005 41.9C5.00005 43.65 5.05005 45.2 6.15005 46.1C7.85005 47.4 9.85005 45.6 11.65 43C11 42.05 10.65 40.85 10.65 39.35C10.65 39.05 10.65 38.75 10.7 38.5C10.8 37.4 11.15 36.5 11.65 35.7C9.85005 33.15 7.80005 31.35 6.15005 32.65Z" fill="#8BC277"/>
<path fill-rule="evenodd" clip-rule="evenodd" d="M6.15004 32.65C5.35004 33.25 5.10004 34.2 5.45004 35.35C5.60004 35 5.85004 34.7 6.15004 34.45C7.65004 33.25 9.45004 34.6 11.15 36.8C11.3 36.45 11.5 36.1 11.7 35.75C9.85004 33.15 7.80004 31.35 6.15004 32.65Z" fill="#709E5F"/>
<path fill-rule="evenodd" clip-rule="evenodd" d="M23.5001 17.7C19.4501 22.25 20.4501 29.7 25.7501 34.45C31.0001 39.15 38.5501 39.3 42.6001 34.75C46.6501 30.2 45.6501 22.75 40.3501 18.05C35.1001 13.3 27.5501 13.15 23.5001 17.7Z" fill="#FF7F85"/>
<path fill-rule="evenodd" clip-rule="evenodd" d="M36.85 17.1C42.15 21.8 43.1 29.3 39.1 33.8C36.85 36.35 33.5 37.4 30.05 37.05C34.6 38.85 39.6 38.1 42.65 34.7C46.7 30.15 45.7 22.7 40.4001 18C38.05 15.9 35.3 14.75 32.6 14.45C34.05 15.05 35.55 15.95 36.85 17.1Z" fill="#DE6D72"/>
<path fill-rule="evenodd" clip-rule="evenodd" d="M36.1501 17.55C34.8501 18 33.7 19.05 33.05 20.65C34.55 21.55 36.1001 21.75 37.45 21.3C37.1501 22.7 37.5 24.2 38.55 25.6C40.05 24.75 41 23.55 41.3 22.15C42.35 23.3 43.7 24.1 45.6 23.85C45.65 20.75 44.85 18.1 41.3 17.1C41.25 17.1 41.25 17.1 41.2 17.05C39.8 13.5 37.05 13 33.9501 13.45C33.9501 15.35 34.9001 16.65 36.1501 17.55Z" fill="#8BC277"/>
<path fill-rule="evenodd" clip-rule="evenodd" d="M12.35 3.55C9.34999 4.3 7.44999 7.2 7.84999 10.25C4.39999 11.55 3.34999 15.85 5.69999 18.65C4.09999 20.75 5.44999 24.4 8.74999 25C10.9 25.5 13.6 28 14.75 30.5C16.3 33.85 17.85 35.65 20.25 35.05C22.65 34.45 23.15 32.1 22.95 28.45C22.8 25.7 24 22.2 25.65 20.75C28.25 18.65 27.75 14.8 25.35 13.75C26.1 10.2 23.15 6.9 19.5 7.4C18.45 4.45 15.4 2.8 12.35 3.55Z" fill="#CAF598"/>
<path fill-rule="evenodd" clip-rule="evenodd" d="M19.3999 8.84999C22.5999 9.19999 23.5999 11.05 23.1499 13.7C22.9999 14.45 23.1499 14.4 23.6999 14.95C25.0499 16.45 24.5499 19.55 22.7999 21.35C21.1499 22.8 20.6499 26.5 20.8499 29.25C20.9999 32 20.1999 34 19.0499 35.1C19.3999 35.15 19.7999 35.1 20.1999 35C22.5999 34.4 23.0999 32.05 22.8999 28.4C22.7499 25.65 23.9499 22.15 25.5999 20.7C28.1999 18.6 27.6999 14.75 25.2999 13.7C26.0499 10.15 23.0999 6.84999 19.4499 7.34999C18.3999 4.49999 15.3499 2.84999 12.3499 3.59999C11.7499 3.74999 11.1499 3.99999 10.6499 4.34999C13.0499 4.04999 16.8499 5.99999 17.9999 8.04999C18.4999 8.99999 18.3999 8.74999 19.3999 8.84999Z" fill="#AFD188"/>
<path fill-rule="evenodd" clip-rule="evenodd" d="M10.6499 39.4C10.6499 40.85 10.9999 42.05 11.6499 43.05C12.7999 44.75 14.7999 45.75 17.2999 46.25C19.8999 46.75 23.0499 46.75 26.2999 46.4C34.1999 45.5 42.6499 42.65 45.3999 40.85C46.6999 40 46.6999 38.85 45.3999 38C43.1999 36.55 37.4499 34.45 31.1999 33.2C27.8499 32.55 24.3999 32.1 21.2999 32.15C16.9499 32.2 13.2999 33.2 11.5999 35.75C10.9999 36.7 10.6499 37.9 10.6499 39.4Z" fill="#FCAA62"/>
<path fill-rule="evenodd" clip-rule="evenodd" d="M21.35 32.15C17 32.2 13.35 33.2 11.65 35.75C11.15 36.55 10.8 37.45 10.7 38.55C10.75 38.5 10.75 38.45 10.8 38.45C12.5 35.9 16.15 34.9 20.5 34.85C23.6 34.8 27.05 35.25 30.4 35.9C36.6 37.15 42.3499 39.25 44.5499 40.7C44.75 40.85 44.8999 40.95 45.0499 41.1C45.2 41 45.3 40.95 45.4 40.85C46.7 40 46.7 38.85 45.4 38C43.2 36.55 37.45 34.45 31.2 33.2C27.95 32.5 24.45 32.1 21.35 32.15Z" fill="#E09757"/>
<path d="M46.85 13.85C44.9 13.6 43.1 14.15 41.75 15.6L41.5 15.85C39.65 12.4 36.3 12.35 33.9 12.7C33.55 12.75 33.25 13.05 33.25 13.45V13.8C31.2 13.5 29.1 13.7 27.25 14.35C26.95 13.95 26.6 13.6 26.15 13.3C26.35 11.55 25.8 9.8 24.6 8.5C23.4 7.2 21.75 6.5 19.95 6.55C18.6 3.65 15.35 2.05 12.2 2.85C9 3.6 6.9 6.55 7.05 9.75C5.5 10.5 4.35 11.9 3.9 13.65C3.45 15.35 3.8 17.2 4.8 18.65C4.2 19.75 4.1 21.1 4.6 22.4C5.25 24.1 6.75 25.35 8.55 25.7C10.45 26.15 13 28.45 14.05 30.8C14.35 31.45 14.6 32 14.9 32.45C14.45 32.6 14.05 32.8 13.65 33C12.85 33.4 12.2 33.9 11.65 34.5C10.25 32.65 8.95 31.65 7.75 31.5C7 31.4 6.3 31.6 5.65 32.05C4.6 32.85 4 34.4 5.05 36.4C3.45 37.05 2.5 38.15 2.5 39.4C2.5 40.65 3.45 41.7 5.05 42.35C4 44.35 4.6 45.9 5.65 46.7C6.15 47.1 6.75 47.3 7.35 47.3C7.5 47.3 7.6 47.3 7.75 47.25C8.95 47.05 10.25 46.1 11.65 44.25C12.2 44.85 12.85 45.35 13.65 45.75C15.8 46.9 18.75 47.4 21.95 47.4C31.05 47.4 42.5 43.6 45.85 41.45C46.7 40.9 47.15 40.15 47.15 39.4C47.15 38.65 46.7 37.9 45.85 37.35C45.15 36.9 44.05 36.35 42.65 35.75C42.85 35.6 43 35.4 43.15 35.2C45.65 32.4 46.45 28.5 45.35 24.6C45.45 24.6 45.6 24.6 45.7 24.55C46.05 24.5 46.35 24.2 46.35 23.8C46.4 21.45 46.05 18.25 42.65 16.75L42.8 16.6C43.85 15.5 45.15 15.1 46.65 15.3C47.05 15.35 47.45 15.05 47.5 14.65C47.55 14.3 47.25 13.95 46.85 13.85ZM15.45 30.15C14.2 27.4 11.25 24.75 8.9 24.2C7.55 23.95 6.5 23.05 6.05 21.85C5.65 20.85 5.8 19.8 6.35 19.05C6.55 18.75 6.55 18.4 6.35 18.1C5.3 17 5 15.5 5.35 14.05C5.7 12.6 6.75 11.45 8.15 10.95C8.5 10.8 8.65 10.5 8.65 10.15C8.25 7.5 9.95 4.95 12.6 4.3C15.2 3.65 17.9 5.05 18.8 7.6C18.9 7.95 19.25 8.15 19.6 8.1C21.1 7.9 22.5 8.45 23.5 9.55C24.5 10.65 24.95 12.15 24.6 13.6C24.55 13.95 24.7 14.3 25.05 14.45C25.9 14.85 26.5 15.7 26.65 16.75C26.8 18.05 26.3 19.35 25.2 20.2C23.4 21.8 22.05 25.5 22.25 28.5C22.3 29.7 22.3 30.65 22.2 31.4C20.1 31.4 18.15 31.55 16.4 32C16.05 31.45 15.75 30.85 15.45 30.15ZM7.55 45.8C7.2 45.85 6.9 45.75 6.6 45.55C5.4 44.6 6.35 43.05 6.85 42.4C7 42.2 7.05 41.95 6.95 41.7C6.85 41.45 6.65 41.3 6.45 41.25C5 40.85 4 40.1 4 39.4C4 38.7 5 37.95 6.4 37.6C6.65 37.55 6.85 37.35 6.9 37.15C6.95 36.95 6.95 36.65 6.8 36.45C6.35 35.8 5.4 34.2 6.55 33.3C6.85 33.05 7.15 33 7.5 33.05C8.1 33.15 9.15 33.7 10.7 35.85C10.15 36.9 9.85 38.1 9.85 39.45C9.85 40.8 10.15 42 10.7 43.05C9.2 45.1 8.15 45.7 7.55 45.8ZM45.65 39.4C45.65 39.65 45.4 39.95 45 40.2C42.5 41.8 34.6 44.55 27.05 45.5V42.05C27.05 41.65 26.7 41.3 26.3 41.3C25.9 41.3 25.55 41.65 25.55 42.05V45.65C22.85 45.9 20.25 45.95 18.05 45.6V41.35C18.05 40.95 17.7 40.6 17.3 40.6C16.9 40.6 16.55 40.95 16.55 41.35V45.25C15.75 45.05 15 44.75 14.35 44.4C12.35 43.3 11.4 41.65 11.4 39.35C11.4 37.05 12.35 35.4 14.35 34.3C16 33.4 18.15 33 20.6 32.9V36.55C20.6 36.95 20.95 37.3 21.35 37.3C21.75 37.3 22.1 36.95 22.1 36.55V32.9C24.75 32.95 27.65 33.3 30.5 33.85V38.9C30.5 39.3 30.85 39.65 31.25 39.65C31.65 39.65 32 39.3 32 38.9V34.15C37.8 35.4 43.1 37.35 45 38.6C45.4 38.85 45.65 39.15 45.65 39.4ZM42.05 34.2C41.75 34.55 41.4 34.85 41.1 35.1C36.45 33.4 29.7 31.65 23.7 31.35C23.8 30.5 23.8 29.5 23.75 28.3C23.6 25.75 24.7 22.5 26.2 21.25C27.65 20.05 28.4 18.3 28.15 16.45C28.1 16.15 28.05 15.9 27.95 15.65C29.65 15.05 31.65 14.95 33.55 15.35C33.8 16.1 34.25 16.75 34.8 17.35C33.75 18 32.9 19.05 32.35 20.35C32.2 20.7 32.35 21.1 32.65 21.3C33.95 22.05 35.3 22.4 36.55 22.25C36.55 23.55 37 24.85 37.95 26.05C38.1 26.25 38.3 26.35 38.55 26.35C38.65 26.35 38.8 26.3 38.9 26.25C40.15 25.55 41.05 24.6 41.6 23.5C42.25 24 43 24.35 43.75 24.55C44.95 28.1 44.3 31.7 42.05 34.2ZM44.9 23.15C43.75 23.15 42.8 22.65 41.9 21.65C41.7 21.45 41.4 21.35 41.15 21.45C40.9 21.5 40.65 21.75 40.6 22C40.4 23 39.75 23.9 38.8 24.55C38.2 23.55 37.95 22.45 38.2 21.45C38.25 21.2 38.15 20.9 37.95 20.75C37.8 20.65 37.65 20.55 37.45 20.55C37.35 20.55 37.3 20.55 37.2 20.6C36.2 20.95 35.1 20.85 34.05 20.35C34.6 19.35 35.45 18.6 36.4 18.3C36.65 18.2 36.85 18 36.9 17.7C36.95 17.4 36.85 17.15 36.6 17C35.5 16.2 34.9 15.3 34.75 14.15C37.65 13.9 39.35 14.75 40.35 17L39.5 17.85C39.2 18.15 39.2 18.6 39.5 18.9C39.65 19.05 39.85 19.1 40.05 19.1C40.25 19.1 40.45 19.05 40.6 18.9L41.55 17.9C43.8 18.7 44.8 20.3 44.9 23.15Z" fill="black"/>
<path d="M20.6501 12.9C20.9001 12.6 20.8501 12.1 20.5501 11.85C20.2501 11.6 19.7501 11.65 19.5001 11.95L16.2001 15.9L15.3501 12.6C15.2501 12.2 14.8501 11.95 14.4501 12.05C14.0501 12.15 13.8001 12.55 13.9001 12.95L14.7501 16.25L10.0001 14.35C9.6001 14.2 9.2001 14.4 9.0001 14.75C8.8501 15.15 9.0501 15.55 9.4001 15.75L15.2001 18.1L16.0001 21.35L13.3001 20.25C12.9001 20.1 12.5001 20.3 12.3001 20.65C12.1501 21.05 12.3501 21.45 12.7001 21.65L16.4501 23.15L17.5501 27.65C17.6501 28 17.9501 28.2 18.3001 28.2H18.5001C18.9001 28.1 19.1501 27.7 19.0501 27.3L17.9501 22.8L20.5001 19.7C20.7501 19.4 20.7001 18.9 20.4001 18.65C20.1001 18.4 19.6001 18.45 19.3501 18.75L17.5001 20.95L16.7001 17.7L20.6501 12.9Z" fill="black"/>
</svg>
