<svg width="50" height="50" viewBox="0 0 50 50" fill="none" xmlns="http://www.w3.org/2000/svg">
<path fill-rule="evenodd" clip-rule="evenodd" d="M41.25 26.75V23.7C41.25 22.2 42.5 20.95 44 20.95V16.8C44 12.5 40.5 8.94998 36.15 8.94998H13.85C9.55 8.94998 6 12.45 6 16.8V20.95C7.5 20.95 8.75 22.2 8.75 23.7V26.75H22.2C23.75 26.75 25 28 25 29.55C25 28 26.25 26.75 27.8 26.75H41.25Z" fill="#FEE97E"/>
<path fill-rule="evenodd" clip-rule="evenodd" d="M8.75 32.3V23.7C8.75 22.2 7.5 20.95 6 20.95C4.5 20.95 3.25 22.2 3.25 23.7V32.55C3.25 35.45 5.6 37.8 8.5 37.8H41.5C44.4 37.8 46.75 35.45 46.75 32.55V23.7C46.75 22.2 45.5 20.95 44 20.95C42.5 20.95 41.25 22.2 41.25 23.7V32.3H25H8.75Z" fill="#D87E49"/>
<path fill-rule="evenodd" clip-rule="evenodd" d="M25 32.3V29.5C25 27.95 23.75 26.7 22.2 26.7H8.75V32.25H25V32.3ZM41.25 32.3V26.75H27.8C26.25 26.75 25 28 25 29.5V32.3H41.25Z" fill="#B3B3C7"/>
<path fill-rule="evenodd" clip-rule="evenodd" d="M44.0001 20.95V16.8C44.0001 12.5 40.5001 8.94998 36.1501 8.94998H29.8501C34.1501 8.94998 37.7001 12.45 37.7001 16.8V26.8H41.2501V23.75C41.2501 22.15 42.4501 20.95 44.0001 20.95Z" fill="#E6D373"/>
<path fill-rule="evenodd" clip-rule="evenodd" d="M37.7 26.75H41.25V32.3H37.7V26.75Z" fill="#9B9BA8"/>
<path fill-rule="evenodd" clip-rule="evenodd" d="M46.7501 32.55V23.7C46.7501 22.2 45.5001 20.95 44.0001 20.95C43.5001 20.95 43.0501 21.1 42.6501 21.3C43.5001 21.75 44.1001 22.7 44.1001 23.7V32.55C44.1001 35.45 41.7501 37.8 38.8501 37.8H41.5001C44.4001 37.8 46.7501 35.45 46.7501 32.55Z" fill="#B3673B"/>
<path fill-rule="evenodd" clip-rule="evenodd" d="M24.9999 32.3V29.5C24.9999 27.95 23.7499 26.7 22.1999 26.7H18.6499C20.1999 26.7 21.4499 27.95 21.4499 29.5V32.3H24.9999Z" fill="#9B9BA8"/>
<path d="M15 17.8H16.15V18.95C16.15 19.35 16.5 19.7 16.9 19.7C17.3 19.7 17.65 19.35 17.65 18.95V17.8H18.8C19.2 17.8 19.55 17.45 19.55 17.05C19.55 16.65 19.2 16.3 18.8 16.3H17.65V15.15C17.65 14.75 17.3 14.4 16.9 14.4C16.5 14.4 16.15 14.75 16.15 15.15V16.3H15C14.6 16.3 14.25 16.65 14.25 17.05C14.25 17.45 14.6 17.8 15 17.8ZM31.2 17.8H32.35V18.95C32.35 19.35 32.7 19.7 33.1 19.7C33.5 19.7 33.85 19.35 33.85 18.95V17.8H35C35.4 17.8 35.75 17.45 35.75 17.05C35.75 16.65 35.4 16.3 35 16.3H33.85V15.15C33.85 14.75 33.5 14.4 33.1 14.4C32.7 14.4 32.35 14.75 32.35 15.15V16.3H31.2C30.8 16.3 30.45 16.65 30.45 17.05C30.45 17.45 30.8 17.8 31.2 17.8Z" fill="black"/>
<path d="M44.75 20.25V16.75C44.75 12 40.9 8.14999 36.15 8.14999H13.85C9.1 8.14999 5.25 12 5.25 16.75V20.25C3.7 20.6 2.5 22 2.5 23.7V32.55C2.5 35.6 4.8 38.15 7.75 38.5V41.05C7.75 41.45 8.1 41.8 8.5 41.8C8.9 41.8 9.25 41.45 9.25 41.05V38.55H40.75V41.05C40.75 41.45 41.1 41.8 41.5 41.8C41.9 41.8 42.25 41.45 42.25 41.05V38.5C45.2 38.15 47.5 35.6 47.5 32.55V23.7C47.5 22 46.3 20.6 44.75 20.25ZM13.85 9.69999H36.15C40.05 9.69999 43.25 12.9 43.25 16.8V20.3C41.65 20.6 40.5 22 40.5 23.7V26H27.8C26.65 26 25.65 26.55 25 27.35C24.35 26.5 23.35 26 22.2 26H9.5V23.7C9.5 22 8.3 20.6 6.75 20.25V16.75C6.75 12.85 9.95 9.69999 13.85 9.69999ZM9.5 31.55V27.5H22.2C23.3 27.5 24.25 28.4 24.25 29.55V31.6H9.5V31.55ZM25.75 29.5C25.75 28.4 26.65 27.45 27.8 27.45H40.5V31.5H25.75V29.5ZM46 32.55C46 35.05 44 37.05 41.5 37.05H8.5C6 37.05 4 35.05 4 32.55V23.7C4 22.6 4.9 21.7 6 21.7C7.1 21.7 8 22.6 8 23.7V32.3C8 32.7 8.35 33.05 8.75 33.05H41.2C41.6 33.05 41.95 32.7 41.95 32.3V23.7C41.95 22.6 42.85 21.7 43.95 21.7C45.05 21.7 45.95 22.6 45.95 23.7V32.55H46Z" fill="black"/>
</svg>
