<svg width="48" height="48" viewBox="0 0 48 48" fill="none" xmlns="http://www.w3.org/2000/svg">
<path d="M15.1782 44.4105L35.5767 45.3705L42.0231 42.0105L42.4019 39.5597C43.1036 35.0184 42.9985 28.9488 42.0903 24.444L38.6631 2.64287H10.3782L14.6329 32.6323C14.9958 34.7803 15.1782 36.955 15.1782 39.1334V44.4105Z" fill="#D9AD69"/>
<path d="M35.3032 45.3705L7.01822 44.4105L6.53918 42.2707C5.90269 38.1528 5.92959 33.9596 6.61886 29.8502L10.3782 2.64287H38.6632L34.9043 29.6961C34.2145 33.7794 34.179 37.9464 34.7992 42.0408L35.3032 45.3705Z" fill="#DDB578"/>
<path d="M35.1999 9.23135H10.9205C9.71091 9.23135 8.91747 8.26367 9.14835 7.07039L10.0037 2.64287H38.6631L37.8077 7.07039C37.5773 8.26367 36.409 9.23135 35.1999 9.23135Z" fill="#E1BD87"/>
<path d="M30.4859 30.0081L31.6566 21.5822H11.6367L10.4574 30.1176C9.96919 33.0273 9.95007 35.9964 10.4007 38.9121L10.7401 40.1472L30.7686 41.1072L30.4115 38.7494C29.9727 35.8503 29.9978 32.8999 30.4859 30.0086V30.0081Z" fill="#683613"/>
<path d="M42.8012 24.3317L39.374 2.53055C39.3474 2.36113 39.2611 2.20678 39.1308 2.09529C39.0005 1.98379 38.8346 1.92248 38.6631 1.92239H10.0038C9.83646 1.92238 9.67437 1.98063 9.54534 2.08715C9.41631 2.19366 9.32841 2.34179 9.29673 2.50607L8.44137 6.93359C8.30745 7.62575 8.43609 8.31215 8.79273 8.85551L5.90841 29.7307C5.11209 34.632 5.10921 39.7296 6.31545 44.5675C6.35048 44.723 6.43604 44.8625 6.55875 44.9642C6.68146 45.0659 6.83441 45.124 6.99369 45.1296L35.2787 46.0896C35.3137 46.092 35.75 46.0997 35.9094 46.0085L42.3558 42.6485C42.4559 42.5963 42.5424 42.5212 42.6082 42.4294C42.674 42.3376 42.7172 42.2316 42.7345 42.12C43.7799 36.6106 43.899 29.7245 42.8012 24.3312V24.3317ZM7.59897 43.7098L7.24713 42.1373C6.62462 38.0959 6.65346 33.9809 7.33257 29.9486L10.1118 9.83231C10.3667 9.91055 10.6475 9.94751 10.9206 9.95088H35.1999C35.8417 9.95088 36.4647 9.74447 36.9975 9.39743L34.1939 29.5752C33.303 34.5518 33.5751 39.6614 34.4617 44.6208L7.59897 43.7098ZM10.1108 5.88383L10.598 3.36287H37.7905L37.1003 6.93359C36.9347 7.78847 36.0644 8.51087 35.1995 8.51087H10.9206C10.2131 8.52575 9.68649 7.93631 9.85497 7.20623L10.1108 5.88383ZM41.3675 41.5402L35.8844 44.3981C35.0247 39.5842 34.7478 34.643 35.6171 29.7946L38.7068 7.55711L41.3838 24.5866C42.4259 29.7365 42.3524 36.2957 41.3675 41.5402Z" fill="black"/>
<path d="M15.8982 41.1144L30.7331 41.8253C31.1723 41.8579 31.5567 41.4326 31.4799 40.9982C30.8444 37.4313 30.5324 33.7089 31.1958 30.1277C31.2121 30.12 32.3564 21.6926 32.3694 21.6801C32.4371 21.2616 32.0809 20.8512 31.6566 20.8613H11.6363C11.4623 20.8613 11.2943 20.9242 11.1632 21.0385C11.0321 21.1527 10.9468 21.3106 10.923 21.4829L9.74698 29.9976C9.24538 33.0149 9.21658 36.0835 9.70666 39.1022L10.046 40.3368C10.0863 40.4831 10.1717 40.613 10.2902 40.7079C10.4086 40.8028 10.554 40.8579 10.7055 40.8653L15.8982 41.1144ZM11.1063 38.7614C10.6724 35.9275 10.6942 33.0425 11.1707 30.2155L12.2636 22.3017H30.83L29.7745 29.8982C29.1635 33.3566 29.3118 36.8971 29.9247 40.3454L11.2959 39.4526L11.1059 38.7619L11.1063 38.7614Z" fill="black"/>
</svg>
