<svg width="45" height="45" viewBox="0 0 45 45" fill="none" xmlns="http://www.w3.org/2000/svg">
<g clip-path="url(#clip0_2073_1502)">
<path d="M22.5 8.2821H8.95075C8.23637 7.08186 8.21598 5.37397 8.80239 4.1428C9.35856 2.9721 10.6263 1.6678 13.3825 1.51241C16.7414 1.32186 20.5298 3.73358 22.5 8.2821Z" fill="#FC5959"/>
<path d="M22.5001 9.14695H8.95087C8.64502 9.14695 8.36306 8.98664 8.20697 8.72507C7.36181 7.30406 7.28728 5.31281 8.02064 3.77085C8.53603 2.68804 9.91134 0.841635 13.3342 0.648979C17.2998 0.414838 21.3076 3.3532 23.2939 7.93757C23.3509 8.06927 23.3742 8.21305 23.3619 8.356C23.3495 8.49894 23.3018 8.63659 23.2231 8.75656C23.1444 8.87653 23.0372 8.97507 22.911 9.04333C22.7848 9.1116 22.6436 9.14744 22.5001 9.14765V9.14695ZM9.48947 7.41656H21.1093C19.0717 3.76101 15.8858 2.24648 13.4319 2.37585C11.5278 2.48343 10.1975 3.22312 9.58439 4.51406C9.17166 5.3796 9.14634 6.52921 9.48947 7.41656Z" fill="#0E0E0F"/>
<path d="M22.5 8.2821H36.0492C36.7629 7.08186 36.7833 5.37397 36.1969 4.1428C35.6407 2.9721 34.373 1.6678 31.6167 1.51241C28.2586 1.32186 24.4702 3.73358 22.5 8.2821Z" fill="#FC5959"/>
<path d="M36.0492 9.14695H22.5C22.3565 9.14699 22.2152 9.11133 22.0889 9.04321C21.9626 8.97508 21.8552 8.87661 21.7764 8.75666C21.6976 8.63672 21.6499 8.49906 21.6375 8.35608C21.6251 8.2131 21.6485 8.06928 21.7055 7.93758C23.6925 3.3525 27.7046 0.422578 31.666 0.648984C35.0888 0.841641 36.4648 2.68805 36.9788 3.77086C37.1377 4.10414 37.2607 4.46766 37.3451 4.84945C37.3697 4.96045 37.3721 5.07519 37.3523 5.18712C37.3324 5.29905 37.2907 5.40598 37.2295 5.50178C37.1683 5.59758 37.0889 5.68038 36.9956 5.74544C36.9024 5.8105 36.7973 5.85654 36.6863 5.88094C36.4622 5.9282 36.2285 5.88556 36.0356 5.7622C35.8427 5.63884 35.7059 5.44463 35.6548 5.22141C35.5992 4.96828 35.5184 4.72922 35.4164 4.51406C34.8012 3.22313 33.4716 2.48344 31.5682 2.37656C29.1059 2.26195 25.9264 3.76383 23.8901 7.41656H36.0485C36.278 7.41656 36.4981 7.50772 36.6603 7.66997C36.8226 7.83223 36.9137 8.05229 36.9137 8.28176C36.9137 8.51122 36.8226 8.73129 36.6603 8.89354C36.4981 9.0558 36.2787 9.14695 36.0492 9.14695Z" fill="#0E0E0F"/>
<path d="M40.4537 43.4995H4.5458C4.17843 43.4995 3.82611 43.3536 3.56635 43.0938C3.30658 42.8341 3.16064 42.4817 3.16064 42.1144V17.6484C3.16064 17.2811 3.30658 16.9287 3.56635 16.669C3.82611 16.4092 4.17843 16.2633 4.5458 16.2633H40.4544C40.8216 16.2635 41.1738 16.4095 41.4334 16.6692C41.693 16.929 41.8389 17.2812 41.8389 17.6484V42.1151C41.8389 42.4824 41.6929 42.8348 41.4332 43.0945C41.1734 43.3543 40.8211 43.4995 40.4537 43.4995Z" fill="#FCDD5E"/>
<path d="M40.4535 44.3644H4.54565C3.94915 44.3636 3.37728 44.1263 2.95549 43.7045C2.53369 43.2827 2.2964 42.7109 2.29565 42.1144V21.7013C2.29565 21.4719 2.38677 21.2519 2.54896 21.0897C2.71115 20.9275 2.93113 20.8364 3.1605 20.8364C3.38987 20.8364 3.60985 20.9275 3.77203 21.0897C3.93422 21.2519 4.02534 21.4719 4.02534 21.7013V42.1144C4.02571 42.2521 4.0807 42.3841 4.17823 42.4814C4.27577 42.5787 4.4079 42.6333 4.54565 42.6333H40.4535C40.5913 42.6333 40.7234 42.5787 40.821 42.4814C40.9185 42.3841 40.9735 42.2521 40.9739 42.1144V17.6484C40.9739 17.5104 40.919 17.3781 40.8215 17.2805C40.7239 17.1829 40.5915 17.1281 40.4535 17.1281H4.54565C4.40766 17.1281 4.27532 17.1829 4.17774 17.2805C4.08016 17.3781 4.02534 17.5104 4.02534 17.6484C4.02534 17.8778 3.93422 18.0978 3.77203 18.26C3.60985 18.4222 3.38987 18.5133 3.1605 18.5133C2.93113 18.5133 2.71115 18.4222 2.54896 18.26C2.38677 18.0978 2.29565 17.8778 2.29565 17.6484C2.29565 16.4081 3.30534 15.3984 4.54565 15.3984H40.4535C41.0502 15.3992 41.6222 15.6364 42.0442 16.0582C42.4662 16.4799 42.7038 17.0518 42.705 17.6484V42.1151C42.705 43.3561 41.6939 44.3644 40.4535 44.3644Z" fill="#0E0E0F"/>
<path d="M42.7823 8.2821H2.21688C1.47087 8.2821 0.865479 8.88679 0.865479 9.63351V16.8391C0.865479 17.5859 1.47017 18.1905 2.21688 18.1905H42.7823C43.529 18.1905 44.1337 17.5859 44.1337 16.8391V9.63351C44.1337 8.88679 43.529 8.2821 42.7823 8.2821Z" fill="#FFEC9C"/>
<path d="M42.7823 19.0568H2.21695C1.62921 19.056 1.06575 18.8222 0.650153 18.4066C0.234554 17.991 0.000744216 17.4276 0 16.8398L0 9.6328C0.000930196 9.04518 0.234822 8.4819 0.6504 8.06645C1.06598 7.65101 1.62933 7.41729 2.21695 7.41655H42.7823C43.37 7.41729 43.9335 7.65098 44.3491 8.06641C44.7648 8.48184 44.9989 9.04511 45 9.6328V16.8398C44.9991 17.4276 44.7651 17.9911 44.3494 18.4067C43.9337 18.8223 43.3702 19.056 42.7823 19.0568ZM2.21695 9.14694C2.08803 9.14694 1.96438 9.19811 1.87315 9.2892C1.78192 9.3803 1.73058 9.50388 1.73039 9.6328V16.8398C1.73039 17.107 1.94836 17.3257 2.21695 17.3257H42.7823C43.0509 17.3257 43.2696 17.1077 43.2696 16.8398V9.6328C43.2695 9.5689 43.2568 9.50565 43.2323 9.44665C43.2078 9.38766 43.1718 9.33407 43.1266 9.28895C43.0814 9.24384 43.0277 9.20807 42.9686 9.18371C42.9095 9.15934 42.8462 9.14685 42.7823 9.14694H2.21695Z" fill="#0E0E0F"/>
<path d="M18.8115 8.2821H26.188V43.4995H18.8115V8.2821Z" fill="#EF3A3A"/>
<path d="M26.1886 44.3644H18.8114C18.3333 44.3644 17.9465 43.9776 17.9465 43.4995V8.28069C17.9465 7.80257 18.3333 7.41585 18.8114 7.41585H26.1886C26.6667 7.41585 27.0534 7.80257 27.0534 8.28069V43.4981C27.0534 43.9762 26.6667 44.363 26.1886 44.363V44.3644ZM19.6776 42.6333H25.323V9.14764H19.6769L19.6776 42.6333Z" fill="#0E0E0F"/>
</g>
<defs>
<clipPath id="clip0_2073_1502">
<rect width="45" height="45" fill="white"/>
</clipPath>
</defs>
</svg>
