<svg width="50" height="50" viewBox="0 0 50 50" fill="none" xmlns="http://www.w3.org/2000/svg">
<path fill-rule="evenodd" clip-rule="evenodd" d="M34.45 21.65H7.80005V38.8H31.15L32.7 37.25L34.45 35.5V21.65Z" fill="#77DBC7"/>
<path fill-rule="evenodd" clip-rule="evenodd" d="M31.1499 38.8H7.79993V42.05C7.79993 43.3 8.79993 44.3 10.0499 44.3H29.3999C28.7499 42.8 28.9999 40.95 30.2499 39.7L31.1499 38.8ZM29.3999 11.95H12.7999L8.54993 18.25C7.74993 19.4 7.79993 19.85 7.79993 21.65H34.4499C34.4499 19.85 34.4499 19.4 33.6999 18.25L29.3999 11.95Z" fill="white"/>
<path fill-rule="evenodd" clip-rule="evenodd" d="M18.65 3.25H10.85C9.79995 3.25 8.94995 4.1 8.94995 5.15V10C8.94995 11.05 9.79995 11.9 10.85 11.9H31.4C32.45 11.9 33.2999 11.05 33.2999 10V5.15C33.2999 4.1 32.45 3.25 31.4 3.25H23.55H18.65Z" fill="#77DBC7"/>
<path fill-rule="evenodd" clip-rule="evenodd" d="M41 34.75C39.4 33.15 36.75 33.15 35.15 34.75L34.45 35.5L32.7 37.25L38.5499 43.1L41 40.65C42.6 39 42.6 36.4 41 34.75Z" fill="#F17171"/>
<path fill-rule="evenodd" clip-rule="evenodd" d="M38.55 43.1L32.7 37.25L31.15 38.8L30.25 39.7C29 40.95 28.75 42.75 29.4 44.3C29.6 44.75 29.9 45.2 30.25 45.55C31.85 47.15 34.5 47.15 36.1 45.55L38.55 43.1Z" fill="#FFE367"/>
<path d="M24.8501 29.5H21.8501V26.5C21.8501 26.1 21.5001 25.75 21.1001 25.75C20.7001 25.75 20.3501 26.1 20.3501 26.5V29.5H17.3501C16.9501 29.5 16.6001 29.85 16.6001 30.25C16.6001 30.65 16.9501 31 17.3501 31H20.3501V34C20.3501 34.4 20.7001 34.75 21.1001 34.75C21.5001 34.75 21.8501 34.4 21.8501 34V31H24.8501C25.2501 31 25.6001 30.65 25.6001 30.25C25.6001 29.8 25.3001 29.5 24.8501 29.5Z" fill="black"/>
<path d="M41.55 34.25C39.8 32.5 37.1 32.35 35.2001 33.8V21.55C35.2001 19.8 35.2 19.15 34.3 17.8L30.85 12.65H31.4C32.85 12.65 34.05 11.45 34.05 10V5.15C34.05 3.7 32.85 2.5 31.4 2.5H10.85C9.40005 2.5 8.20005 3.7 8.20005 5.15V10C8.20005 11.45 9.40005 12.65 10.85 12.65H11.4L7.95005 17.8C7.05005 19.15 7.05005 19.8 7.05005 21.55V42.05C7.05005 43.7 8.40005 45.05 10.05 45.05H28.9501C29.1501 45.4 29.4 45.75 29.75 46.1C30.7001 47.05 31.9501 47.55 33.2001 47.55C34.4501 47.55 35.7001 47.05 36.6501 46.1L41.6 41.15C42.5 40.25 43 39 43 37.7C42.9501 36.4 42.4501 35.15 41.55 34.25ZM8.55005 22.4H33.7001V35.2L30.85 38.05H8.55005V22.4ZM9.65005 10.05V5.2C9.65005 4.55 10.15 4.05 10.8 4.05H13V6.1C13 6.5 13.35 6.85 13.75 6.85C14.15 6.85 14.5 6.5 14.5 6.1V4H17.85V6.05C17.85 6.45 18.2 6.8 18.6 6.8C19 6.8 19.35 6.45 19.35 6.05V4H22.75V6.05C22.75 6.45 23.1 6.8 23.5 6.8C23.9 6.8 24.25 6.45 24.25 6.05V4H27.65V6.05C27.65 6.45 28 6.8 28.4 6.8C28.8 6.8 29.15 6.45 29.15 6.05V4H31.35C32 4 32.5 4.5 32.5 5.15V10C32.5 10.65 32 11.15 31.35 11.15H10.85C10.2 11.2 9.65005 10.65 9.65005 10.05ZM13.2 12.7H29L33 18.65C33.55 19.45 33.6001 19.75 33.6501 20.9H8.55005C8.55005 19.75 8.65005 19.45 9.20005 18.65L13.2 12.7ZM10.05 43.55C9.20005 43.55 8.55005 42.9 8.55005 42.05V39.55H29.35C28.45 40.7 28.1 42.15 28.35 43.55H10.05ZM35.55 45C34.25 46.3 32.1 46.3 30.75 45C29.4501 43.7 29.4501 41.55 30.75 40.2L32.7001 38.25L37.5 43.05L35.55 45ZM40.5 40.1L38.55 42L33.75 37.2L34.9501 36L35.7001 35.25C36.35 34.6 37.2 34.25 38.1 34.25C38.95 34.25 39.85 34.6 40.5 35.25C41.1501 35.9 41.5 36.75 41.5 37.65C41.4501 38.6 41.1 39.45 40.5 40.1Z" fill="black"/>
</svg>
