<svg width="43" height="43" viewBox="0 0 43 43" fill="none" xmlns="http://www.w3.org/2000/svg">
<path d="M40.7531 41.1266H2.24691C1.36844 41.1266 0.65625 40.4144 0.65625 39.5359V10.7992H42.3437V39.5359C42.3437 40.4145 41.6316 41.1266 40.7531 41.1266Z" fill="#FFC473"/>
<path d="M36.2209 10.7992V15.8583C36.2209 28.7356 25.7819 39.1747 12.9046 39.1747H0.65625V39.536C0.65625 40.4145 1.36844 41.1266 2.24691 41.1266H40.7531C41.6316 41.1266 42.3437 40.4145 42.3437 39.536V10.7992H36.2209Z" fill="#FFB74F"/>
<path d="M42.3437 10.7992H0.65625L5.82918 1.87343H37.3737L42.3437 10.7992Z" fill="#FF9901"/>
<path d="M37.3737 1.87343H31.2488L36.2189 10.7992H42.3437L37.3737 1.87343Z" fill="#FF8900"/>
<path d="M25.6079 10.7992H17.3921L18.4115 1.87343H24.6284L25.6079 10.7992Z" fill="#E67500"/>
<path d="M24.9939 19.015H18.006C17.8432 19.015 17.687 18.9503 17.5719 18.8352C17.4568 18.72 17.3921 18.5639 17.3921 18.4011V10.7992H25.6079V18.4011C25.6079 18.5639 25.5432 18.72 25.428 18.8352C25.3129 18.9503 25.1568 19.015 24.9939 19.015Z" fill="#FFB74F"/>
<path d="M13.2043 37.0027H5.13603C4.99991 37.0027 4.86937 36.9486 4.77312 36.8523C4.67687 36.7561 4.6228 36.6256 4.6228 36.4894V29.5305C4.6228 29.3944 4.67687 29.2638 4.77312 29.1676C4.86937 29.0713 4.99991 29.0173 5.13603 29.0173H13.2043C13.3404 29.0173 13.471 29.0713 13.5672 29.1676C13.6635 29.2638 13.7176 29.3944 13.7176 29.5305V36.4894C13.7176 36.6256 13.6635 36.7561 13.5672 36.8523C13.471 36.9486 13.3404 37.0027 13.2043 37.0027Z" fill="#FFDBA9"/>
<path d="M38.5444 31.1598V29.5557C38.5444 29.4129 38.4877 29.2759 38.3867 29.1749C38.2857 29.0739 38.1487 29.0172 38.0059 29.0172H33.0449C32.902 29.0172 32.7651 29.0739 32.6641 29.1749C32.5631 29.2759 32.5063 29.4129 32.5063 29.5557V31.1598C32.5063 32.6031 33.5194 33.8092 34.8732 34.1074C34.8706 34.1309 34.8692 34.1547 34.8692 34.1789V36.4653H33.5259C33.1666 36.4653 32.8533 36.7422 32.8425 37.1014C32.8397 37.1892 32.8547 37.2767 32.8864 37.3586C32.9182 37.4406 32.9661 37.5153 33.0272 37.5784C33.0884 37.6415 33.1616 37.6916 33.2426 37.7259C33.3235 37.7601 33.4105 37.7778 33.4984 37.7778H37.5249C37.8842 37.7778 38.1975 37.5009 38.2084 37.1417C38.2111 37.0539 38.1961 36.9664 38.1644 36.8845C38.1326 36.8025 38.0848 36.7278 38.0236 36.6647C37.9624 36.6016 37.8892 36.5515 37.8083 36.5172C37.7273 36.483 37.6403 36.4653 37.5525 36.4653H36.1817V34.1789C36.1816 34.155 36.1803 34.1311 36.1776 34.1074C37.5313 33.8092 38.5444 32.6031 38.5444 31.1598Z" fill="#57555C"/>
<path d="M42.9179 10.4816C42.9175 10.4811 42.9174 10.4805 42.9171 10.48L37.9471 1.55421C37.8902 1.45205 37.8071 1.36694 37.7062 1.30769C37.6054 1.24844 37.4906 1.21719 37.3737 1.21718H34.8401C34.4776 1.21718 34.1838 1.51096 34.1838 1.87343C34.1838 2.23591 34.4776 2.52969 34.8401 2.52969H36.9881L41.2273 10.143H26.1961L25.3606 2.52969H31.9089C32.2713 2.52969 32.5651 2.23591 32.5651 1.87343C32.5651 1.51096 32.2713 1.21718 31.9089 1.21718H5.82919C5.71417 1.21717 5.60117 1.2474 5.50151 1.30483C5.40185 1.36226 5.31904 1.44487 5.26137 1.54438L0.0884355 10.4702C0 10.5856 0.000335938 10.7703 0.000167969 10.7958L0 10.7988V15.3563C2.59354e-09 15.5303 0.0691408 15.6973 0.192212 15.8203C0.315284 15.9434 0.482205 16.0125 0.656254 16.0125C0.830303 16.0125 0.997224 15.9434 1.1203 15.8203C1.24337 15.6973 1.31251 15.5303 1.31251 15.3563V11.4555H16.7359V19.015C16.7359 19.189 16.805 19.3559 16.9281 19.479C17.0512 19.6021 17.2181 19.6712 17.3922 19.6712H25.608C25.6942 19.6712 25.7795 19.6543 25.8592 19.6213C25.9388 19.5883 26.0111 19.54 26.0721 19.479C26.133 19.4181 26.1814 19.3458 26.2143 19.2661C26.2473 19.1865 26.2643 19.1012 26.2643 19.015V11.4555H41.6877V39.5359C41.6877 40.0511 41.2685 40.4703 40.7533 40.4703H2.24692C1.73167 40.4703 1.31251 40.0511 1.31251 39.5359V18.1783C1.31251 18.0043 1.24337 17.8374 1.1203 17.7143C0.997224 17.5912 0.830303 17.5221 0.656254 17.5221C0.482205 17.5221 0.315284 17.5912 0.192212 17.7143C0.0691408 17.8374 2.59354e-09 18.0043 0 18.1783V39.5359C0 40.7748 1.0079 41.7828 2.24692 41.7828H40.7531C41.9921 41.7828 43 40.7748 43 39.5359V10.7992C43 10.7745 43 10.5978 42.9179 10.4816ZM24.0403 2.5296L24.8757 10.143H18.1274L18.997 2.5296H24.0403ZM6.20737 2.5296H17.6761L16.8065 10.143H1.79508L6.20737 2.5296ZM24.9517 18.3587H18.0483V11.4555H24.9517V18.3587Z" fill="black"/>
<path d="M3.96664 37.0027C3.96664 37.1767 4.03578 37.3436 4.15885 37.4667C4.28192 37.5898 4.44884 37.6589 4.62289 37.6589H13.7177C13.8039 37.6589 13.8893 37.642 13.9689 37.609C14.0485 37.576 14.1209 37.5277 14.1818 37.4667C14.2427 37.4058 14.2911 37.3334 14.324 37.2538C14.357 37.1742 14.374 37.0889 14.374 37.0027V29.0173C14.374 28.8432 14.3048 28.6763 14.1818 28.5532C14.0587 28.4302 13.8918 28.361 13.7177 28.361H4.62281C4.53662 28.361 4.45128 28.378 4.37166 28.4109C4.29203 28.4439 4.21968 28.4923 4.15874 28.5532C4.0978 28.6141 4.04946 28.6865 4.01648 28.7661C3.98351 28.8457 3.96654 28.9311 3.96655 29.0173L3.96664 37.0027ZM5.27906 29.6734H13.0614V36.3464H5.27906V29.6734ZM39.2008 31.1598V29.0172C39.2008 28.8431 39.1316 28.6762 39.0086 28.5531C38.8855 28.4301 38.7186 28.3609 38.5445 28.3609H32.5065C32.4203 28.3609 32.3349 28.3779 32.2553 28.4109C32.1757 28.4438 32.1033 28.4922 32.0424 28.5531C31.9815 28.6141 31.9331 28.6864 31.9001 28.766C31.8672 28.8457 31.8502 28.931 31.8502 29.0172V31.1598C31.8502 32.9623 33.1549 34.4647 34.8692 34.7752V36.4653H33.4985C33.3244 36.4653 33.1575 36.5344 33.0344 36.6575C32.9114 36.7805 32.8422 36.9475 32.8422 37.1215C32.8422 37.2956 32.9114 37.4625 33.0344 37.5856C33.1575 37.7086 33.3244 37.7778 33.4985 37.7778H37.5525C37.7265 37.7778 37.8935 37.7086 38.0165 37.5856C38.1396 37.4625 38.2087 37.2956 38.2087 37.1215C38.2087 36.9475 38.1396 36.7805 38.0165 36.6575C37.8935 36.5344 37.7265 36.4653 37.5525 36.4653H36.1817V34.7752C37.8961 34.4647 39.2008 32.9623 39.2008 31.1598ZM33.1627 31.1598V29.6734H37.8883V31.1598C37.8883 32.4626 36.8283 33.5226 35.5254 33.5226C34.2227 33.5226 33.1627 32.4626 33.1627 31.1598ZM4.62281 15.3563H13.1843C13.5468 15.3563 13.8406 15.0625 13.8406 14.7C13.8406 14.3376 13.5468 14.0438 13.1843 14.0438H4.62281C4.26033 14.0438 3.96655 14.3376 3.96655 14.7C3.96655 15.0625 4.26033 15.3563 4.62281 15.3563ZM4.62281 18.1782H10.3251C10.4991 18.1782 10.6661 18.1091 10.7891 17.986C10.9122 17.863 10.9813 17.696 10.9813 17.522C10.9813 17.3479 10.9122 17.181 10.7891 17.0579C10.6661 16.9349 10.4991 16.8657 10.3251 16.8657H4.62281C4.45058 16.8685 4.28633 16.9388 4.16551 17.0616C4.04468 17.1844 3.97697 17.3497 3.97697 17.522C3.97697 17.6942 4.04468 17.8596 4.16551 17.9824C4.28633 18.1051 4.45058 18.1755 4.62281 18.1782Z" fill="black"/>
</svg>
